%FSLAX43Y43*%
%MOMM*%
G71*
G01*
G75*
G04 Layer_Color=8388736*
%ADD10R,0.650X0.500*%
%ADD11R,1.600X1.000*%
%ADD12R,2.500X3.000*%
%ADD13R,0.675X0.250*%
%ADD14R,0.250X0.675*%
%ADD15R,1.500X1.100*%
%ADD16R,0.400X0.400*%
%ADD17R,1.400X0.600*%
%ADD18R,0.650X0.800*%
%ADD19R,1.000X0.950*%
%ADD20R,0.600X0.900*%
%ADD21R,0.800X0.650*%
%ADD22R,0.500X0.650*%
%ADD23R,0.900X0.600*%
%ADD24C,0.254*%
%ADD25C,0.200*%
%ADD26C,0.300*%
%ADD27C,0.250*%
%ADD28C,1.700*%
%ADD29R,1.700X1.700*%
%ADD30C,1.800*%
%ADD31R,1.800X1.800*%
%ADD32C,1.050*%
%ADD33C,2.000*%
%ADD34C,0.600*%
%ADD35C,1.016*%
%ADD36C,1.600*%
G04:AMPARAMS|DCode=37|XSize=2.524mm|YSize=2.524mm|CornerRadius=0mm|HoleSize=0mm|Usage=FLASHONLY|Rotation=0.000|XOffset=0mm|YOffset=0mm|HoleType=Round|Shape=Relief|Width=0.254mm|Gap=0.254mm|Entries=4|*
%AMTHD37*
7,0,0,2.524,2.016,0.254,45*
%
%ADD37THD37*%
G04:AMPARAMS|DCode=38|XSize=1.45mm|YSize=1.45mm|CornerRadius=0mm|HoleSize=0mm|Usage=FLASHONLY|Rotation=0.000|XOffset=0mm|YOffset=0mm|HoleType=Round|Shape=Relief|Width=0.2mm|Gap=0.2mm|Entries=4|*
%AMTHD38*
7,0,0,1.450,1.050,0.200,45*
%
%ADD38THD38*%
%ADD39C,1.250*%
%ADD40C,2.600*%
%ADD41C,0.900*%
%ADD42C,0.800*%
%ADD43C,0.100*%
%ADD44C,0.150*%
%ADD45R,2.100X2.100*%
%ADD46R,1.800X0.700*%
%ADD47R,0.750X0.600*%
%ADD48R,1.700X1.100*%
%ADD49R,2.600X3.100*%
%ADD50R,0.825X0.400*%
%ADD51R,0.400X0.825*%
%ADD52R,1.600X1.200*%
%ADD53R,0.500X0.500*%
%ADD54R,1.500X0.700*%
%ADD55R,0.750X0.900*%
%ADD56R,1.100X1.050*%
%ADD57R,0.700X1.000*%
%ADD58R,0.900X0.750*%
%ADD59R,0.600X0.750*%
%ADD60R,1.000X0.700*%
%ADD61R,1.800X1.800*%
%ADD62C,1.900*%
%ADD63R,1.900X1.900*%
%ADD64C,1.150*%
%ADD65C,2.100*%
D30*
X23435Y3570D02*
D03*
X25975D02*
D03*
X13045Y3570D02*
D03*
D46*
X18050Y11575D02*
D03*
D47*
X18525Y11575D02*
D03*
X17575D02*
D03*
X24000Y14750D02*
D03*
X24950D02*
D03*
D48*
X17950Y10400D02*
D03*
Y7800D02*
D03*
D49*
X11700Y9100D02*
D03*
D50*
X22512Y14250D02*
D03*
Y14750D02*
D03*
Y15250D02*
D03*
Y15750D02*
D03*
X17787D02*
D03*
Y15250D02*
D03*
Y14750D02*
D03*
Y14250D02*
D03*
D51*
X22400Y16663D02*
D03*
X21900D02*
D03*
X21400D02*
D03*
X20900D02*
D03*
X20400D02*
D03*
X19900D02*
D03*
X19400D02*
D03*
X18900D02*
D03*
X18400D02*
D03*
X17900D02*
D03*
Y13337D02*
D03*
X18400D02*
D03*
X18900D02*
D03*
X19400D02*
D03*
X19900D02*
D03*
X20400D02*
D03*
X20900D02*
D03*
X21400D02*
D03*
X21900D02*
D03*
X22400D02*
D03*
D52*
X13475Y19350D02*
D03*
X16475D02*
D03*
Y20850D02*
D03*
X13475D02*
D03*
D53*
X11575Y26525D02*
D03*
Y25125D02*
D03*
D54*
X8000Y27550D02*
D03*
Y25650D02*
D03*
X9900Y26600D02*
D03*
D55*
X19900Y18150D02*
D03*
Y19350D02*
D03*
X28050Y10875D02*
D03*
Y9675D02*
D03*
Y12175D02*
D03*
Y13375D02*
D03*
X29515Y10875D02*
D03*
Y9675D02*
D03*
Y12175D02*
D03*
Y13375D02*
D03*
X12850Y26600D02*
D03*
Y25400D02*
D03*
D56*
X24250Y12900D02*
D03*
X25850D02*
D03*
D57*
X19700Y10300D02*
D03*
Y11400D02*
D03*
X8325Y4120D02*
D03*
Y3020D02*
D03*
X19700Y8900D02*
D03*
Y7800D02*
D03*
D58*
X12375Y5925D02*
D03*
X11175D02*
D03*
X14600Y13350D02*
D03*
X15800D02*
D03*
X14600Y14500D02*
D03*
X15800D02*
D03*
X10075Y20075D02*
D03*
X11275D02*
D03*
X10075Y21225D02*
D03*
X11275D02*
D03*
X10075Y18925D02*
D03*
X11275D02*
D03*
X25800Y16000D02*
D03*
X24600D02*
D03*
X15800Y16150D02*
D03*
X14600D02*
D03*
D59*
X18875Y18975D02*
D03*
Y18025D02*
D03*
X20925Y18525D02*
D03*
Y19475D02*
D03*
X7325Y4045D02*
D03*
Y3095D02*
D03*
D60*
X24500Y11600D02*
D03*
X25600D02*
D03*
X11575Y27800D02*
D03*
X12675D02*
D03*
D61*
X28515Y3570D02*
D03*
X10505Y3570D02*
D03*
D62*
X2530Y26430D02*
D03*
X5070Y21350D02*
D03*
X2530D02*
D03*
Y23890D02*
D03*
X5070D02*
D03*
X2530Y3570D02*
D03*
Y6110D02*
D03*
X5070D02*
D03*
X2530Y13730D02*
D03*
X5070Y11190D02*
D03*
X2530D02*
D03*
Y8650D02*
D03*
X5070Y13730D02*
D03*
Y8650D02*
D03*
Y16270D02*
D03*
X2530Y18810D02*
D03*
X5070D02*
D03*
X2530Y16270D02*
D03*
X5070Y3570D02*
D03*
D63*
Y26430D02*
D03*
D64*
X24260Y27735D02*
D03*
Y26465D02*
D03*
X29340D02*
D03*
X28070D02*
D03*
X26800D02*
D03*
X25530D02*
D03*
Y27735D02*
D03*
X26800D02*
D03*
X28070D02*
D03*
X29340D02*
D03*
D65*
X8000Y7380D02*
D03*
Y22620D02*
D03*
M02*
