%FSLAX43Y43*%
%MOMM*%
G71*
G01*
G75*
G04 Layer_Color=32896*
%ADD10R,0.650X0.500*%
%ADD11R,1.600X1.000*%
%ADD12R,2.500X3.000*%
%ADD13R,0.675X0.250*%
%ADD14R,0.250X0.675*%
%ADD15R,1.500X1.100*%
%ADD16R,0.400X0.400*%
%ADD17R,1.400X0.600*%
%ADD18R,0.650X0.800*%
%ADD19R,1.000X0.950*%
%ADD20R,0.600X0.900*%
%ADD21R,0.800X0.650*%
%ADD22R,0.500X0.650*%
%ADD23R,0.900X0.600*%
%ADD24C,0.254*%
%ADD25C,0.200*%
%ADD26C,0.300*%
%ADD27C,0.250*%
%ADD28C,1.700*%
%ADD29R,1.700X1.700*%
%ADD30C,1.800*%
%ADD31R,1.800X1.800*%
%ADD32C,1.050*%
%ADD33C,2.000*%
%ADD34C,0.600*%
%ADD35C,1.016*%
%ADD36C,1.600*%
G04:AMPARAMS|DCode=37|XSize=2.524mm|YSize=2.524mm|CornerRadius=0mm|HoleSize=0mm|Usage=FLASHONLY|Rotation=0.000|XOffset=0mm|YOffset=0mm|HoleType=Round|Shape=Relief|Width=0.254mm|Gap=0.254mm|Entries=4|*
%AMTHD37*
7,0,0,2.524,2.016,0.254,45*
%
%ADD37THD37*%
G04:AMPARAMS|DCode=38|XSize=1.45mm|YSize=1.45mm|CornerRadius=0mm|HoleSize=0mm|Usage=FLASHONLY|Rotation=0.000|XOffset=0mm|YOffset=0mm|HoleType=Round|Shape=Relief|Width=0.2mm|Gap=0.2mm|Entries=4|*
%AMTHD38*
7,0,0,1.450,1.050,0.200,45*
%
%ADD38THD38*%
%ADD39C,1.250*%
%ADD40C,2.600*%
%ADD41C,0.900*%
%ADD42C,0.800*%
%ADD43C,0.100*%
%ADD44C,0.150*%
%ADD45R,2.100X2.100*%
%ADD46R,1.800X0.700*%
%ADD47R,0.750X0.600*%
%ADD48R,1.700X1.100*%
%ADD49R,2.600X3.100*%
%ADD50R,0.825X0.400*%
%ADD51R,0.400X0.825*%
%ADD52R,1.600X1.200*%
%ADD53R,0.500X0.500*%
%ADD54R,1.500X0.700*%
%ADD55R,0.750X0.900*%
%ADD56R,1.100X1.050*%
%ADD57R,0.700X1.000*%
%ADD58R,0.900X0.750*%
%ADD59R,0.600X0.750*%
%ADD60R,1.000X0.700*%
%ADD61R,1.800X1.800*%
%ADD62C,1.900*%
%ADD63R,1.900X1.900*%
%ADD64C,1.150*%
%ADD65C,2.100*%
%ADD66C,0.900*%
G36*
X11275Y13996D02*
X10979Y13890D01*
Y13481D01*
X11275Y13367D01*
Y13221D01*
X10299Y13620D01*
Y13761D01*
X11275Y14133D01*
Y13996D01*
D02*
G37*
G36*
X17909Y11771D02*
X18013Y11756D01*
X18109Y11738D01*
X18195Y11719D01*
X18232Y11708D01*
X18265Y11697D01*
X18295Y11690D01*
X18317Y11682D01*
X18339Y11675D01*
X18354Y11668D01*
X18361Y11664D01*
X18365D01*
X18461Y11616D01*
X18550Y11568D01*
X18628Y11512D01*
X18698Y11464D01*
X18754Y11419D01*
X18776Y11397D01*
X18794Y11382D01*
X18813Y11368D01*
X18824Y11357D01*
X18828Y11353D01*
X18832Y11349D01*
X18902Y11271D01*
X18965Y11194D01*
X19020Y11116D01*
X19065Y11042D01*
X19098Y10979D01*
X19113Y10953D01*
X19124Y10931D01*
X19135Y10912D01*
X19143Y10897D01*
X19146Y10890D01*
Y10886D01*
X19183Y10786D01*
X19209Y10686D01*
X19231Y10590D01*
X19243Y10501D01*
X19246Y10464D01*
X19250Y10427D01*
X19254Y10397D01*
Y10371D01*
X19257Y10349D01*
Y10334D01*
Y10323D01*
Y10320D01*
X19254Y10208D01*
X19239Y10105D01*
X19220Y10009D01*
X19202Y9923D01*
X19191Y9886D01*
X19180Y9853D01*
X19172Y9823D01*
X19165Y9797D01*
X19157Y9779D01*
X19150Y9764D01*
X19146Y9757D01*
Y9753D01*
X19098Y9657D01*
X19050Y9564D01*
X18994Y9486D01*
X18946Y9420D01*
X18902Y9364D01*
X18880Y9338D01*
X18865Y9320D01*
X18850Y9305D01*
X18839Y9294D01*
X18835Y9290D01*
X18832Y9286D01*
X18754Y9216D01*
X18676Y9153D01*
X18598Y9101D01*
X18524Y9057D01*
X18461Y9023D01*
X18435Y9009D01*
X18413Y8998D01*
X18395Y8986D01*
X18380Y8979D01*
X18372Y8975D01*
X18369D01*
X18269Y8938D01*
X18169Y8909D01*
X18072Y8890D01*
X17983Y8875D01*
X17946Y8872D01*
X17909Y8868D01*
X17880Y8864D01*
X17854Y8860D01*
X17802D01*
X17691Y8864D01*
X17584Y8879D01*
X17491Y8898D01*
X17406Y8916D01*
X17369Y8927D01*
X17335Y8938D01*
X17306Y8949D01*
X17280Y8957D01*
X17261Y8964D01*
X17247Y8972D01*
X17239Y8975D01*
X17235D01*
X17139Y9020D01*
X17050Y9072D01*
X16972Y9123D01*
X16902Y9175D01*
X16850Y9220D01*
X16824Y9238D01*
X16806Y9253D01*
X16791Y9268D01*
X16780Y9279D01*
X16776Y9283D01*
X16772Y9286D01*
X16702Y9364D01*
X16639Y9442D01*
X16584Y9520D01*
X16539Y9590D01*
X16506Y9653D01*
X16491Y9683D01*
X16480Y9705D01*
X16469Y9723D01*
X16461Y9738D01*
X16458Y9746D01*
Y9749D01*
X16421Y9849D01*
X16391Y9949D01*
X16373Y10046D01*
X16358Y10134D01*
X16354Y10175D01*
X16350Y10208D01*
X16347Y10242D01*
X16343Y10268D01*
Y10290D01*
Y10305D01*
Y10316D01*
Y10320D01*
X16347Y10427D01*
X16361Y10531D01*
X16380Y10627D01*
X16398Y10712D01*
X16410Y10749D01*
X16421Y10783D01*
X16432Y10812D01*
X16439Y10834D01*
X16447Y10857D01*
X16454Y10871D01*
X16458Y10879D01*
Y10882D01*
X16506Y10979D01*
X16554Y11068D01*
X16606Y11145D01*
X16658Y11216D01*
X16702Y11271D01*
X16721Y11294D01*
X16739Y11312D01*
X16754Y11331D01*
X16765Y11342D01*
X16769Y11345D01*
X16772Y11349D01*
X16850Y11419D01*
X16928Y11482D01*
X17006Y11538D01*
X17076Y11582D01*
X17139Y11616D01*
X17169Y11631D01*
X17191Y11642D01*
X17209Y11653D01*
X17224Y11660D01*
X17232Y11664D01*
X17235D01*
X17335Y11701D01*
X17435Y11727D01*
X17532Y11749D01*
X17617Y11760D01*
X17658Y11764D01*
X17691Y11768D01*
X17724Y11771D01*
X17750D01*
X17772Y11775D01*
X17802D01*
X17909Y11771D01*
D02*
G37*
G36*
X11275Y14179D02*
X11159D01*
Y14660D01*
X10299D01*
Y14790D01*
X11275D01*
Y14179D01*
D02*
G37*
G36*
X14845Y8125D02*
X12568D01*
Y21850D01*
X14845D01*
Y8125D01*
D02*
G37*
G36*
X11275Y10693D02*
X11159D01*
Y11174D01*
X10299D01*
Y11304D01*
X11275D01*
Y10693D01*
D02*
G37*
G36*
X20014Y13670D02*
X19647D01*
Y16129D01*
X20014D01*
Y13670D01*
D02*
G37*
G36*
X11275Y12750D02*
X11274Y12716D01*
X11272Y12686D01*
X11269Y12660D01*
X11267Y12637D01*
X11264Y12619D01*
X11262Y12605D01*
X11259Y12596D01*
Y12593D01*
X11252Y12569D01*
X11245Y12550D01*
X11237Y12531D01*
X11228Y12516D01*
X11223Y12503D01*
X11217Y12493D01*
X11213Y12488D01*
X11212Y12486D01*
X11199Y12471D01*
X11183Y12457D01*
X11168Y12445D01*
X11154Y12434D01*
X11140Y12426D01*
X11130Y12420D01*
X11123Y12416D01*
X11120Y12414D01*
X11097Y12404D01*
X11075Y12397D01*
X11054Y12392D01*
X11034Y12389D01*
X11017Y12386D01*
X11003Y12385D01*
X10992D01*
X10961Y12386D01*
X10932Y12392D01*
X10908Y12400D01*
X10886Y12409D01*
X10869Y12417D01*
X10856Y12426D01*
X10848Y12431D01*
X10845Y12433D01*
X10822Y12452D01*
X10804Y12474D01*
X10789Y12498D01*
X10776Y12519D01*
X10766Y12538D01*
X10760Y12555D01*
X10758Y12561D01*
X10756Y12565D01*
X10755Y12568D01*
Y12569D01*
X10741Y12545D01*
X10727Y12524D01*
X10711Y12507D01*
X10697Y12493D01*
X10686Y12482D01*
X10674Y12474D01*
X10669Y12469D01*
X10666Y12468D01*
X10645Y12457D01*
X10625Y12448D01*
X10605Y12441D01*
X10587Y12437D01*
X10572Y12434D01*
X10559Y12433D01*
X10549D01*
X10525Y12434D01*
X10501Y12438D01*
X10480Y12445D01*
X10460Y12452D01*
X10443Y12459D01*
X10432Y12467D01*
X10424Y12471D01*
X10421Y12472D01*
X10400Y12488D01*
X10380Y12505D01*
X10364Y12523D01*
X10352Y12540D01*
X10342Y12554D01*
X10335Y12567D01*
X10330Y12575D01*
X10329Y12576D01*
Y12578D01*
X10319Y12605D01*
X10312Y12634D01*
X10307Y12664D01*
X10304Y12692D01*
X10301Y12717D01*
Y12729D01*
X10299Y12739D01*
Y12746D01*
Y12751D01*
Y12755D01*
Y12757D01*
Y13122D01*
X11275D01*
Y12750D01*
D02*
G37*
G36*
Y11477D02*
X11159D01*
Y12076D01*
X10828D01*
Y11536D01*
X10713D01*
Y12076D01*
X10415D01*
Y11499D01*
X10299D01*
Y12206D01*
X11275D01*
Y11477D01*
D02*
G37*
G36*
X18006Y19372D02*
X18109Y19358D01*
X18206Y19339D01*
X18291Y19321D01*
X18328Y19310D01*
X18361Y19298D01*
X18391Y19291D01*
X18413Y19284D01*
X18435Y19276D01*
X18450Y19269D01*
X18458Y19265D01*
X18461D01*
X18557Y19221D01*
X18646Y19169D01*
X18728Y19117D01*
X18795Y19069D01*
X18854Y19024D01*
X18876Y19006D01*
X18894Y18991D01*
X18909Y18976D01*
X18920Y18965D01*
X18928Y18961D01*
X18932Y18958D01*
X19002Y18880D01*
X19065Y18802D01*
X19120Y18724D01*
X19165Y18654D01*
X19198Y18591D01*
X19213Y18561D01*
X19224Y18539D01*
X19235Y18521D01*
X19243Y18506D01*
X19246Y18498D01*
Y18495D01*
X19283Y18391D01*
X19313Y18291D01*
X19331Y18191D01*
X19346Y18102D01*
X19350Y18062D01*
X19354Y18024D01*
X19357Y17995D01*
Y17965D01*
X19361Y17943D01*
Y17928D01*
Y17917D01*
Y17913D01*
Y17884D01*
X19357Y17862D01*
Y17843D01*
Y17836D01*
X19354Y17802D01*
Y17776D01*
X19350Y17762D01*
Y17754D01*
X18902D01*
X18913Y17806D01*
X18917Y17850D01*
X18920Y17869D01*
Y17884D01*
Y17891D01*
Y17895D01*
X18917Y17962D01*
X18909Y18024D01*
X18902Y18084D01*
X18891Y18136D01*
X18880Y18180D01*
X18869Y18213D01*
X18865Y18236D01*
X18861Y18239D01*
Y18243D01*
X18835Y18302D01*
X18809Y18361D01*
X18780Y18410D01*
X18754Y18454D01*
X18728Y18491D01*
X18709Y18521D01*
X18695Y18536D01*
X18691Y18543D01*
X18650Y18591D01*
X18606Y18632D01*
X18565Y18669D01*
X18524Y18702D01*
X18491Y18728D01*
X18465Y18750D01*
X18446Y18761D01*
X18439Y18765D01*
X18383Y18798D01*
X18328Y18824D01*
X18276Y18847D01*
X18224Y18865D01*
X18183Y18876D01*
X18150Y18887D01*
X18128Y18891D01*
X18124Y18895D01*
X18121D01*
X18117Y18047D01*
X17676D01*
Y18891D01*
X17613Y18873D01*
X17554Y18854D01*
X17498Y18832D01*
X17450Y18810D01*
X17413Y18791D01*
X17384Y18776D01*
X17365Y18765D01*
X17358Y18761D01*
X17306Y18724D01*
X17254Y18687D01*
X17213Y18650D01*
X17172Y18617D01*
X17143Y18584D01*
X17121Y18561D01*
X17106Y18547D01*
X17102Y18539D01*
X17065Y18487D01*
X17032Y18436D01*
X17002Y18387D01*
X16980Y18339D01*
X16961Y18302D01*
X16947Y18269D01*
X16939Y18250D01*
X16935Y18243D01*
X16917Y18180D01*
X16902Y18117D01*
X16891Y18058D01*
X16884Y18006D01*
X16880Y17962D01*
X16876Y17924D01*
Y17902D01*
Y17899D01*
Y17895D01*
Y17865D01*
X16880Y17843D01*
X16884Y17824D01*
Y17817D01*
X16887Y17787D01*
X16895Y17765D01*
X16898Y17750D01*
Y17747D01*
X16439Y17743D01*
X16435Y17773D01*
Y17799D01*
Y17817D01*
Y17821D01*
Y17824D01*
X16432Y17854D01*
Y17880D01*
Y17899D01*
Y17906D01*
X16435Y18017D01*
X16450Y18124D01*
X16469Y18221D01*
X16487Y18306D01*
X16498Y18343D01*
X16510Y18376D01*
X16521Y18406D01*
X16528Y18428D01*
X16535Y18450D01*
X16543Y18465D01*
X16547Y18473D01*
Y18476D01*
X16591Y18573D01*
X16643Y18661D01*
X16695Y18739D01*
X16743Y18810D01*
X16787Y18865D01*
X16810Y18887D01*
X16824Y18906D01*
X16839Y18924D01*
X16850Y18935D01*
X16854Y18939D01*
X16858Y18943D01*
X16935Y19013D01*
X17013Y19076D01*
X17095Y19132D01*
X17165Y19176D01*
X17228Y19213D01*
X17258Y19228D01*
X17280Y19239D01*
X17298Y19250D01*
X17313Y19254D01*
X17321Y19261D01*
X17324D01*
X17424Y19298D01*
X17524Y19328D01*
X17621Y19347D01*
X17709Y19361D01*
X17750Y19365D01*
X17784Y19369D01*
X17817Y19372D01*
X17843D01*
X17865Y19376D01*
X17895D01*
X18006Y19372D01*
D02*
G37*
G36*
X9126Y8552D02*
X6893D01*
Y21438D01*
X9126D01*
Y8552D01*
D02*
G37*
G36*
X11275Y18745D02*
X10879D01*
Y18496D01*
X10877Y18459D01*
X10875Y18424D01*
X10870Y18393D01*
X10865Y18365D01*
X10859Y18338D01*
X10852Y18315D01*
X10844Y18294D01*
X10835Y18276D01*
X10828Y18260D01*
X10820Y18246D01*
X10813Y18235D01*
X10806Y18227D01*
X10801Y18219D01*
X10797Y18215D01*
X10794Y18212D01*
X10793Y18211D01*
X10776Y18197D01*
X10759Y18184D01*
X10742Y18174D01*
X10724Y18165D01*
X10705Y18156D01*
X10689Y18150D01*
X10656Y18141D01*
X10641Y18138D01*
X10627Y18135D01*
X10614Y18133D01*
X10604Y18132D01*
X10594Y18131D01*
X10583D01*
X10556Y18132D01*
X10531Y18135D01*
X10508Y18141D01*
X10488Y18145D01*
X10471Y18150D01*
X10459Y18156D01*
X10452Y18159D01*
X10449Y18160D01*
X10428Y18172D01*
X10409Y18186D01*
X10393Y18198D01*
X10380Y18211D01*
X10370Y18222D01*
X10362Y18231D01*
X10357Y18236D01*
X10356Y18239D01*
X10345Y18258D01*
X10335Y18279D01*
X10326Y18298D01*
X10319Y18317D01*
X10315Y18334D01*
X10312Y18346D01*
X10309Y18356D01*
Y18358D01*
Y18359D01*
X10307Y18380D01*
X10304Y18404D01*
X10302Y18430D01*
X10301Y18454D01*
X10299Y18475D01*
Y18485D01*
Y18493D01*
Y18499D01*
Y18504D01*
Y18507D01*
Y18508D01*
Y18875D01*
X11275D01*
Y18745D01*
D02*
G37*
G36*
X10831Y18001D02*
X10880Y17995D01*
X10924Y17988D01*
X10945Y17983D01*
X10963Y17978D01*
X10980Y17974D01*
X10996Y17969D01*
X11010Y17964D01*
X11021Y17962D01*
X11030Y17957D01*
X11037Y17956D01*
X11041Y17953D01*
X11042D01*
X11085Y17932D01*
X11123Y17908D01*
X11155Y17883D01*
X11168Y17870D01*
X11181Y17859D01*
X11192Y17847D01*
X11202Y17836D01*
X11210Y17826D01*
X11216Y17818D01*
X11221Y17812D01*
X11226Y17806D01*
X11227Y17804D01*
X11228Y17802D01*
X11240Y17782D01*
X11250Y17763D01*
X11265Y17720D01*
X11276Y17678D01*
X11283Y17637D01*
X11286Y17618D01*
X11289Y17601D01*
X11291Y17585D01*
Y17572D01*
X11292Y17561D01*
Y17553D01*
Y17547D01*
Y17546D01*
X11291Y17517D01*
X11288Y17491D01*
X11285Y17465D01*
X11279Y17441D01*
X11272Y17419D01*
X11265Y17398D01*
X11258Y17378D01*
X11250Y17360D01*
X11243Y17344D01*
X11236Y17329D01*
X11228Y17317D01*
X11221Y17306D01*
X11216Y17299D01*
X11213Y17292D01*
X11210Y17289D01*
X11209Y17288D01*
X11192Y17268D01*
X11175Y17251D01*
X11155Y17236D01*
X11135Y17220D01*
X11096Y17195D01*
X11057Y17175D01*
X11038Y17166D01*
X11021Y17159D01*
X11006Y17154D01*
X10993Y17150D01*
X10982Y17145D01*
X10973Y17142D01*
X10968Y17141D01*
X10966D01*
X10934Y17271D01*
X10956Y17276D01*
X10978Y17283D01*
X10997Y17291D01*
X11016Y17298D01*
X11033Y17306D01*
X11047Y17314D01*
X11061Y17324D01*
X11073Y17333D01*
X11085Y17340D01*
X11093Y17348D01*
X11102Y17355D01*
X11109Y17361D01*
X11113Y17367D01*
X11117Y17371D01*
X11119Y17372D01*
X11120Y17374D01*
X11131Y17388D01*
X11140Y17403D01*
X11155Y17434D01*
X11166Y17464D01*
X11174Y17493D01*
X11179Y17519D01*
X11181Y17529D01*
Y17539D01*
X11182Y17547D01*
Y17553D01*
Y17556D01*
Y17557D01*
X11181Y17589D01*
X11175Y17620D01*
X11168Y17649D01*
X11159Y17674D01*
X11151Y17694D01*
X11147Y17702D01*
X11144Y17709D01*
X11141Y17715D01*
X11138Y17719D01*
X11137Y17722D01*
Y17723D01*
X11117Y17750D01*
X11096Y17773D01*
X11072Y17792D01*
X11049Y17808D01*
X11030Y17821D01*
X11013Y17829D01*
X11006Y17832D01*
X11002Y17835D01*
X10999Y17836D01*
X10997D01*
X10961Y17847D01*
X10924Y17856D01*
X10887Y17863D01*
X10854Y17867D01*
X10838Y17868D01*
X10824Y17870D01*
X10811D01*
X10801Y17871D01*
X10780D01*
X10744Y17870D01*
X10710Y17867D01*
X10679Y17861D01*
X10651Y17856D01*
X10627Y17852D01*
X10617Y17849D01*
X10608Y17846D01*
X10601Y17845D01*
X10597Y17843D01*
X10594Y17842D01*
X10593D01*
X10560Y17828D01*
X10531Y17812D01*
X10507Y17795D01*
X10486Y17777D01*
X10469Y17761D01*
X10457Y17749D01*
X10450Y17739D01*
X10448Y17737D01*
Y17736D01*
X10429Y17706D01*
X10415Y17674D01*
X10405Y17643D01*
X10400Y17613D01*
X10395Y17587D01*
X10394Y17575D01*
Y17565D01*
X10393Y17558D01*
Y17553D01*
Y17548D01*
Y17547D01*
X10394Y17512D01*
X10400Y17479D01*
X10408Y17453D01*
X10416Y17429D01*
X10426Y17410D01*
X10433Y17396D01*
X10439Y17388D01*
X10442Y17385D01*
X10463Y17362D01*
X10487Y17341D01*
X10512Y17324D01*
X10538Y17310D01*
X10560Y17299D01*
X10572Y17295D01*
X10580Y17292D01*
X10587Y17289D01*
X10593Y17286D01*
X10596Y17285D01*
X10597D01*
X10567Y17158D01*
X10542Y17166D01*
X10519Y17175D01*
X10498Y17186D01*
X10477Y17196D01*
X10459Y17207D01*
X10442Y17220D01*
X10425Y17231D01*
X10411Y17243D01*
X10400Y17254D01*
X10388Y17264D01*
X10378Y17274D01*
X10371Y17281D01*
X10364Y17288D01*
X10360Y17293D01*
X10359Y17296D01*
X10357Y17298D01*
X10345Y17317D01*
X10332Y17337D01*
X10322Y17357D01*
X10314Y17378D01*
X10301Y17420D01*
X10292Y17458D01*
X10288Y17477D01*
X10287Y17492D01*
X10285Y17508D01*
X10284Y17520D01*
X10283Y17530D01*
Y17537D01*
Y17543D01*
Y17544D01*
X10285Y17591D01*
X10292Y17636D01*
X10301Y17675D01*
X10307Y17694D01*
X10312Y17711D01*
X10318Y17726D01*
X10323Y17740D01*
X10328Y17751D01*
X10332Y17763D01*
X10336Y17770D01*
X10339Y17775D01*
X10340Y17780D01*
X10342Y17781D01*
X10366Y17819D01*
X10394Y17852D01*
X10422Y17880D01*
X10450Y17904D01*
X10476Y17922D01*
X10487Y17929D01*
X10497Y17935D01*
X10504Y17940D01*
X10510Y17943D01*
X10514Y17945D01*
X10515Y17946D01*
X10559Y17966D01*
X10604Y17980D01*
X10649Y17990D01*
X10690Y17997D01*
X10708Y18000D01*
X10727Y18001D01*
X10741Y18002D01*
X10755D01*
X10765Y18004D01*
X10780D01*
X10831Y18001D01*
D02*
G37*
G36*
X17096Y15429D02*
X18114Y15347D01*
X18984Y16199D01*
X19025Y16151D01*
X18195Y15340D01*
X18388Y15325D01*
X18440Y15321D01*
X18484Y15318D01*
X18547D01*
X18562Y15314D01*
X18584D01*
X18595Y15310D01*
X18599D01*
X18614Y15307D01*
X18625Y15303D01*
X18629Y15299D01*
X18632Y15295D01*
X18636Y15284D01*
X18640Y15281D01*
Y15277D01*
X18747D01*
Y15136D01*
X18640D01*
Y14566D01*
X18677Y14540D01*
X18703Y14507D01*
X18725Y14473D01*
X18736Y14444D01*
X18744Y14414D01*
X18747Y14388D01*
X18751Y14373D01*
Y14366D01*
X18747Y14333D01*
X18740Y14299D01*
X18732Y14273D01*
X18718Y14247D01*
X18707Y14229D01*
X18699Y14214D01*
X18692Y14207D01*
X18688Y14203D01*
X18662Y14181D01*
X18632Y14166D01*
X18607Y14151D01*
X18581Y14144D01*
X18555Y14140D01*
X18536Y14136D01*
X18495D01*
X19036Y13636D01*
X18992Y13581D01*
X18195Y14314D01*
X17147Y14214D01*
Y14025D01*
X16866D01*
Y14033D01*
X16240Y13422D01*
X16140D01*
X16866Y14133D01*
Y14192D01*
X16729Y14181D01*
X16736Y14162D01*
X16740Y14144D01*
X16744Y14133D01*
Y14129D01*
X16740Y14096D01*
X16729Y14073D01*
X16718Y14055D01*
X16714Y14051D01*
X16688Y14033D01*
X16662Y14022D01*
X16644Y14018D01*
X16636D01*
X16607Y14022D01*
X16585Y14033D01*
X16570Y14047D01*
X16562Y14051D01*
X16544Y14077D01*
X16533Y14103D01*
X16529Y14122D01*
Y14125D01*
Y14129D01*
X16540Y14166D01*
X16555Y14192D01*
X16570Y14207D01*
X16573Y14214D01*
X16577D01*
X16562Y14229D01*
X16547Y14247D01*
X16518Y14288D01*
X16507Y14303D01*
X16499Y14318D01*
X16496Y14329D01*
X16492Y14333D01*
X16473Y14366D01*
X16462Y14407D01*
X16451Y14447D01*
X16440Y14488D01*
X16433Y14525D01*
X16429Y14555D01*
X16425Y14573D01*
Y14577D01*
Y14581D01*
X16388D01*
Y14966D01*
X16410D01*
X16414Y15010D01*
X16418Y15044D01*
X16422Y15058D01*
Y15070D01*
X16425Y15077D01*
Y15081D01*
X16429Y15118D01*
X16436Y15147D01*
X16440Y15170D01*
Y15173D01*
Y15177D01*
X16429D01*
Y15321D01*
X16485D01*
X16503Y15358D01*
X16522Y15384D01*
X16540Y15410D01*
X16555Y15425D01*
X16570Y15440D01*
X16581Y15447D01*
X16585Y15455D01*
X16588D01*
X16618Y15470D01*
X16636Y15481D01*
X16644Y15484D01*
X16647D01*
Y15566D01*
X16733D01*
Y15458D01*
X16977Y15436D01*
X16122Y16225D01*
X16233D01*
X17096Y15429D01*
D02*
G37*
G36*
X11275Y16043D02*
X10979Y15937D01*
Y15528D01*
X11275Y15414D01*
Y15268D01*
X10299Y15667D01*
Y15807D01*
X11275Y16180D01*
Y16043D01*
D02*
G37*
G36*
X18006Y21846D02*
X18109Y21831D01*
X18206Y21813D01*
X18291Y21794D01*
X18328Y21783D01*
X18361Y21772D01*
X18391Y21765D01*
X18413Y21757D01*
X18435Y21750D01*
X18450Y21743D01*
X18458Y21739D01*
X18461D01*
X18557Y21691D01*
X18646Y21643D01*
X18728Y21587D01*
X18795Y21539D01*
X18854Y21494D01*
X18876Y21472D01*
X18894Y21457D01*
X18909Y21443D01*
X18920Y21432D01*
X18928Y21428D01*
X18932Y21424D01*
X19002Y21346D01*
X19065Y21269D01*
X19120Y21191D01*
X19165Y21117D01*
X19198Y21054D01*
X19213Y21028D01*
X19224Y21006D01*
X19235Y20987D01*
X19243Y20972D01*
X19246Y20965D01*
Y20961D01*
X19283Y20861D01*
X19309Y20761D01*
X19331Y20665D01*
X19343Y20576D01*
X19346Y20535D01*
X19350Y20502D01*
X19354Y20469D01*
Y20443D01*
X19357Y20421D01*
Y20406D01*
Y20395D01*
Y20391D01*
Y20361D01*
X19354Y20335D01*
Y20321D01*
Y20313D01*
Y20283D01*
X19350Y20261D01*
Y20246D01*
Y20239D01*
X18902D01*
X18913Y20291D01*
X18917Y20335D01*
X18920Y20354D01*
Y20365D01*
Y20372D01*
Y20376D01*
X18917Y20454D01*
X18909Y20528D01*
X18894Y20598D01*
X18880Y20658D01*
X18865Y20706D01*
X18850Y20743D01*
X18846Y20758D01*
X18843Y20769D01*
X18839Y20772D01*
Y20776D01*
X18806Y20843D01*
X18769Y20906D01*
X18735Y20958D01*
X18698Y21006D01*
X18669Y21046D01*
X18643Y21072D01*
X18628Y21091D01*
X18620Y21098D01*
X18565Y21146D01*
X18509Y21191D01*
X18454Y21228D01*
X18406Y21257D01*
X18361Y21283D01*
X18324Y21302D01*
X18302Y21313D01*
X18298Y21317D01*
X18295D01*
X18224Y21343D01*
X18154Y21361D01*
X18087Y21376D01*
X18028Y21383D01*
X17976Y21391D01*
X17935Y21394D01*
X17898D01*
X17821Y21391D01*
X17746Y21383D01*
X17676Y21369D01*
X17617Y21354D01*
X17569Y21343D01*
X17532Y21328D01*
X17517Y21324D01*
X17506Y21320D01*
X17502Y21317D01*
X17498D01*
X17432Y21283D01*
X17369Y21246D01*
X17313Y21213D01*
X17269Y21176D01*
X17228Y21146D01*
X17202Y21120D01*
X17184Y21106D01*
X17176Y21098D01*
X17128Y21046D01*
X17084Y20991D01*
X17047Y20935D01*
X17013Y20887D01*
X16991Y20843D01*
X16972Y20806D01*
X16961Y20783D01*
X16958Y20780D01*
Y20776D01*
X16932Y20706D01*
X16910Y20635D01*
X16895Y20565D01*
X16887Y20506D01*
X16880Y20454D01*
X16876Y20413D01*
Y20398D01*
Y20387D01*
Y20380D01*
Y20376D01*
Y20350D01*
Y20328D01*
Y20313D01*
Y20306D01*
Y20280D01*
X16880Y20258D01*
X16884Y20243D01*
Y20239D01*
X16439D01*
X16435Y20265D01*
Y20291D01*
X16432Y20309D01*
Y20313D01*
Y20317D01*
X16428Y20346D01*
Y20372D01*
Y20387D01*
Y20395D01*
X16432Y20506D01*
X16447Y20609D01*
X16465Y20706D01*
X16484Y20791D01*
X16495Y20828D01*
X16506Y20861D01*
X16517Y20891D01*
X16524Y20913D01*
X16532Y20935D01*
X16539Y20950D01*
X16543Y20958D01*
Y20961D01*
X16591Y21057D01*
X16639Y21143D01*
X16691Y21224D01*
X16743Y21291D01*
X16787Y21346D01*
X16806Y21369D01*
X16824Y21387D01*
X16839Y21406D01*
X16850Y21417D01*
X16854Y21420D01*
X16858Y21424D01*
X16935Y21494D01*
X17013Y21557D01*
X17095Y21613D01*
X17165Y21657D01*
X17228Y21691D01*
X17258Y21706D01*
X17280Y21717D01*
X17298Y21728D01*
X17313Y21735D01*
X17321Y21739D01*
X17324D01*
X17424Y21776D01*
X17524Y21802D01*
X17621Y21824D01*
X17709Y21835D01*
X17750Y21839D01*
X17784Y21843D01*
X17817Y21846D01*
X17843D01*
X17865Y21850D01*
X17895D01*
X18006Y21846D01*
D02*
G37*
G36*
X11275Y16615D02*
X11274Y16581D01*
X11272Y16552D01*
X11269Y16525D01*
X11267Y16502D01*
X11264Y16484D01*
X11262Y16470D01*
X11259Y16462D01*
Y16459D01*
X11252Y16435D01*
X11245Y16415D01*
X11237Y16397D01*
X11228Y16381D01*
X11223Y16369D01*
X11217Y16359D01*
X11213Y16353D01*
X11212Y16352D01*
X11199Y16336D01*
X11183Y16322D01*
X11168Y16311D01*
X11154Y16299D01*
X11140Y16291D01*
X11130Y16285D01*
X11123Y16281D01*
X11120Y16280D01*
X11097Y16270D01*
X11075Y16263D01*
X11054Y16257D01*
X11034Y16254D01*
X11017Y16252D01*
X11003Y16250D01*
X10992D01*
X10961Y16252D01*
X10932Y16257D01*
X10908Y16266D01*
X10886Y16274D01*
X10869Y16283D01*
X10856Y16291D01*
X10848Y16297D01*
X10845Y16298D01*
X10822Y16318D01*
X10804Y16339D01*
X10789Y16363D01*
X10776Y16384D01*
X10766Y16404D01*
X10760Y16421D01*
X10758Y16426D01*
X10756Y16431D01*
X10755Y16433D01*
Y16435D01*
X10741Y16411D01*
X10727Y16390D01*
X10711Y16373D01*
X10697Y16359D01*
X10686Y16347D01*
X10674Y16339D01*
X10669Y16335D01*
X10666Y16333D01*
X10645Y16322D01*
X10625Y16314D01*
X10605Y16307D01*
X10587Y16302D01*
X10572Y16299D01*
X10559Y16298D01*
X10549D01*
X10525Y16299D01*
X10501Y16304D01*
X10480Y16311D01*
X10460Y16318D01*
X10443Y16325D01*
X10432Y16332D01*
X10424Y16336D01*
X10421Y16338D01*
X10400Y16353D01*
X10380Y16370D01*
X10364Y16388D01*
X10352Y16405D01*
X10342Y16419D01*
X10335Y16432D01*
X10330Y16440D01*
X10329Y16442D01*
Y16443D01*
X10319Y16470D01*
X10312Y16500D01*
X10307Y16529D01*
X10304Y16557D01*
X10301Y16583D01*
Y16594D01*
X10299Y16604D01*
Y16611D01*
Y16617D01*
Y16621D01*
Y16622D01*
Y16987D01*
X11275D01*
Y16615D01*
D02*
G37*
%LPC*%
G36*
X17846Y11571D02*
X17802D01*
X17706Y11568D01*
X17617Y11557D01*
X17535Y11542D01*
X17461Y11523D01*
X17402Y11505D01*
X17376Y11497D01*
X17358Y11490D01*
X17339Y11482D01*
X17328Y11479D01*
X17321Y11475D01*
X17317D01*
X17235Y11434D01*
X17158Y11390D01*
X17091Y11345D01*
X17032Y11305D01*
X16984Y11268D01*
X16958Y11245D01*
X16872Y11331D01*
X16784Y11249D01*
X16873Y11159D01*
X16858Y11142D01*
X16802Y11075D01*
X16758Y11008D01*
X16721Y10945D01*
X16691Y10890D01*
X16669Y10845D01*
X16661Y10831D01*
X16654Y10820D01*
X16650Y10812D01*
Y10808D01*
X16617Y10720D01*
X16591Y10634D01*
X16576Y10553D01*
X16561Y10475D01*
X16554Y10412D01*
Y10386D01*
X16550Y10364D01*
Y10346D01*
Y10331D01*
Y10323D01*
Y10320D01*
X16554Y10223D01*
X16565Y10134D01*
X16584Y10049D01*
X16598Y9979D01*
X16617Y9916D01*
X16628Y9890D01*
X16635Y9871D01*
X16639Y9853D01*
X16647Y9842D01*
X16650Y9834D01*
Y9831D01*
X16691Y9746D01*
X16732Y9672D01*
X16776Y9601D01*
X16821Y9542D01*
X16858Y9497D01*
X16887Y9460D01*
X16910Y9438D01*
X16913Y9431D01*
X16917D01*
X16984Y9372D01*
X17050Y9320D01*
X17117Y9275D01*
X17180Y9238D01*
X17235Y9209D01*
X17280Y9186D01*
X17295Y9179D01*
X17306Y9172D01*
X17313Y9168D01*
X17317D01*
X17402Y9135D01*
X17487Y9109D01*
X17569Y9094D01*
X17643Y9079D01*
X17709Y9072D01*
X17735D01*
X17758Y9068D01*
X17802D01*
X17898Y9072D01*
X17987Y9083D01*
X18069Y9101D01*
X18143Y9116D01*
X18206Y9135D01*
X18228Y9146D01*
X18250Y9153D01*
X18269Y9157D01*
X18280Y9164D01*
X18287Y9168D01*
X18291D01*
X18372Y9205D01*
X18450Y9249D01*
X18517Y9294D01*
X18576Y9335D01*
X18624Y9372D01*
X18644Y9389D01*
X18429Y9604D01*
X18409Y9575D01*
X18387Y9549D01*
X18365Y9527D01*
X18350Y9512D01*
X18343Y9509D01*
X18287Y9475D01*
X18224Y9449D01*
X18161Y9431D01*
X18098Y9416D01*
X18043Y9409D01*
X18021D01*
X17998Y9405D01*
X17958D01*
X17869Y9409D01*
X17795Y9420D01*
X17732Y9438D01*
X17676Y9453D01*
X17635Y9472D01*
X17606Y9490D01*
X17591Y9501D01*
X17584Y9505D01*
X17539Y9542D01*
X17509Y9583D01*
X17487Y9623D01*
X17469Y9660D01*
X17461Y9697D01*
X17458Y9723D01*
X17454Y9742D01*
Y9749D01*
X17458Y9801D01*
X17472Y9846D01*
X17495Y9890D01*
X17521Y9923D01*
X17546Y9953D01*
X17569Y9975D01*
X17584Y9990D01*
X17591Y9994D01*
X17106D01*
Y10212D01*
X17821D01*
X18041Y9992D01*
X18061Y9990D01*
X18102Y9983D01*
X18139Y9971D01*
X18172Y9957D01*
X18176Y9953D01*
X18187Y9946D01*
X18206Y9934D01*
X18224Y9916D01*
X18243Y9897D01*
X18258Y9868D01*
X18269Y9838D01*
Y9801D01*
Y9797D01*
Y9790D01*
X18265Y9779D01*
X18263Y9770D01*
X18429Y9604D01*
X18435Y9612D01*
X18457Y9653D01*
X18472Y9697D01*
X18475Y9731D01*
X17993Y10212D01*
X17821D01*
X17655Y10377D01*
X17661Y10379D01*
X17695Y10390D01*
X17728Y10401D01*
X17732D01*
X17743Y10408D01*
X17758Y10416D01*
X17776Y10427D01*
X17777Y10428D01*
X17993Y10212D01*
X18454D01*
Y10009D01*
X18309D01*
X18339Y9986D01*
X18365Y9968D01*
X18387Y9946D01*
X18402Y9927D01*
X18417Y9912D01*
X18424Y9901D01*
X18428Y9894D01*
X18432Y9890D01*
X18446Y9864D01*
X18457Y9834D01*
X18469Y9790D01*
X18472Y9771D01*
X18476Y9757D01*
Y9749D01*
Y9746D01*
X18475Y9731D01*
X18731Y9476D01*
X18691Y9431D01*
X18687Y9427D01*
X18683Y9423D01*
X18661Y9405D01*
X18644Y9389D01*
X18732Y9301D01*
X18820Y9386D01*
X18731Y9476D01*
X18750Y9497D01*
X18802Y9564D01*
X18850Y9631D01*
X18887Y9694D01*
X18917Y9749D01*
X18928Y9771D01*
X18939Y9790D01*
X18946Y9809D01*
X18954Y9820D01*
X18957Y9827D01*
Y9831D01*
X18991Y9916D01*
X19013Y10005D01*
X19032Y10086D01*
X19043Y10160D01*
X19050Y10227D01*
Y10253D01*
X19054Y10275D01*
Y10294D01*
Y10308D01*
Y10316D01*
Y10320D01*
X19050Y10412D01*
X19039Y10505D01*
X19024Y10586D01*
X19006Y10660D01*
X18987Y10720D01*
X18980Y10745D01*
X18972Y10768D01*
X18965Y10786D01*
X18961Y10797D01*
X18957Y10805D01*
Y10808D01*
X18917Y10890D01*
X18872Y10968D01*
X18828Y11034D01*
X18787Y11094D01*
X18750Y11142D01*
X18717Y11179D01*
X18698Y11201D01*
X18691Y11205D01*
Y11208D01*
X18624Y11268D01*
X18557Y11319D01*
X18491Y11368D01*
X18428Y11405D01*
X18372Y11434D01*
X18328Y11457D01*
X18313Y11464D01*
X18302Y11471D01*
X18295Y11475D01*
X18291D01*
X18202Y11508D01*
X18117Y11531D01*
X18035Y11549D01*
X17961Y11560D01*
X17895Y11568D01*
X17869D01*
X17846Y11571D01*
D02*
G37*
G36*
X17965Y10001D02*
X17939D01*
X17891Y9997D01*
X17846Y9990D01*
X17809Y9983D01*
X17780Y9971D01*
X17754Y9960D01*
X17739Y9949D01*
X17728Y9946D01*
X17724Y9942D01*
X17702Y9923D01*
X17687Y9905D01*
X17672Y9883D01*
X17665Y9860D01*
X17661Y9838D01*
X17658Y9823D01*
Y9812D01*
Y9809D01*
X17661Y9779D01*
X17669Y9753D01*
X17680Y9734D01*
X17691Y9716D01*
X17702Y9701D01*
X17713Y9690D01*
X17721Y9686D01*
X17724Y9683D01*
X17758Y9664D01*
X17795Y9649D01*
X17835Y9642D01*
X17872Y9634D01*
X17909Y9631D01*
X17939Y9627D01*
X17969D01*
X18028Y9631D01*
X18076Y9638D01*
X18113Y9646D01*
X18146Y9657D01*
X18169Y9664D01*
X18187Y9675D01*
X18195Y9679D01*
X18198Y9683D01*
X18220Y9701D01*
X18239Y9723D01*
X18250Y9742D01*
X18261Y9760D01*
X18263Y9770D01*
X18041Y9992D01*
X18024Y9994D01*
X17991Y9997D01*
X17965Y10001D01*
D02*
G37*
G36*
X17084Y14207D02*
X17044D01*
X16929Y14096D01*
X17084D01*
Y14207D01*
D02*
G37*
G36*
X16733Y15384D02*
Y14251D01*
X16866Y14259D01*
Y14299D01*
X17040D01*
X17233Y14496D01*
X17144D01*
Y14973D01*
X17303D01*
Y14555D01*
X17610Y14855D01*
X17066Y15355D01*
X16733Y15384D01*
D02*
G37*
G36*
X18129Y15266D02*
X17707Y14858D01*
X18225Y14384D01*
X18295Y14392D01*
X18299Y14425D01*
X18310Y14451D01*
X18321Y14477D01*
X18332Y14499D01*
X18344Y14518D01*
X18355Y14533D01*
X18362Y14540D01*
X18366Y14544D01*
X18388Y14562D01*
X18414Y14577D01*
X18440Y14588D01*
X18466Y14596D01*
X18488Y14599D01*
X18507Y14603D01*
X18521D01*
X18532Y14599D01*
X18540D01*
X18555Y14596D01*
X18558D01*
Y15233D01*
X18129Y15266D01*
D02*
G37*
G36*
X16510Y14896D02*
X16451D01*
Y14647D01*
X16510D01*
Y14896D01*
D02*
G37*
G36*
X18529Y14496D02*
X18521D01*
X18503Y14492D01*
X18484Y14488D01*
X18458Y14473D01*
X18440Y14462D01*
X18432Y14455D01*
X18410Y14425D01*
X18399Y14396D01*
X18395Y14373D01*
Y14370D01*
Y14366D01*
X18403Y14329D01*
X18414Y14303D01*
X18425Y14288D01*
X18432Y14281D01*
X18462Y14259D01*
X18492Y14247D01*
X18514Y14244D01*
X18521D01*
X18558Y14251D01*
X18588Y14262D01*
X18607Y14273D01*
X18610Y14281D01*
X18614D01*
X18636Y14307D01*
X18647Y14336D01*
X18651Y14359D01*
Y14362D01*
Y14366D01*
X18644Y14403D01*
X18632Y14433D01*
X18621Y14451D01*
X18614Y14455D01*
Y14459D01*
X18581Y14481D01*
X18551Y14492D01*
X18529Y14496D01*
D02*
G37*
G36*
X16647Y15177D02*
X16518D01*
X16510Y15144D01*
X16503Y15110D01*
X16499Y15073D01*
X16496Y15040D01*
Y15010D01*
X16492Y14988D01*
Y14973D01*
Y14966D01*
X16570D01*
Y14581D01*
X16499D01*
X16507Y14544D01*
X16510Y14510D01*
X16518Y14481D01*
X16522Y14459D01*
X16529Y14440D01*
X16533Y14425D01*
X16536Y14418D01*
Y14414D01*
X16551Y14373D01*
X16566Y14344D01*
X16577Y14325D01*
X16581Y14318D01*
X16596Y14296D01*
X16610Y14284D01*
X16618Y14277D01*
X16622Y14273D01*
X16633Y14262D01*
X16640Y14259D01*
X16644Y14255D01*
X16647D01*
Y15177D01*
D02*
G37*
G36*
X17658Y14810D02*
X17136Y14299D01*
X17147D01*
Y14292D01*
X18129Y14373D01*
X17658Y14810D01*
D02*
G37*
G36*
X7885Y13439D02*
X7872D01*
X7862Y13438D01*
X7851D01*
X7837Y13437D01*
X7821Y13434D01*
X7804Y13431D01*
X7766Y13424D01*
X7726Y13413D01*
X7682Y13396D01*
X7661Y13386D01*
X7640Y13375D01*
X7638Y13373D01*
X7634Y13372D01*
X7628Y13368D01*
X7621Y13362D01*
X7611Y13356D01*
X7600Y13348D01*
X7575Y13327D01*
X7545Y13301D01*
X7515Y13272D01*
X7486Y13235D01*
X7459Y13196D01*
X7458Y13194D01*
X7456Y13190D01*
X7453Y13184D01*
X7449Y13176D01*
X7444Y13165D01*
X7438Y13152D01*
X7432Y13138D01*
X7425Y13122D01*
X7420Y13104D01*
X7414Y13084D01*
X7403Y13043D01*
X7396Y12997D01*
X7393Y12973D01*
Y12947D01*
Y12946D01*
Y12943D01*
Y12938D01*
Y12931D01*
X7394Y12921D01*
Y12911D01*
X7397Y12885D01*
X7403Y12856D01*
X7408Y12825D01*
X7418Y12791D01*
X7431Y12757D01*
Y12756D01*
X7432Y12753D01*
X7435Y12749D01*
X7438Y12742D01*
X7442Y12735D01*
X7446Y12725D01*
X7459Y12704D01*
X7473Y12678D01*
X7491Y12653D01*
X7514Y12626D01*
X7538Y12599D01*
X7539Y12598D01*
X7541Y12596D01*
X7545Y12592D01*
X7549Y12588D01*
X7565Y12575D01*
X7583Y12560D01*
X7606Y12543D01*
X7632Y12525D01*
X7663Y12508D01*
X7696Y12492D01*
X7697D01*
X7700Y12491D01*
X7704Y12488D01*
X7711Y12486D01*
X7720Y12484D01*
X7730Y12479D01*
X7752Y12472D01*
X7780Y12467D01*
X7813Y12460D01*
X7848Y12455D01*
X7885Y12454D01*
X7897D01*
X7907Y12455D01*
X7919D01*
X7933Y12457D01*
X7948Y12460D01*
X7965Y12463D01*
X8003Y12471D01*
X8044Y12482D01*
X8088Y12499D01*
X8110Y12510D01*
X8132Y12522D01*
X8133Y12523D01*
X8136Y12525D01*
X8143Y12529D01*
X8150Y12534D01*
X8160Y12540D01*
X8171Y12549D01*
X8196Y12570D01*
X8225Y12595D01*
X8254Y12626D01*
X8284Y12661D01*
X8311Y12702D01*
Y12704D01*
X8313Y12708D01*
X8316Y12713D01*
X8320Y12722D01*
X8326Y12732D01*
X8332Y12744D01*
X8337Y12759D01*
X8343Y12775D01*
X8349Y12792D01*
X8354Y12812D01*
X8366Y12853D01*
X8373Y12900D01*
X8374Y12924D01*
X8375Y12947D01*
Y12949D01*
Y12953D01*
Y12960D01*
X8374Y12970D01*
Y12983D01*
X8373Y12997D01*
X8370Y13012D01*
X8367Y13029D01*
X8360Y13067D01*
X8349Y13110D01*
X8332Y13152D01*
X8322Y13174D01*
X8311Y13196D01*
X8309Y13197D01*
X8308Y13200D01*
X8303Y13207D01*
X8299Y13214D01*
X8292Y13224D01*
X8284Y13235D01*
X8264Y13260D01*
X8239Y13289D01*
X8208Y13318D01*
X8172Y13348D01*
X8133Y13375D01*
X8132D01*
X8127Y13377D01*
X8122Y13380D01*
X8113Y13384D01*
X8102Y13390D01*
X8089Y13396D01*
X8075Y13401D01*
X8060Y13407D01*
X8041Y13413D01*
X8022Y13418D01*
X7981Y13430D01*
X7934Y13437D01*
X7910Y13438D01*
X7885Y13439D01*
D02*
G37*
G36*
X8509Y14498D02*
X7745D01*
X7737Y14497D01*
X7726Y14495D01*
X7714Y14493D01*
X7702Y14490D01*
X7690Y14484D01*
X7680Y14477D01*
X7679Y14476D01*
X7676Y14473D01*
X7672Y14467D01*
X7668Y14461D01*
X7663Y14452D01*
X7659Y14442D01*
X7656Y14430D01*
X7655Y14416D01*
Y14415D01*
Y14411D01*
X7656Y14404D01*
X7658Y14395D01*
X7661Y14385D01*
X7666Y14375D01*
X7672Y14366D01*
X7680Y14356D01*
X7682Y14354D01*
X7685Y14352D01*
X7690Y14349D01*
X7699Y14343D01*
X7709Y14339D01*
X7721Y14336D01*
X7735Y14333D01*
X7752Y14332D01*
X7772D01*
X7771Y14329D01*
X7764Y14323D01*
X7752Y14313D01*
X7740Y14301D01*
X7726Y14285D01*
X7710Y14268D01*
X7696Y14250D01*
X7685Y14230D01*
X7683Y14227D01*
X7680Y14220D01*
X7675Y14209D01*
X7669Y14195D01*
X7665Y14177D01*
X7659Y14157D01*
X7656Y14133D01*
X7655Y14109D01*
Y14108D01*
Y14105D01*
Y14101D01*
Y14095D01*
X7658Y14079D01*
X7661Y14060D01*
X7665Y14037D01*
X7673Y14012D01*
X7683Y13985D01*
X7697Y13960D01*
Y13958D01*
X7699Y13957D01*
X7706Y13948D01*
X7714Y13936D01*
X7728Y13920D01*
X7745Y13903D01*
X7766Y13886D01*
X7792Y13868D01*
X7820Y13852D01*
X7821D01*
X7824Y13851D01*
X7828Y13848D01*
X7834Y13845D01*
X7841Y13843D01*
X7851Y13840D01*
X7861Y13836D01*
X7874Y13831D01*
X7900Y13824D01*
X7933Y13817D01*
X7969Y13813D01*
X8009Y13812D01*
X8023D01*
X8038Y13813D01*
X8057Y13814D01*
X8081Y13817D01*
X8105Y13821D01*
X8132Y13827D01*
X8157Y13836D01*
X8158D01*
X8160Y13837D01*
X8168Y13840D01*
X8181Y13845D01*
X8196Y13851D01*
X8215Y13861D01*
X8233Y13871D01*
X8253Y13884D01*
X8271Y13898D01*
X8272Y13899D01*
X8278Y13905D01*
X8287Y13913D01*
X8296Y13924D01*
X8308Y13938D01*
X8320Y13954D01*
X8332Y13972D01*
X8342Y13992D01*
X8343Y13995D01*
X8346Y14002D01*
X8349Y14013D01*
X8353Y14027D01*
X8358Y14044D01*
X8361Y14064D01*
X8364Y14087D01*
X8366Y14109D01*
Y14110D01*
Y14112D01*
Y14116D01*
Y14122D01*
X8364Y14136D01*
X8361Y14153D01*
X8358Y14172D01*
X8353Y14194D01*
X8346Y14215D01*
X8336Y14236D01*
X8334Y14239D01*
X8330Y14244D01*
X8323Y14254D01*
X8313Y14267D01*
X8301Y14281D01*
X8287Y14298D01*
X8268Y14315D01*
X8247Y14332D01*
X8521D01*
X8528Y14333D01*
X8546Y14336D01*
X8567Y14342D01*
X8590Y14353D01*
X8600Y14359D01*
X8608Y14367D01*
X8615Y14377D01*
X8621Y14388D01*
X8625Y14401D01*
X8626Y14416D01*
Y14419D01*
Y14425D01*
X8625Y14433D01*
X8622Y14443D01*
X8619Y14454D01*
X8614Y14466D01*
X8605Y14476D01*
X8595Y14483D01*
X8594D01*
X8590Y14485D01*
X8583Y14487D01*
X8573Y14490D01*
X8561Y14493D01*
X8546Y14495D01*
X8529Y14497D01*
X8509Y14498D01*
D02*
G37*
G36*
X8260Y15070D02*
X7761D01*
X7754Y15069D01*
X7734Y15066D01*
X7713Y15059D01*
X7692Y15049D01*
X7680Y15042D01*
X7672Y15035D01*
X7665Y15025D01*
X7659Y15014D01*
X7655Y15001D01*
X7654Y14986D01*
Y14984D01*
Y14979D01*
X7655Y14970D01*
X7656Y14962D01*
X7661Y14952D01*
X7665Y14941D01*
X7672Y14932D01*
X7682Y14924D01*
X7683Y14922D01*
X7687Y14921D01*
X7693Y14917D01*
X7703Y14914D01*
X7714Y14910D01*
X7728Y14907D01*
X7745Y14904D01*
X7764Y14903D01*
X7761Y14901D01*
X7755Y14897D01*
X7745Y14890D01*
X7733Y14883D01*
X7720Y14873D01*
X7706Y14862D01*
X7693Y14851D01*
X7682Y14838D01*
X7680Y14836D01*
X7678Y14832D01*
X7673Y14824D01*
X7668Y14814D01*
X7662Y14801D01*
X7658Y14786D01*
X7655Y14769D01*
X7654Y14749D01*
Y14746D01*
Y14739D01*
X7655Y14729D01*
X7656Y14715D01*
X7661Y14698D01*
X7665Y14680D01*
X7672Y14662D01*
X7682Y14642D01*
X7683Y14639D01*
X7687Y14633D01*
X7693Y14625D01*
X7702Y14615D01*
X7711Y14607D01*
X7724Y14598D01*
X7740Y14593D01*
X7755Y14590D01*
X7761D01*
X7766Y14591D01*
X7773Y14593D01*
X7782Y14595D01*
X7792Y14600D01*
X7800Y14605D01*
X7809Y14612D01*
X7810Y14614D01*
X7811Y14617D01*
X7814Y14621D01*
X7819Y14626D01*
X7826Y14642D01*
X7827Y14650D01*
X7828Y14660D01*
Y14662D01*
Y14666D01*
X7827Y14670D01*
X7826Y14676D01*
X7824Y14684D01*
X7821Y14694D01*
X7817Y14707D01*
Y14708D01*
X7816Y14712D01*
X7813Y14719D01*
X7810Y14728D01*
X7806Y14749D01*
X7804Y14772D01*
Y14773D01*
Y14777D01*
X7806Y14784D01*
X7807Y14794D01*
X7810Y14804D01*
X7813Y14814D01*
X7819Y14825D01*
X7826Y14835D01*
X7827Y14836D01*
X7830Y14839D01*
X7834Y14844D01*
X7841Y14849D01*
X7850Y14855D01*
X7859Y14862D01*
X7872Y14867D01*
X7886Y14873D01*
X7888D01*
X7893Y14875D01*
X7902Y14877D01*
X7913Y14880D01*
X7927Y14883D01*
X7943Y14886D01*
X7961Y14889D01*
X7981Y14891D01*
X7991D01*
X8002Y14893D01*
X8017D01*
X8037Y14894D01*
X8060D01*
X8085Y14896D01*
X8268D01*
X8278Y14897D01*
X8289Y14899D01*
X8303Y14901D01*
X8316Y14907D01*
X8329Y14913D01*
X8340Y14921D01*
X8342Y14922D01*
X8344Y14925D01*
X8349Y14931D01*
X8353Y14938D01*
X8357Y14948D01*
X8361Y14959D01*
X8364Y14970D01*
X8366Y14984D01*
Y14986D01*
Y14990D01*
X8364Y14997D01*
X8363Y15007D01*
X8358Y15017D01*
X8354Y15027D01*
X8347Y15037D01*
X8339Y15047D01*
X8337Y15048D01*
X8333Y15051D01*
X8327Y15054D01*
X8319Y15058D01*
X8308Y15063D01*
X8294Y15066D01*
X8278Y15069D01*
X8260Y15070D01*
D02*
G37*
G36*
X8261Y12059D02*
X8257D01*
X8251Y12058D01*
X8246Y12057D01*
X8236Y12055D01*
X8226Y12052D01*
X8215Y12048D01*
X8201Y12042D01*
X8199Y12041D01*
X8194Y12040D01*
X8188Y12035D01*
X8178Y12031D01*
X8158Y12018D01*
X8148Y12011D01*
X8140Y12004D01*
X8139Y12003D01*
X8136Y12000D01*
X8132Y11996D01*
X8124Y11990D01*
X8117Y11982D01*
X8109Y11973D01*
X8088Y11952D01*
X8064Y11928D01*
X8038Y11903D01*
X8013Y11876D01*
X7989Y11849D01*
X7988Y11848D01*
X7986Y11847D01*
X7979Y11838D01*
X7968Y11825D01*
X7955Y11811D01*
X7941Y11794D01*
X7927Y11779D01*
X7914Y11763D01*
X7905Y11751D01*
X7903Y11748D01*
X7897Y11742D01*
X7890Y11732D01*
X7882Y11720D01*
X7871Y11707D01*
X7858Y11691D01*
X7844Y11677D01*
X7830Y11663D01*
X7828Y11662D01*
X7823Y11658D01*
X7816Y11651D01*
X7806Y11644D01*
X7795Y11635D01*
X7780Y11625D01*
X7766Y11617D01*
X7752Y11610D01*
X7751Y11608D01*
X7745Y11607D01*
X7738Y11604D01*
X7728Y11600D01*
X7716Y11597D01*
X7703Y11594D01*
X7689Y11593D01*
X7675Y11591D01*
X7668D01*
X7661Y11593D01*
X7651Y11594D01*
X7640Y11596D01*
X7627Y11600D01*
X7614Y11604D01*
X7601Y11611D01*
X7600Y11612D01*
X7596Y11615D01*
X7590Y11620D01*
X7583Y11625D01*
X7575Y11632D01*
X7566Y11642D01*
X7558Y11652D01*
X7551Y11665D01*
X7549Y11666D01*
X7548Y11670D01*
X7545Y11677D01*
X7541Y11686D01*
X7538Y11697D01*
X7535Y11710D01*
X7534Y11724D01*
X7532Y11738D01*
Y11739D01*
Y11742D01*
Y11746D01*
X7534Y11752D01*
X7537Y11768D01*
X7542Y11786D01*
X7551Y11807D01*
X7563Y11830D01*
X7572Y11841D01*
X7582Y11851D01*
X7594Y11861D01*
X7607Y11870D01*
X7610Y11872D01*
X7613Y11873D01*
X7617Y11876D01*
X7624Y11879D01*
X7634Y11883D01*
X7645Y11887D01*
X7661Y11893D01*
X7662D01*
X7668Y11896D01*
X7675Y11899D01*
X7685Y11903D01*
X7706Y11913D01*
X7717Y11920D01*
X7727Y11927D01*
X7728Y11928D01*
X7730Y11930D01*
X7734Y11934D01*
X7738Y11941D01*
X7742Y11948D01*
X7745Y11958D01*
X7748Y11969D01*
X7749Y11982D01*
Y11983D01*
Y11987D01*
X7748Y11993D01*
X7747Y12000D01*
X7744Y12009D01*
X7741Y12018D01*
X7735Y12027D01*
X7728Y12035D01*
X7727Y12037D01*
X7724Y12038D01*
X7720Y12042D01*
X7713Y12045D01*
X7704Y12050D01*
X7694Y12054D01*
X7683Y12055D01*
X7671Y12057D01*
X7662D01*
X7654Y12055D01*
X7642Y12054D01*
X7628Y12052D01*
X7613Y12048D01*
X7596Y12044D01*
X7577Y12037D01*
X7575Y12035D01*
X7569Y12033D01*
X7561Y12028D01*
X7549Y12021D01*
X7535Y12014D01*
X7521Y12003D01*
X7506Y11992D01*
X7491Y11978D01*
X7490Y11976D01*
X7484Y11971D01*
X7477Y11962D01*
X7469Y11951D01*
X7459Y11935D01*
X7448Y11918D01*
X7438Y11899D01*
X7428Y11878D01*
Y11876D01*
X7427Y11875D01*
X7424Y11866D01*
X7420Y11854D01*
X7415Y11837D01*
X7411Y11815D01*
X7407Y11792D01*
X7404Y11765D01*
X7403Y11735D01*
Y11734D01*
Y11731D01*
Y11725D01*
Y11718D01*
X7404Y11710D01*
Y11700D01*
X7407Y11677D01*
X7410Y11651D01*
X7415Y11622D01*
X7424Y11594D01*
X7434Y11567D01*
X7435Y11566D01*
X7438Y11560D01*
X7442Y11552D01*
X7449Y11541D01*
X7458Y11528D01*
X7468Y11515D01*
X7479Y11501D01*
X7491Y11488D01*
X7493Y11487D01*
X7497Y11483D01*
X7506Y11476D01*
X7515Y11469D01*
X7527Y11460D01*
X7541Y11450D01*
X7558Y11442D01*
X7575Y11435D01*
X7576Y11433D01*
X7583Y11432D01*
X7592Y11429D01*
X7604Y11425D01*
X7618Y11421D01*
X7635Y11418D01*
X7654Y11417D01*
X7672Y11415D01*
X7686D01*
X7700Y11417D01*
X7720Y11421D01*
X7742Y11425D01*
X7766Y11432D01*
X7792Y11442D01*
X7817Y11456D01*
X7820Y11457D01*
X7828Y11463D01*
X7840Y11470D01*
X7854Y11481D01*
X7871Y11493D01*
X7888Y11507D01*
X7905Y11521D01*
X7920Y11536D01*
X7921Y11538D01*
X7927Y11545D01*
X7936Y11555D01*
X7948Y11569D01*
X7964Y11589D01*
X7985Y11612D01*
X8007Y11641D01*
X8036Y11675D01*
X8037Y11676D01*
X8038Y11679D01*
X8043Y11683D01*
X8048Y11690D01*
X8062Y11707D01*
X8081Y11727D01*
X8100Y11749D01*
X8120Y11770D01*
X8140Y11790D01*
X8150Y11799D01*
X8158Y11806D01*
X8160D01*
X8161Y11808D01*
X8170Y11815D01*
X8182Y11825D01*
X8199Y11838D01*
Y11503D01*
Y11500D01*
Y11494D01*
X8201Y11486D01*
X8202Y11474D01*
X8205Y11462D01*
X8208Y11449D01*
X8213Y11436D01*
X8220Y11426D01*
X8222Y11425D01*
X8225Y11422D01*
X8229Y11418D01*
X8234Y11412D01*
X8243Y11408D01*
X8253Y11404D01*
X8263Y11401D01*
X8275Y11400D01*
X8281D01*
X8287Y11401D01*
X8294Y11402D01*
X8302Y11405D01*
X8312Y11408D01*
X8320Y11414D01*
X8329Y11421D01*
X8330Y11422D01*
X8332Y11425D01*
X8336Y11429D01*
X8339Y11436D01*
X8343Y11446D01*
X8347Y11456D01*
X8349Y11469D01*
X8350Y11484D01*
Y11956D01*
Y11958D01*
Y11965D01*
X8349Y11973D01*
X8347Y11983D01*
X8344Y11996D01*
X8339Y12009D01*
X8333Y12021D01*
X8325Y12033D01*
X8323Y12034D01*
X8320Y12037D01*
X8315Y12041D01*
X8306Y12045D01*
X8298Y12051D01*
X8287Y12055D01*
X8274Y12058D01*
X8261Y12059D01*
D02*
G37*
G36*
X8130Y9714D02*
X8126D01*
X8122Y9712D01*
X8115Y9711D01*
X8100Y9705D01*
X8092Y9701D01*
X8084Y9694D01*
X8082Y9692D01*
X8079Y9690D01*
X8077Y9685D01*
X8072Y9680D01*
X8068Y9671D01*
X8064Y9663D01*
X8062Y9653D01*
X8061Y9642D01*
Y9639D01*
X8062Y9633D01*
X8064Y9623D01*
X8068Y9611D01*
X8077Y9598D01*
X8088Y9584D01*
X8102Y9573D01*
X8112Y9567D01*
X8123Y9561D01*
X8126Y9560D01*
X8133Y9557D01*
X8143Y9550D01*
X8155Y9543D01*
X8170Y9532D01*
X8184Y9520D01*
X8199Y9506D01*
X8212Y9491D01*
X8213Y9489D01*
X8216Y9484D01*
X8222Y9474D01*
X8227Y9463D01*
X8233Y9447D01*
X8239Y9432D01*
X8241Y9413D01*
X8243Y9394D01*
Y9391D01*
Y9385D01*
X8241Y9377D01*
X8240Y9364D01*
X8237Y9351D01*
X8232Y9336D01*
X8226Y9322D01*
X8217Y9308D01*
X8216Y9306D01*
X8213Y9302D01*
X8208Y9295D01*
X8199Y9286D01*
X8189Y9277D01*
X8177Y9267D01*
X8163Y9258D01*
X8147Y9250D01*
X8146Y9248D01*
X8139Y9247D01*
X8130Y9243D01*
X8117Y9239D01*
X8102Y9236D01*
X8085Y9232D01*
X8067Y9230D01*
X8045Y9229D01*
X8036D01*
X8023Y9230D01*
X8009Y9232D01*
X7992Y9234D01*
X7975Y9239D01*
X7957Y9244D01*
X7940Y9251D01*
X7938Y9253D01*
X7933Y9255D01*
X7924Y9260D01*
X7916Y9267D01*
X7905Y9275D01*
X7893Y9285D01*
X7883Y9296D01*
X7875Y9309D01*
X7874Y9310D01*
X7871Y9316D01*
X7868Y9323D01*
X7864Y9333D01*
X7859Y9346D01*
X7855Y9358D01*
X7854Y9374D01*
X7852Y9391D01*
Y9394D01*
Y9399D01*
Y9409D01*
X7854Y9422D01*
X7858Y9447D01*
X7862Y9460D01*
X7866Y9470D01*
Y9471D01*
X7869Y9474D01*
X7872Y9480D01*
X7878Y9487D01*
X7885Y9497D01*
X7893Y9509D01*
X7903Y9523D01*
X7914Y9539D01*
X7916Y9540D01*
X7920Y9546D01*
X7924Y9554D01*
X7930Y9564D01*
X7937Y9577D01*
X7941Y9588D01*
X7945Y9601D01*
X7947Y9612D01*
Y9614D01*
Y9618D01*
X7945Y9623D01*
X7944Y9630D01*
X7941Y9639D01*
X7937Y9649D01*
X7931Y9659D01*
X7924Y9669D01*
X7923Y9670D01*
X7920Y9673D01*
X7916Y9676D01*
X7909Y9680D01*
X7893Y9688D01*
X7883Y9691D01*
X7874Y9692D01*
X7871D01*
X7866Y9691D01*
X7861D01*
X7854Y9690D01*
X7843Y9688D01*
X7830Y9685D01*
X7523Y9632D01*
X7520D01*
X7514Y9630D01*
X7504Y9628D01*
X7491Y9623D01*
X7465Y9614D01*
X7453Y9606D01*
X7442Y9598D01*
X7441Y9597D01*
X7438Y9594D01*
X7434Y9587D01*
X7429Y9578D01*
X7425Y9568D01*
X7421Y9554D01*
X7418Y9537D01*
X7417Y9518D01*
Y9179D01*
Y9178D01*
Y9175D01*
Y9169D01*
X7418Y9164D01*
X7421Y9148D01*
X7427Y9129D01*
X7435Y9110D01*
X7449Y9095D01*
X7458Y9089D01*
X7469Y9083D01*
X7480Y9081D01*
X7494Y9079D01*
X7500D01*
X7506Y9081D01*
X7513Y9082D01*
X7521Y9085D01*
X7531Y9091D01*
X7539Y9096D01*
X7548Y9105D01*
X7549Y9106D01*
X7551Y9109D01*
X7554Y9115D01*
X7558Y9123D01*
X7562Y9133D01*
X7565Y9144D01*
X7566Y9158D01*
X7568Y9175D01*
Y9481D01*
X7776Y9518D01*
Y9516D01*
X7773Y9513D01*
X7772Y9509D01*
X7768Y9502D01*
X7765Y9494D01*
X7761Y9485D01*
X7751Y9463D01*
X7742Y9436D01*
X7734Y9408D01*
X7728Y9378D01*
X7727Y9349D01*
Y9347D01*
Y9346D01*
Y9339D01*
X7728Y9326D01*
X7730Y9312D01*
X7733Y9294D01*
X7737Y9275D01*
X7742Y9254D01*
X7751Y9234D01*
X7752Y9232D01*
X7755Y9224D01*
X7761Y9215D01*
X7768Y9202D01*
X7776Y9186D01*
X7788Y9171D01*
X7800Y9155D01*
X7814Y9140D01*
X7816Y9138D01*
X7821Y9133D01*
X7830Y9126D01*
X7841Y9116D01*
X7857Y9106D01*
X7872Y9096D01*
X7892Y9085D01*
X7912Y9076D01*
X7914Y9075D01*
X7921Y9072D01*
X7933Y9069D01*
X7947Y9064D01*
X7965Y9060D01*
X7985Y9057D01*
X8007Y9054D01*
X8031Y9052D01*
X8047D01*
X8055Y9054D01*
X8065Y9055D01*
X8088Y9058D01*
X8113Y9062D01*
X8141Y9071D01*
X8171Y9081D01*
X8201Y9095D01*
X8202D01*
X8203Y9096D01*
X8208Y9099D01*
X8213Y9103D01*
X8227Y9112D01*
X8244Y9126D01*
X8264Y9143D01*
X8284Y9164D01*
X8303Y9188D01*
X8322Y9216D01*
Y9217D01*
X8323Y9219D01*
X8326Y9224D01*
X8329Y9230D01*
X8332Y9237D01*
X8336Y9246D01*
X8343Y9268D01*
X8351Y9294D01*
X8358Y9325D01*
X8364Y9360D01*
X8366Y9396D01*
Y9398D01*
Y9402D01*
Y9408D01*
X8364Y9415D01*
Y9425D01*
X8363Y9436D01*
X8360Y9463D01*
X8356Y9492D01*
X8347Y9523D01*
X8337Y9554D01*
X8323Y9583D01*
Y9584D01*
X8322Y9585D01*
X8316Y9594D01*
X8306Y9606D01*
X8295Y9622D01*
X8281Y9639D01*
X8264Y9656D01*
X8246Y9671D01*
X8226Y9684D01*
X8223Y9685D01*
X8216Y9688D01*
X8206Y9694D01*
X8194Y9698D01*
X8178Y9704D01*
X8163Y9709D01*
X8146Y9712D01*
X8130Y9714D01*
D02*
G37*
G36*
X7733Y10485D02*
X7727D01*
X7721Y10483D01*
X7714Y10482D01*
X7699Y10476D01*
X7692Y10472D01*
X7685Y10465D01*
X7683Y10464D01*
X7682Y10461D01*
X7679Y10455D01*
X7673Y10448D01*
X7668Y10438D01*
X7661Y10426D01*
X7652Y10410D01*
X7644Y10392D01*
Y10390D01*
X7642Y10389D01*
X7640Y10385D01*
X7637Y10379D01*
X7630Y10365D01*
X7620Y10347D01*
X7609Y10327D01*
X7596Y10307D01*
X7582Y10286D01*
X7568Y10268D01*
X7566Y10266D01*
X7561Y10259D01*
X7552Y10251D01*
X7541Y10239D01*
X7528Y10227D01*
X7513Y10214D01*
X7496Y10200D01*
X7477Y10186D01*
X7475Y10184D01*
X7469Y10180D01*
X7460Y10173D01*
X7451Y10166D01*
X7439Y10158D01*
X7429Y10151D01*
X7421Y10144D01*
X7415Y10138D01*
X7414Y10135D01*
X7408Y10128D01*
X7407Y10122D01*
X7404Y10115D01*
X7403Y10107D01*
Y10097D01*
Y10096D01*
Y10091D01*
X7404Y10086D01*
X7405Y10077D01*
X7410Y10069D01*
X7414Y10059D01*
X7421Y10051D01*
X7429Y10042D01*
X7431Y10041D01*
X7434Y10039D01*
X7441Y10035D01*
X7449Y10031D01*
X7459Y10028D01*
X7472Y10024D01*
X7486Y10022D01*
X7503Y10021D01*
X8248D01*
X8257Y10022D01*
X8267Y10024D01*
X8278Y10025D01*
X8301Y10032D01*
X8325Y10042D01*
X8336Y10049D01*
X8346Y10059D01*
X8354Y10069D01*
X8360Y10080D01*
X8364Y10094D01*
X8366Y10110D01*
Y10111D01*
Y10117D01*
X8364Y10124D01*
X8363Y10132D01*
X8360Y10142D01*
X8354Y10153D01*
X8349Y10163D01*
X8340Y10173D01*
X8339Y10175D01*
X8334Y10176D01*
X8329Y10180D01*
X8320Y10184D01*
X8309Y10189D01*
X8296Y10192D01*
X8281Y10194D01*
X8263Y10196D01*
X7678D01*
X7679Y10197D01*
X7683Y10203D01*
X7689Y10211D01*
X7697Y10223D01*
X7707Y10235D01*
X7717Y10251D01*
X7728Y10266D01*
X7740Y10285D01*
X7764Y10321D01*
X7773Y10340D01*
X7783Y10358D01*
X7792Y10375D01*
X7797Y10390D01*
X7802Y10404D01*
X7803Y10416D01*
Y10417D01*
Y10420D01*
X7802Y10426D01*
X7800Y10431D01*
X7797Y10440D01*
X7795Y10447D01*
X7789Y10455D01*
X7782Y10464D01*
X7780Y10465D01*
X7778Y10466D01*
X7773Y10471D01*
X7768Y10473D01*
X7752Y10482D01*
X7742Y10483D01*
X7733Y10485D01*
D02*
G37*
G36*
X7927Y11287D02*
X7865D01*
X7841Y11285D01*
X7814Y11284D01*
X7785Y11283D01*
X7755Y11280D01*
X7726Y11277D01*
X7721D01*
X7718Y11276D01*
X7713D01*
X7697Y11273D01*
X7679Y11269D01*
X7658Y11264D01*
X7635Y11259D01*
X7613Y11253D01*
X7590Y11245D01*
X7589D01*
X7586Y11243D01*
X7582Y11240D01*
X7575Y11238D01*
X7559Y11229D01*
X7538Y11218D01*
X7515Y11202D01*
X7493Y11184D01*
X7470Y11161D01*
X7451Y11136D01*
Y11135D01*
X7448Y11133D01*
X7446Y11129D01*
X7442Y11123D01*
X7439Y11116D01*
X7435Y11108D01*
X7425Y11087D01*
X7417Y11061D01*
X7408Y11032D01*
X7403Y10999D01*
X7401Y10963D01*
Y10961D01*
Y10960D01*
Y10951D01*
X7403Y10939D01*
X7404Y10923D01*
X7407Y10905D01*
X7411Y10884D01*
X7417Y10864D01*
X7424Y10843D01*
X7425Y10840D01*
X7428Y10834D01*
X7432Y10823D01*
X7439Y10810D01*
X7449Y10796D01*
X7459Y10781D01*
X7472Y10764D01*
X7487Y10748D01*
X7489Y10747D01*
X7494Y10741D01*
X7503Y10734D01*
X7515Y10724D01*
X7530Y10713D01*
X7548Y10702D01*
X7568Y10691D01*
X7589Y10679D01*
X7590D01*
X7593Y10676D01*
X7600Y10675D01*
X7609Y10671D01*
X7620Y10668D01*
X7632Y10664D01*
X7648Y10660D01*
X7666Y10654D01*
X7686Y10650D01*
X7709Y10645D01*
X7733Y10641D01*
X7759Y10637D01*
X7789Y10634D01*
X7820Y10631D01*
X7854Y10630D01*
X7926D01*
X7951Y10631D01*
X7979Y10633D01*
X8009Y10636D01*
X8040Y10640D01*
X8069Y10644D01*
X8072D01*
X8077Y10645D01*
X8082Y10647D01*
X8096Y10650D01*
X8115Y10654D01*
X8137Y10661D01*
X8160Y10669D01*
X8184Y10679D01*
X8208Y10691D01*
X8209D01*
X8210Y10692D01*
X8215Y10695D01*
X8220Y10699D01*
X8233Y10707D01*
X8250Y10722D01*
X8268Y10737D01*
X8288Y10757D01*
X8306Y10779D01*
X8323Y10805D01*
Y10806D01*
X8325Y10808D01*
X8327Y10812D01*
X8329Y10817D01*
X8336Y10832D01*
X8343Y10850D01*
X8351Y10872D01*
X8357Y10899D01*
X8363Y10927D01*
X8364Y10958D01*
Y10960D01*
Y10963D01*
Y10968D01*
X8363Y10975D01*
Y10984D01*
X8361Y10994D01*
X8357Y11016D01*
X8350Y11044D01*
X8342Y11073D01*
X8327Y11104D01*
X8309Y11133D01*
Y11135D01*
X8306Y11136D01*
X8303Y11140D01*
X8299Y11146D01*
X8287Y11160D01*
X8270Y11175D01*
X8247Y11195D01*
X8222Y11214D01*
X8191Y11232D01*
X8157Y11249D01*
X8154Y11250D01*
X8147Y11252D01*
X8137Y11256D01*
X8122Y11260D01*
X8105Y11264D01*
X8085Y11270D01*
X8062Y11274D01*
X8040Y11278D01*
X8037D01*
X8029Y11280D01*
X8016Y11281D01*
X7998Y11283D01*
X7976Y11284D01*
X7952Y11285D01*
X7927Y11287D01*
D02*
G37*
G36*
X8256Y19481D02*
X7747D01*
X7738Y19480D01*
X7727Y19479D01*
X7716Y19476D01*
X7703Y19472D01*
X7690Y19466D01*
X7680Y19459D01*
X7679Y19457D01*
X7676Y19455D01*
X7672Y19450D01*
X7668Y19443D01*
X7663Y19435D01*
X7659Y19424D01*
X7656Y19412D01*
X7655Y19400D01*
Y19398D01*
Y19394D01*
X7656Y19387D01*
X7658Y19379D01*
X7661Y19369D01*
X7665Y19359D01*
X7671Y19349D01*
X7679Y19339D01*
X7680Y19338D01*
X7683Y19335D01*
X7689Y19332D01*
X7696Y19326D01*
X7706Y19322D01*
X7717Y19319D01*
X7730Y19316D01*
X7745Y19315D01*
X7762D01*
X7759Y19314D01*
X7754Y19307D01*
X7744Y19298D01*
X7731Y19285D01*
X7718Y19271D01*
X7704Y19254D01*
X7693Y19238D01*
X7682Y19218D01*
X7680Y19215D01*
X7678Y19208D01*
X7673Y19198D01*
X7668Y19184D01*
X7663Y19167D01*
X7659Y19147D01*
X7656Y19125D01*
X7655Y19102D01*
Y19101D01*
Y19099D01*
Y19091D01*
X7656Y19078D01*
X7658Y19063D01*
X7662Y19046D01*
X7666Y19026D01*
X7673Y19006D01*
X7682Y18988D01*
X7683Y18985D01*
X7687Y18980D01*
X7693Y18971D01*
X7702Y18960D01*
X7713Y18949D01*
X7727Y18934D01*
X7744Y18922D01*
X7762Y18911D01*
X7759Y18909D01*
X7754Y18902D01*
X7744Y18894D01*
X7731Y18881D01*
X7718Y18867D01*
X7704Y18851D01*
X7693Y18833D01*
X7682Y18815D01*
X7680Y18812D01*
X7678Y18806D01*
X7673Y18795D01*
X7668Y18781D01*
X7663Y18765D01*
X7659Y18746D01*
X7656Y18724D01*
X7655Y18702D01*
Y18700D01*
Y18699D01*
Y18695D01*
Y18689D01*
X7656Y18677D01*
X7659Y18660D01*
X7662Y18640D01*
X7668Y18620D01*
X7675Y18599D01*
X7685Y18579D01*
X7686Y18576D01*
X7690Y18571D01*
X7696Y18561D01*
X7706Y18550D01*
X7717Y18537D01*
X7730Y18524D01*
X7747Y18512D01*
X7765Y18500D01*
X7768Y18499D01*
X7773Y18496D01*
X7785Y18493D01*
X7802Y18489D01*
X7821Y18485D01*
X7848Y18481D01*
X7878Y18479D01*
X7914Y18478D01*
X8264D01*
X8274Y18479D01*
X8287Y18481D01*
X8301Y18483D01*
X8313Y18489D01*
X8327Y18495D01*
X8339Y18503D01*
X8340Y18505D01*
X8343Y18507D01*
X8347Y18513D01*
X8351Y18521D01*
X8357Y18530D01*
X8361Y18541D01*
X8364Y18555D01*
X8366Y18569D01*
Y18571D01*
Y18576D01*
X8364Y18583D01*
X8363Y18592D01*
X8358Y18603D01*
X8354Y18613D01*
X8347Y18624D01*
X8339Y18634D01*
X8337Y18636D01*
X8333Y18638D01*
X8327Y18643D01*
X8318Y18647D01*
X8306Y18651D01*
X8292Y18655D01*
X8275Y18658D01*
X8256Y18660D01*
X7929D01*
X7914Y18661D01*
X7899Y18662D01*
X7885Y18664D01*
X7871Y18665D01*
X7869D01*
X7865Y18667D01*
X7859Y18668D01*
X7851Y18669D01*
X7833Y18678D01*
X7823Y18684D01*
X7814Y18691D01*
X7813Y18692D01*
X7810Y18695D01*
X7807Y18699D01*
X7802Y18706D01*
X7797Y18716D01*
X7795Y18727D01*
X7792Y18740D01*
X7790Y18755D01*
Y18757D01*
Y18761D01*
X7792Y18768D01*
X7793Y18777D01*
X7796Y18786D01*
X7799Y18798D01*
X7804Y18809D01*
X7811Y18822D01*
X7813Y18823D01*
X7816Y18827D01*
X7820Y18833D01*
X7826Y18839D01*
X7834Y18847D01*
X7844Y18856D01*
X7866Y18870D01*
X7868Y18871D01*
X7875Y18872D01*
X7886Y18875D01*
X7903Y18878D01*
X7924Y18882D01*
X7937Y18884D01*
X7951Y18885D01*
X7967Y18887D01*
X7985D01*
X8003Y18888D01*
X8264D01*
X8274Y18889D01*
X8287Y18891D01*
X8301Y18894D01*
X8313Y18899D01*
X8327Y18905D01*
X8339Y18913D01*
X8340Y18915D01*
X8343Y18918D01*
X8347Y18923D01*
X8351Y18932D01*
X8357Y18940D01*
X8361Y18951D01*
X8364Y18965D01*
X8366Y18980D01*
Y18981D01*
Y18987D01*
X8364Y18994D01*
X8363Y19002D01*
X8358Y19013D01*
X8354Y19023D01*
X8347Y19035D01*
X8339Y19044D01*
X8337Y19046D01*
X8333Y19049D01*
X8327Y19051D01*
X8318Y19056D01*
X8306Y19061D01*
X8292Y19064D01*
X8275Y19067D01*
X8256Y19068D01*
X7940D01*
X7923Y19070D01*
X7906Y19071D01*
X7890Y19073D01*
X7875Y19074D01*
X7874D01*
X7869Y19075D01*
X7862Y19077D01*
X7854Y19078D01*
X7834Y19085D01*
X7824Y19091D01*
X7814Y19098D01*
X7813Y19099D01*
X7810Y19102D01*
X7807Y19106D01*
X7802Y19114D01*
X7797Y19122D01*
X7795Y19133D01*
X7792Y19146D01*
X7790Y19161D01*
Y19163D01*
Y19166D01*
Y19170D01*
X7792Y19176D01*
X7793Y19190D01*
X7797Y19208D01*
X7804Y19226D01*
X7816Y19245D01*
X7830Y19262D01*
X7850Y19274D01*
X7852Y19276D01*
X7861Y19278D01*
X7874Y19283D01*
X7893Y19287D01*
X7917Y19293D01*
X7945Y19297D01*
X7979Y19300D01*
X8019Y19301D01*
X8264D01*
X8274Y19302D01*
X8287Y19304D01*
X8301Y19307D01*
X8313Y19312D01*
X8327Y19318D01*
X8339Y19326D01*
X8340Y19328D01*
X8343Y19331D01*
X8347Y19336D01*
X8351Y19343D01*
X8357Y19353D01*
X8361Y19364D01*
X8364Y19377D01*
X8366Y19391D01*
Y19393D01*
Y19398D01*
X8364Y19405D01*
X8363Y19415D01*
X8358Y19425D01*
X8354Y19436D01*
X8347Y19448D01*
X8339Y19457D01*
X8337Y19459D01*
X8333Y19462D01*
X8327Y19465D01*
X8318Y19469D01*
X8306Y19474D01*
X8292Y19477D01*
X8275Y19480D01*
X8256Y19481D01*
D02*
G37*
G36*
X7733Y20009D02*
X7728D01*
X7723Y20007D01*
X7716Y20006D01*
X7709Y20003D01*
X7702Y20000D01*
X7694Y19995D01*
X7687Y19988D01*
X7686Y19986D01*
X7685Y19983D01*
X7682Y19979D01*
X7678Y19972D01*
X7675Y19964D01*
X7672Y19952D01*
X7671Y19941D01*
X7669Y19927D01*
Y19907D01*
X7518D01*
X7508Y19906D01*
X7494D01*
X7490Y19904D01*
X7484Y19903D01*
X7470Y19899D01*
X7456Y19893D01*
X7455D01*
X7453Y19892D01*
X7445Y19886D01*
X7437Y19878D01*
X7427Y19865D01*
Y19863D01*
X7425Y19862D01*
X7422Y19858D01*
X7421Y19852D01*
X7417Y19838D01*
X7415Y19821D01*
Y19820D01*
Y19816D01*
X7417Y19808D01*
X7418Y19801D01*
X7421Y19792D01*
X7427Y19782D01*
X7432Y19770D01*
X7441Y19761D01*
X7442Y19759D01*
X7444Y19758D01*
X7452Y19751D01*
X7465Y19744D01*
X7482Y19738D01*
X7483D01*
X7486Y19737D01*
X7491D01*
X7499Y19735D01*
X7508Y19734D01*
X7521D01*
X7535Y19732D01*
X7669D01*
Y19669D01*
Y19668D01*
Y19663D01*
X7671Y19656D01*
X7672Y19648D01*
X7676Y19629D01*
X7682Y19621D01*
X7687Y19613D01*
X7689Y19611D01*
X7690Y19610D01*
X7694Y19607D01*
X7699Y19603D01*
X7714Y19596D01*
X7723Y19594D01*
X7733Y19593D01*
X7738D01*
X7744Y19594D01*
X7752Y19596D01*
X7759Y19600D01*
X7768Y19604D01*
X7776Y19611D01*
X7782Y19621D01*
Y19622D01*
X7783Y19627D01*
X7786Y19632D01*
X7788Y19641D01*
X7790Y19652D01*
X7793Y19666D01*
X7795Y19682D01*
Y19700D01*
Y19732D01*
X8140D01*
X8161Y19731D01*
X8171D01*
X8181Y19730D01*
X8185D01*
X8194Y19727D01*
X8206Y19722D01*
X8217Y19715D01*
X8219Y19713D01*
X8223Y19706D01*
X8229Y19693D01*
X8230Y19684D01*
Y19675D01*
Y19673D01*
Y19672D01*
Y19663D01*
X8229Y19651D01*
X8226Y19632D01*
Y19631D01*
X8225Y19628D01*
Y19622D01*
X8223Y19617D01*
X8222Y19604D01*
X8220Y19591D01*
Y19590D01*
Y19587D01*
X8222Y19579D01*
X8227Y19566D01*
X8232Y19560D01*
X8237Y19553D01*
X8239Y19552D01*
X8240Y19551D01*
X8248Y19545D01*
X8263Y19539D01*
X8271Y19536D01*
X8287D01*
X8294Y19539D01*
X8303Y19542D01*
X8313Y19548D01*
X8325Y19556D01*
X8334Y19567D01*
X8344Y19583D01*
X8346Y19584D01*
X8347Y19591D01*
X8351Y19601D01*
X8354Y19617D01*
X8358Y19635D01*
X8363Y19658D01*
X8364Y19684D01*
X8366Y19715D01*
Y19717D01*
Y19720D01*
Y19724D01*
Y19728D01*
X8364Y19744D01*
X8363Y19762D01*
X8358Y19782D01*
X8354Y19803D01*
X8347Y19823D01*
X8339Y19840D01*
X8337Y19841D01*
X8333Y19847D01*
X8327Y19854D01*
X8319Y19862D01*
X8308Y19872D01*
X8295Y19880D01*
X8280Y19889D01*
X8263Y19894D01*
X8260D01*
X8254Y19896D01*
X8243Y19899D01*
X8227Y19900D01*
X8209Y19903D01*
X8186Y19906D01*
X8161Y19907D01*
X7795D01*
Y19931D01*
Y19933D01*
Y19937D01*
X7793Y19944D01*
X7792Y19952D01*
X7788Y19972D01*
X7783Y19980D01*
X7778Y19989D01*
X7776Y19990D01*
X7775Y19992D01*
X7771Y19995D01*
X7765Y19999D01*
X7751Y20006D01*
X7742Y20007D01*
X7733Y20009D01*
D02*
G37*
G36*
X8281Y20938D02*
X8278D01*
X8268Y20936D01*
X8256Y20935D01*
X8241Y20932D01*
X8240D01*
X8237Y20931D01*
X8233Y20929D01*
X8226Y20926D01*
X8217Y20924D01*
X8208Y20921D01*
X8196Y20915D01*
X8184Y20911D01*
X7572Y20670D01*
X7570D01*
X7568Y20668D01*
X7562Y20666D01*
X7555Y20663D01*
X7545Y20660D01*
X7535Y20656D01*
X7510Y20646D01*
X7508Y20644D01*
X7503Y20643D01*
X7497Y20640D01*
X7487Y20636D01*
X7468Y20626D01*
X7448Y20615D01*
X7446Y20613D01*
X7444Y20612D01*
X7439Y20608D01*
X7434Y20604D01*
X7421Y20589D01*
X7408Y20571D01*
X7407Y20570D01*
X7405Y20567D01*
X7403Y20560D01*
X7400Y20553D01*
X7397Y20543D01*
X7396Y20532D01*
X7393Y20519D01*
Y20505D01*
Y20503D01*
Y20498D01*
X7394Y20491D01*
Y20482D01*
X7400Y20460D01*
X7403Y20448D01*
X7408Y20439D01*
Y20437D01*
X7411Y20434D01*
X7414Y20429D01*
X7420Y20423D01*
X7431Y20409D01*
X7448Y20396D01*
X7449Y20395D01*
X7452Y20394D01*
X7456Y20391D01*
X7463Y20386D01*
X7479Y20377D01*
X7499Y20368D01*
X7500D01*
X7503Y20367D01*
X7510Y20364D01*
X7518Y20360D01*
X7528Y20357D01*
X7541Y20351D01*
X7555Y20346D01*
X7572Y20340D01*
X8178Y20093D01*
X8179D01*
X8181Y20092D01*
X8189Y20089D01*
X8202Y20083D01*
X8216Y20078D01*
X8233Y20074D01*
X8250Y20068D01*
X8265Y20065D01*
X8280Y20064D01*
X8285D01*
X8291Y20065D01*
X8299Y20066D01*
X8308Y20071D01*
X8318Y20075D01*
X8329Y20082D01*
X8339Y20092D01*
X8340Y20093D01*
X8343Y20096D01*
X8347Y20102D01*
X8351Y20110D01*
X8357Y20120D01*
X8361Y20131D01*
X8364Y20144D01*
X8366Y20158D01*
Y20160D01*
Y20162D01*
Y20167D01*
X8364Y20171D01*
X8361Y20183D01*
X8357Y20196D01*
X8356Y20199D01*
X8351Y20205D01*
X8346Y20214D01*
X8336Y20223D01*
X8333Y20224D01*
X8325Y20230D01*
X8312Y20238D01*
X8294Y20247D01*
X8292D01*
X8289Y20248D01*
X8284Y20251D01*
X8277Y20254D01*
X8260Y20261D01*
X8243Y20268D01*
X8124Y20313D01*
Y20697D01*
X8246Y20742D01*
X8247D01*
X8248Y20743D01*
X8257Y20746D01*
X8270Y20750D01*
X8284Y20757D01*
X8301Y20764D01*
X8316Y20771D01*
X8330Y20780D01*
X8342Y20787D01*
X8343Y20788D01*
X8346Y20790D01*
X8349Y20795D01*
X8353Y20801D01*
X8358Y20809D01*
X8361Y20821D01*
X8364Y20833D01*
X8366Y20847D01*
Y20849D01*
Y20853D01*
X8364Y20860D01*
X8363Y20869D01*
X8360Y20878D01*
X8354Y20888D01*
X8349Y20900D01*
X8340Y20911D01*
X8339Y20912D01*
X8336Y20915D01*
X8330Y20919D01*
X8323Y20924D01*
X8313Y20929D01*
X8303Y20933D01*
X8292Y20936D01*
X8281Y20938D01*
D02*
G37*
G36*
X8009Y18340D02*
X7996D01*
X7981Y18338D01*
X7962Y18337D01*
X7940Y18334D01*
X7916Y18330D01*
X7890Y18324D01*
X7865Y18317D01*
X7864D01*
X7862Y18316D01*
X7854Y18313D01*
X7841Y18307D01*
X7826Y18300D01*
X7809Y18290D01*
X7789Y18279D01*
X7769Y18266D01*
X7751Y18251D01*
X7748Y18249D01*
X7742Y18242D01*
X7734Y18232D01*
X7724Y18220D01*
X7711Y18204D01*
X7700Y18186D01*
X7687Y18165D01*
X7678Y18141D01*
Y18139D01*
X7676Y18138D01*
X7673Y18130D01*
X7669Y18115D01*
X7665Y18099D01*
X7661Y18077D01*
X7656Y18053D01*
X7654Y18025D01*
X7652Y17997D01*
Y17996D01*
Y17993D01*
Y17987D01*
Y17980D01*
X7654Y17970D01*
X7655Y17960D01*
X7658Y17936D01*
X7663Y17908D01*
X7671Y17879D01*
X7682Y17849D01*
X7696Y17821D01*
Y17819D01*
X7697Y17818D01*
X7704Y17808D01*
X7713Y17795D01*
X7727Y17780D01*
X7742Y17762D01*
X7762Y17743D01*
X7783Y17726D01*
X7809Y17711D01*
X7810D01*
X7811Y17709D01*
X7820Y17705D01*
X7834Y17700D01*
X7851Y17693D01*
X7872Y17685D01*
X7896Y17680D01*
X7921Y17676D01*
X7948Y17674D01*
X7960D01*
X7971Y17676D01*
X7983Y17678D01*
X7999Y17684D01*
X8013Y17690D01*
X8024Y17700D01*
X8034Y17712D01*
X8036Y17714D01*
X8037Y17719D01*
X8040Y17728D01*
X8043Y17739D01*
X8047Y17755D01*
X8050Y17773D01*
X8051Y17794D01*
X8053Y17818D01*
Y18161D01*
X8062D01*
X8074Y18159D01*
X8089Y18158D01*
X8105Y18155D01*
X8123Y18151D01*
X8141Y18145D01*
X8160Y18138D01*
X8161Y18137D01*
X8167Y18134D01*
X8175Y18128D01*
X8185Y18121D01*
X8196Y18113D01*
X8208Y18101D01*
X8217Y18090D01*
X8227Y18076D01*
X8229Y18075D01*
X8230Y18069D01*
X8234Y18060D01*
X8239Y18051D01*
X8243Y18038D01*
X8246Y18022D01*
X8248Y18005D01*
X8250Y17989D01*
Y17987D01*
Y17983D01*
Y17977D01*
X8248Y17970D01*
X8247Y17952D01*
X8243Y17932D01*
Y17931D01*
X8241Y17928D01*
X8240Y17922D01*
X8237Y17915D01*
X8230Y17900D01*
X8220Y17881D01*
X8219Y17880D01*
X8217Y17877D01*
X8215Y17873D01*
X8210Y17867D01*
X8199Y17852D01*
X8186Y17836D01*
X8185Y17835D01*
X8184Y17832D01*
X8179Y17828D01*
X8174Y17822D01*
X8167Y17814D01*
X8158Y17805D01*
X8137Y17783D01*
X8136Y17780D01*
X8132Y17773D01*
X8127Y17762D01*
X8126Y17745D01*
Y17743D01*
Y17740D01*
X8127Y17735D01*
Y17729D01*
X8133Y17715D01*
X8136Y17708D01*
X8141Y17701D01*
Y17700D01*
X8144Y17698D01*
X8151Y17693D01*
X8164Y17687D01*
X8172Y17684D01*
X8186D01*
X8192Y17685D01*
X8198Y17687D01*
X8206Y17688D01*
X8216Y17691D01*
X8227Y17697D01*
X8239Y17702D01*
X8240Y17704D01*
X8244Y17705D01*
X8250Y17711D01*
X8258Y17716D01*
X8267Y17724D01*
X8277Y17733D01*
X8288Y17745D01*
X8299Y17759D01*
X8301Y17760D01*
X8303Y17766D01*
X8309Y17774D01*
X8316Y17784D01*
X8323Y17798D01*
X8332Y17815D01*
X8339Y17833D01*
X8347Y17853D01*
X8349Y17856D01*
X8350Y17863D01*
X8353Y17874D01*
X8356Y17891D01*
X8360Y17910D01*
X8363Y17932D01*
X8364Y17958D01*
X8366Y17984D01*
Y17986D01*
Y17991D01*
Y18000D01*
X8364Y18013D01*
X8363Y18027D01*
X8360Y18042D01*
X8357Y18060D01*
X8353Y18080D01*
X8342Y18122D01*
X8334Y18145D01*
X8325Y18166D01*
X8313Y18187D01*
X8301Y18208D01*
X8287Y18228D01*
X8270Y18247D01*
X8268Y18248D01*
X8265Y18251D01*
X8260Y18255D01*
X8253Y18261D01*
X8243Y18268D01*
X8230Y18276D01*
X8217Y18285D01*
X8201Y18293D01*
X8184Y18302D01*
X8164Y18310D01*
X8143Y18318D01*
X8119Y18325D01*
X8093Y18331D01*
X8068Y18335D01*
X8038Y18338D01*
X8009Y18340D01*
D02*
G37*
G36*
X8010Y15906D02*
X7996D01*
X7982Y15905D01*
X7962Y15904D01*
X7940Y15901D01*
X7916Y15897D01*
X7890Y15891D01*
X7865Y15882D01*
X7864D01*
X7862Y15881D01*
X7854Y15878D01*
X7841Y15873D01*
X7826Y15864D01*
X7809Y15856D01*
X7789Y15843D01*
X7771Y15829D01*
X7752Y15813D01*
X7749Y15811D01*
X7744Y15805D01*
X7735Y15795D01*
X7726Y15782D01*
X7713Y15765D01*
X7702Y15747D01*
X7689Y15726D01*
X7679Y15702D01*
Y15701D01*
X7678Y15699D01*
X7675Y15691D01*
X7671Y15678D01*
X7666Y15660D01*
X7662Y15639D01*
X7658Y15615D01*
X7655Y15588D01*
X7654Y15560D01*
Y15558D01*
Y15555D01*
Y15551D01*
Y15546D01*
X7655Y15531D01*
X7656Y15512D01*
X7661Y15489D01*
X7665Y15464D01*
X7672Y15440D01*
X7680Y15414D01*
Y15413D01*
X7682Y15412D01*
X7685Y15403D01*
X7690Y15392D01*
X7699Y15376D01*
X7710Y15359D01*
X7721Y15341D01*
X7737Y15323D01*
X7754Y15304D01*
X7755Y15303D01*
X7762Y15297D01*
X7772Y15289D01*
X7785Y15278D01*
X7802Y15266D01*
X7821Y15255D01*
X7843Y15244D01*
X7866Y15234D01*
X7869Y15233D01*
X7878Y15230D01*
X7890Y15226D01*
X7909Y15221D01*
X7930Y15217D01*
X7954Y15213D01*
X7982Y15210D01*
X8010Y15209D01*
X8023D01*
X8038Y15210D01*
X8058Y15211D01*
X8081Y15214D01*
X8105Y15220D01*
X8130Y15226D01*
X8155Y15234D01*
X8158Y15235D01*
X8167Y15238D01*
X8178Y15244D01*
X8194Y15252D01*
X8212Y15262D01*
X8230Y15273D01*
X8250Y15288D01*
X8268Y15304D01*
X8270Y15306D01*
X8277Y15313D01*
X8285Y15323D01*
X8295Y15336D01*
X8308Y15352D01*
X8319Y15371D01*
X8332Y15392D01*
X8342Y15416D01*
X8343Y15419D01*
X8346Y15427D01*
X8349Y15440D01*
X8353Y15458D01*
X8358Y15479D01*
X8361Y15503D01*
X8364Y15530D01*
X8366Y15560D01*
Y15561D01*
Y15562D01*
Y15567D01*
Y15572D01*
X8364Y15588D01*
X8363Y15608D01*
X8360Y15629D01*
X8354Y15653D01*
X8349Y15678D01*
X8340Y15702D01*
X8339Y15705D01*
X8336Y15713D01*
X8329Y15725D01*
X8322Y15740D01*
X8311Y15757D01*
X8298Y15775D01*
X8284Y15794D01*
X8267Y15812D01*
X8264Y15813D01*
X8258Y15819D01*
X8248Y15827D01*
X8234Y15839D01*
X8217Y15850D01*
X8199Y15861D01*
X8178Y15873D01*
X8154Y15882D01*
X8153D01*
X8151Y15884D01*
X8143Y15887D01*
X8129Y15890D01*
X8112Y15894D01*
X8091Y15899D01*
X8067Y15902D01*
X8038Y15905D01*
X8010Y15906D01*
D02*
G37*
G36*
X7907Y16864D02*
X7862D01*
X7852Y16862D01*
X7841D01*
X7828Y16861D01*
X7813Y16859D01*
X7782Y16855D01*
X7748Y16850D01*
X7713Y16842D01*
X7678Y16831D01*
X7676D01*
X7673Y16830D01*
X7669Y16828D01*
X7662Y16826D01*
X7655Y16821D01*
X7645Y16817D01*
X7624Y16807D01*
X7600Y16795D01*
X7575Y16778D01*
X7549Y16758D01*
X7524Y16737D01*
X7523Y16735D01*
X7521Y16734D01*
X7514Y16725D01*
X7501Y16713D01*
X7487Y16696D01*
X7472Y16675D01*
X7456Y16649D01*
X7441Y16623D01*
X7427Y16593D01*
Y16592D01*
X7425Y16589D01*
X7424Y16584D01*
X7421Y16579D01*
X7418Y16570D01*
X7415Y16562D01*
X7410Y16539D01*
X7404Y16513D01*
X7398Y16483D01*
X7394Y16451D01*
X7393Y16415D01*
Y16414D01*
Y16410D01*
Y16404D01*
Y16396D01*
X7394Y16386D01*
X7396Y16374D01*
X7397Y16362D01*
X7398Y16348D01*
X7404Y16315D01*
X7413Y16281D01*
X7424Y16246D01*
X7439Y16212D01*
Y16211D01*
X7441Y16208D01*
X7444Y16204D01*
X7448Y16197D01*
X7458Y16181D01*
X7470Y16162D01*
X7487Y16139D01*
X7506Y16116D01*
X7528Y16095D01*
X7552Y16076D01*
X7554D01*
X7555Y16074D01*
X7563Y16069D01*
X7576Y16060D01*
X7593Y16052D01*
X7611Y16043D01*
X7632Y16035D01*
X7655Y16029D01*
X7678Y16028D01*
X7683D01*
X7690Y16029D01*
X7697Y16030D01*
X7707Y16033D01*
X7717Y16038D01*
X7727Y16043D01*
X7737Y16052D01*
X7738Y16053D01*
X7741Y16056D01*
X7744Y16060D01*
X7748Y16067D01*
X7754Y16076D01*
X7757Y16084D01*
X7759Y16095D01*
X7761Y16107D01*
Y16108D01*
Y16112D01*
X7759Y16119D01*
X7758Y16128D01*
X7754Y16145D01*
X7749Y16155D01*
X7744Y16162D01*
X7742Y16163D01*
X7741Y16164D01*
X7737Y16169D01*
X7730Y16173D01*
X7721Y16180D01*
X7711Y16187D01*
X7699Y16194D01*
X7683Y16202D01*
X7682D01*
X7680Y16204D01*
X7672Y16210D01*
X7659Y16217D01*
X7644Y16226D01*
X7627Y16241D01*
X7610Y16255D01*
X7593Y16272D01*
X7579Y16290D01*
X7577Y16293D01*
X7573Y16298D01*
X7568Y16310D01*
X7561Y16324D01*
X7555Y16342D01*
X7549Y16363D01*
X7545Y16387D01*
X7544Y16414D01*
Y16415D01*
Y16420D01*
Y16425D01*
X7545Y16434D01*
X7546Y16444D01*
X7548Y16455D01*
X7555Y16482D01*
X7566Y16511D01*
X7573Y16527D01*
X7582Y16544D01*
X7592Y16558D01*
X7604Y16573D01*
X7618Y16587D01*
X7634Y16601D01*
X7635Y16603D01*
X7638Y16604D01*
X7644Y16607D01*
X7651Y16613D01*
X7659Y16617D01*
X7671Y16623D01*
X7683Y16630D01*
X7699Y16635D01*
X7716Y16642D01*
X7735Y16648D01*
X7755Y16655D01*
X7778Y16659D01*
X7803Y16663D01*
X7830Y16668D01*
X7858Y16669D01*
X7888Y16670D01*
X7906D01*
X7916Y16669D01*
X7926D01*
X7951Y16666D01*
X7981Y16663D01*
X8012Y16658D01*
X8041Y16651D01*
X8071Y16641D01*
X8072D01*
X8074Y16639D01*
X8082Y16635D01*
X8095Y16628D01*
X8112Y16618D01*
X8129Y16606D01*
X8147Y16592D01*
X8164Y16573D01*
X8179Y16553D01*
X8181Y16551D01*
X8185Y16544D01*
X8191Y16531D01*
X8196Y16515D01*
X8203Y16496D01*
X8209Y16473D01*
X8213Y16449D01*
X8215Y16421D01*
Y16420D01*
Y16417D01*
Y16413D01*
Y16407D01*
X8212Y16393D01*
X8209Y16373D01*
X8205Y16352D01*
X8198Y16328D01*
X8188Y16305D01*
X8175Y16283D01*
X8174Y16280D01*
X8168Y16273D01*
X8158Y16263D01*
X8144Y16250D01*
X8127Y16236D01*
X8108Y16222D01*
X8084Y16208D01*
X8055Y16195D01*
X8054D01*
X8048Y16194D01*
X8043Y16191D01*
X8033Y16187D01*
X8013Y16179D01*
X8003Y16173D01*
X7995Y16166D01*
X7993Y16164D01*
X7991Y16162D01*
X7988Y16157D01*
X7982Y16152D01*
X7978Y16143D01*
X7975Y16133D01*
X7972Y16122D01*
X7971Y16108D01*
Y16107D01*
Y16102D01*
X7972Y16095D01*
X7974Y16088D01*
X7976Y16078D01*
X7981Y16070D01*
X7986Y16060D01*
X7995Y16050D01*
X7996Y16049D01*
X7999Y16046D01*
X8005Y16042D01*
X8012Y16038D01*
X8020Y16033D01*
X8030Y16029D01*
X8041Y16026D01*
X8054Y16025D01*
X8061D01*
X8071Y16026D01*
X8082Y16028D01*
X8096Y16030D01*
X8113Y16035D01*
X8132Y16040D01*
X8151Y16047D01*
X8154Y16049D01*
X8160Y16052D01*
X8171Y16057D01*
X8184Y16064D01*
X8199Y16074D01*
X8216Y16087D01*
X8234Y16101D01*
X8254Y16118D01*
X8257Y16119D01*
X8263Y16126D01*
X8271Y16136D01*
X8282Y16150D01*
X8295Y16167D01*
X8309Y16188D01*
X8322Y16212D01*
X8334Y16239D01*
Y16241D01*
X8336Y16242D01*
X8337Y16246D01*
X8339Y16252D01*
X8342Y16259D01*
X8344Y16267D01*
X8350Y16288D01*
X8356Y16314D01*
X8361Y16342D01*
X8364Y16376D01*
X8366Y16411D01*
Y16413D01*
Y16414D01*
Y16418D01*
Y16424D01*
X8364Y16438D01*
Y16455D01*
X8363Y16476D01*
X8360Y16499D01*
X8351Y16546D01*
Y16549D01*
X8349Y16556D01*
X8346Y16568D01*
X8342Y16583D01*
X8336Y16600D01*
X8329Y16618D01*
X8319Y16638D01*
X8309Y16658D01*
X8308Y16661D01*
X8303Y16666D01*
X8296Y16676D01*
X8288Y16687D01*
X8277Y16702D01*
X8263Y16717D01*
X8247Y16733D01*
X8230Y16748D01*
X8229Y16749D01*
X8222Y16754D01*
X8213Y16762D01*
X8201Y16771D01*
X8186Y16780D01*
X8170Y16792D01*
X8151Y16803D01*
X8132Y16813D01*
X8129Y16814D01*
X8122Y16817D01*
X8110Y16821D01*
X8096Y16827D01*
X8079Y16833D01*
X8058Y16840D01*
X8037Y16845D01*
X8014Y16851D01*
X8012D01*
X8003Y16852D01*
X7991Y16855D01*
X7974Y16857D01*
X7954Y16859D01*
X7931Y16862D01*
X7907Y16864D01*
D02*
G37*
G36*
X8260Y17525D02*
X7491D01*
X7482Y17523D01*
X7470Y17522D01*
X7458Y17519D01*
X7445Y17515D01*
X7432Y17509D01*
X7421Y17502D01*
X7420Y17501D01*
X7417Y17498D01*
X7413Y17492D01*
X7407Y17485D01*
X7401Y17477D01*
X7397Y17466D01*
X7394Y17453D01*
X7393Y17439D01*
Y17437D01*
Y17432D01*
X7394Y17425D01*
X7396Y17416D01*
X7400Y17406D01*
X7404Y17395D01*
X7411Y17385D01*
X7420Y17375D01*
X7421Y17374D01*
X7425Y17371D01*
X7431Y17367D01*
X7439Y17363D01*
X7451Y17358D01*
X7465Y17354D01*
X7482Y17351D01*
X7500Y17350D01*
X8268D01*
X8278Y17351D01*
X8289Y17353D01*
X8303Y17356D01*
X8316Y17361D01*
X8329Y17367D01*
X8340Y17375D01*
X8342Y17377D01*
X8344Y17380D01*
X8349Y17385D01*
X8353Y17392D01*
X8357Y17401D01*
X8361Y17412D01*
X8364Y17425D01*
X8366Y17439D01*
Y17440D01*
Y17444D01*
X8364Y17451D01*
X8363Y17461D01*
X8358Y17471D01*
X8354Y17481D01*
X8347Y17491D01*
X8339Y17501D01*
X8337Y17502D01*
X8333Y17505D01*
X8327Y17508D01*
X8318Y17512D01*
X8308Y17518D01*
X8294Y17521D01*
X8278Y17523D01*
X8260Y17525D01*
D02*
G37*
G36*
X14208Y17428D02*
X14203D01*
X14195Y17426D01*
X14188Y17424D01*
X14175Y17423D01*
X14162Y17419D01*
X14147Y17413D01*
X14129Y17406D01*
X14127Y17404D01*
X14119Y17402D01*
X14112Y17397D01*
X14099Y17391D01*
X14073Y17374D01*
X14060Y17365D01*
X14049Y17356D01*
X14047Y17354D01*
X14044Y17350D01*
X14038Y17345D01*
X14029Y17337D01*
X14019Y17326D01*
X14008Y17315D01*
X13981Y17287D01*
X13949Y17256D01*
X13916Y17223D01*
X13882Y17187D01*
X13851Y17152D01*
X13849Y17150D01*
X13847Y17149D01*
X13838Y17137D01*
X13823Y17121D01*
X13807Y17102D01*
X13788Y17080D01*
X13769Y17060D01*
X13753Y17039D01*
X13740Y17023D01*
X13738Y17019D01*
X13731Y17012D01*
X13721Y16999D01*
X13710Y16982D01*
X13695Y16965D01*
X13679Y16945D01*
X13660Y16926D01*
X13642Y16908D01*
X13640Y16906D01*
X13632Y16900D01*
X13623Y16891D01*
X13610Y16882D01*
X13595Y16871D01*
X13577Y16858D01*
X13558Y16847D01*
X13540Y16838D01*
X13538Y16836D01*
X13531Y16834D01*
X13521Y16830D01*
X13508Y16825D01*
X13492Y16821D01*
X13475Y16817D01*
X13457Y16815D01*
X13438Y16813D01*
X13429D01*
X13420Y16815D01*
X13407Y16817D01*
X13392Y16819D01*
X13375Y16825D01*
X13358Y16830D01*
X13342Y16839D01*
X13340Y16841D01*
X13334Y16845D01*
X13327Y16850D01*
X13318Y16858D01*
X13307Y16867D01*
X13295Y16880D01*
X13284Y16893D01*
X13275Y16910D01*
X13273Y16912D01*
X13271Y16917D01*
X13268Y16926D01*
X13262Y16937D01*
X13258Y16952D01*
X13255Y16969D01*
X13253Y16987D01*
X13251Y17006D01*
Y17008D01*
Y17012D01*
Y17017D01*
X13253Y17025D01*
X13257Y17045D01*
X13264Y17069D01*
X13275Y17097D01*
X13292Y17126D01*
X13303Y17141D01*
X13316Y17154D01*
X13333Y17167D01*
X13349Y17180D01*
X13353Y17182D01*
X13357Y17184D01*
X13362Y17187D01*
X13371Y17191D01*
X13384Y17197D01*
X13399Y17202D01*
X13420Y17210D01*
X13421D01*
X13429Y17213D01*
X13438Y17217D01*
X13451Y17223D01*
X13479Y17236D01*
X13494Y17245D01*
X13507Y17254D01*
X13508Y17256D01*
X13510Y17258D01*
X13516Y17263D01*
X13521Y17273D01*
X13527Y17282D01*
X13531Y17295D01*
X13534Y17310D01*
X13536Y17326D01*
Y17328D01*
Y17334D01*
X13534Y17341D01*
X13532Y17350D01*
X13529Y17362D01*
X13525Y17374D01*
X13518Y17386D01*
X13508Y17397D01*
X13507Y17399D01*
X13503Y17400D01*
X13497Y17406D01*
X13488Y17410D01*
X13477Y17415D01*
X13464Y17421D01*
X13449Y17423D01*
X13432Y17424D01*
X13421D01*
X13410Y17423D01*
X13395Y17421D01*
X13377Y17419D01*
X13357Y17413D01*
X13334Y17408D01*
X13310Y17399D01*
X13307Y17397D01*
X13299Y17393D01*
X13288Y17387D01*
X13273Y17378D01*
X13255Y17369D01*
X13236Y17354D01*
X13216Y17339D01*
X13197Y17321D01*
X13195Y17319D01*
X13188Y17312D01*
X13179Y17300D01*
X13168Y17286D01*
X13155Y17265D01*
X13140Y17243D01*
X13127Y17217D01*
X13114Y17189D01*
Y17187D01*
X13112Y17186D01*
X13108Y17175D01*
X13103Y17158D01*
X13097Y17136D01*
X13092Y17108D01*
X13086Y17076D01*
X13083Y17041D01*
X13081Y17002D01*
Y17000D01*
Y16997D01*
Y16989D01*
Y16980D01*
X13083Y16969D01*
Y16956D01*
X13086Y16926D01*
X13090Y16891D01*
X13097Y16854D01*
X13108Y16817D01*
X13121Y16782D01*
X13123Y16780D01*
X13127Y16773D01*
X13133Y16762D01*
X13142Y16747D01*
X13153Y16730D01*
X13166Y16713D01*
X13181Y16695D01*
X13197Y16678D01*
X13199Y16676D01*
X13205Y16671D01*
X13216Y16662D01*
X13229Y16652D01*
X13244Y16641D01*
X13262Y16628D01*
X13284Y16617D01*
X13307Y16608D01*
X13308Y16606D01*
X13318Y16604D01*
X13329Y16600D01*
X13345Y16595D01*
X13364Y16589D01*
X13386Y16586D01*
X13410Y16584D01*
X13434Y16582D01*
X13453D01*
X13471Y16584D01*
X13497Y16589D01*
X13527Y16595D01*
X13558Y16604D01*
X13592Y16617D01*
X13625Y16636D01*
X13629Y16638D01*
X13640Y16645D01*
X13655Y16654D01*
X13673Y16669D01*
X13695Y16684D01*
X13718Y16702D01*
X13740Y16721D01*
X13760Y16741D01*
X13762Y16743D01*
X13769Y16752D01*
X13781Y16765D01*
X13797Y16784D01*
X13818Y16810D01*
X13845Y16841D01*
X13875Y16878D01*
X13912Y16923D01*
X13914Y16925D01*
X13916Y16928D01*
X13921Y16934D01*
X13929Y16943D01*
X13947Y16965D01*
X13971Y16991D01*
X13997Y17021D01*
X14023Y17049D01*
X14049Y17075D01*
X14062Y17086D01*
X14073Y17095D01*
X14075D01*
X14077Y17099D01*
X14088Y17108D01*
X14105Y17121D01*
X14127Y17137D01*
Y16697D01*
Y16693D01*
Y16686D01*
X14129Y16675D01*
X14131Y16660D01*
X14134Y16643D01*
X14138Y16626D01*
X14145Y16610D01*
X14155Y16597D01*
X14156Y16595D01*
X14160Y16591D01*
X14166Y16586D01*
X14173Y16578D01*
X14184Y16573D01*
X14197Y16567D01*
X14210Y16563D01*
X14227Y16562D01*
X14234D01*
X14242Y16563D01*
X14251Y16565D01*
X14262Y16569D01*
X14275Y16573D01*
X14286Y16580D01*
X14297Y16589D01*
X14299Y16591D01*
X14301Y16595D01*
X14306Y16600D01*
X14310Y16610D01*
X14316Y16623D01*
X14321Y16636D01*
X14323Y16652D01*
X14325Y16673D01*
Y17293D01*
Y17295D01*
Y17304D01*
X14323Y17315D01*
X14321Y17328D01*
X14318Y17345D01*
X14310Y17362D01*
X14303Y17378D01*
X14292Y17393D01*
X14290Y17395D01*
X14286Y17399D01*
X14279Y17404D01*
X14268Y17410D01*
X14256Y17417D01*
X14242Y17423D01*
X14225Y17426D01*
X14208Y17428D01*
D02*
G37*
G36*
X10708Y12992D02*
X10415D01*
Y12798D01*
Y12779D01*
Y12761D01*
X10418Y12730D01*
X10419Y12706D01*
X10422Y12685D01*
X10425Y12670D01*
X10426Y12660D01*
X10429Y12653D01*
Y12651D01*
X10435Y12636D01*
X10443Y12622D01*
X10452Y12610D01*
X10460Y12600D01*
X10467Y12593D01*
X10474Y12588D01*
X10479Y12585D01*
X10480Y12584D01*
X10494Y12575D01*
X10508Y12569D01*
X10522Y12565D01*
X10536Y12562D01*
X10548Y12561D01*
X10556Y12560D01*
X10565D01*
X10583Y12561D01*
X10600Y12564D01*
X10614Y12568D01*
X10625Y12572D01*
X10635Y12576D01*
X10643Y12581D01*
X10648Y12584D01*
X10649Y12585D01*
X10660Y12595D01*
X10672Y12607D01*
X10680Y12620D01*
X10686Y12631D01*
X10691Y12643D01*
X10696Y12651D01*
X10697Y12657D01*
X10698Y12660D01*
X10701Y12675D01*
X10704Y12695D01*
X10705Y12715D01*
X10707Y12734D01*
X10708Y12753D01*
Y12768D01*
Y12774D01*
Y12778D01*
Y12781D01*
Y12782D01*
Y12992D01*
D02*
G37*
G36*
X14010Y16412D02*
X14003D01*
X13994Y16410D01*
X13982Y16408D01*
X13969Y16404D01*
X13957Y16399D01*
X13944Y16391D01*
X13932Y16380D01*
X13931Y16378D01*
X13927Y16375D01*
X13923Y16367D01*
X13916Y16358D01*
X13910Y16347D01*
X13907Y16334D01*
X13903Y16317D01*
X13901Y16301D01*
Y16299D01*
Y16297D01*
X13903Y16286D01*
X13907Y16273D01*
X13916Y16256D01*
Y16254D01*
X13918Y16252D01*
X13925Y16243D01*
X13936Y16234D01*
X13949Y16226D01*
X13951D01*
X13955Y16225D01*
X13960Y16223D01*
X13968Y16219D01*
X13990Y16210D01*
X14016Y16199D01*
X14044Y16186D01*
X14073Y16169D01*
X14101Y16152D01*
X14125Y16134D01*
X14127Y16132D01*
X14134Y16125D01*
X14142Y16114D01*
X14153Y16097D01*
X14162Y16076D01*
X14171Y16052D01*
X14179Y16023D01*
X14181Y15991D01*
Y15989D01*
Y15982D01*
X14179Y15973D01*
X14177Y15960D01*
X14175Y15943D01*
X14169Y15926D01*
X14164Y15910D01*
X14156Y15891D01*
X14155Y15889D01*
X14151Y15884D01*
X14145Y15875D01*
X14138Y15864D01*
X14127Y15851D01*
X14114Y15838D01*
X14097Y15825D01*
X14081Y15812D01*
X14079Y15810D01*
X14071Y15806D01*
X14060Y15801D01*
X14045Y15795D01*
X14029Y15789D01*
X14008Y15784D01*
X13986Y15780D01*
X13962Y15778D01*
X13945D01*
X13927Y15782D01*
X13905Y15786D01*
X13881Y15791D01*
X13855Y15802D01*
X13829Y15815D01*
X13807Y15834D01*
X13805Y15836D01*
X13797Y15843D01*
X13788Y15856D01*
X13777Y15873D01*
X13768Y15893D01*
X13758Y15919D01*
X13751Y15951D01*
X13749Y15984D01*
Y15988D01*
Y15997D01*
X13751Y16014D01*
X13753Y16036D01*
Y16038D01*
Y16041D01*
X13755Y16047D01*
Y16054D01*
X13757Y16071D01*
Y16076D01*
Y16082D01*
Y16084D01*
Y16089D01*
X13755Y16099D01*
X13753Y16108D01*
X13747Y16132D01*
X13742Y16143D01*
X13734Y16154D01*
X13732Y16156D01*
X13731Y16158D01*
X13725Y16162D01*
X13718Y16165D01*
X13708Y16171D01*
X13697Y16175D01*
X13684Y16176D01*
X13670Y16178D01*
X13662D01*
X13655Y16176D01*
X13645Y16175D01*
X13636Y16171D01*
X13625Y16165D01*
X13614Y16158D01*
X13605Y16149D01*
X13603Y16147D01*
X13601Y16143D01*
X13597Y16136D01*
X13592Y16125D01*
X13586Y16114D01*
X13582Y16097D01*
X13581Y16078D01*
X13579Y16058D01*
Y16023D01*
Y16019D01*
Y16010D01*
X13577Y15995D01*
X13573Y15976D01*
X13568Y15956D01*
X13560Y15934D01*
X13549Y15912D01*
X13534Y15889D01*
X13532Y15888D01*
X13525Y15880D01*
X13516Y15871D01*
X13501Y15862D01*
X13483Y15851D01*
X13458Y15843D01*
X13432Y15836D01*
X13403Y15834D01*
X13392D01*
X13381Y15836D01*
X13364Y15839D01*
X13347Y15845D01*
X13329Y15852D01*
X13310Y15864D01*
X13292Y15878D01*
X13290Y15880D01*
X13284Y15886D01*
X13277Y15897D01*
X13268Y15910D01*
X13258Y15926D01*
X13251Y15949D01*
X13245Y15971D01*
X13244Y15999D01*
Y16001D01*
Y16008D01*
Y16017D01*
X13245Y16028D01*
X13249Y16056D01*
X13258Y16084D01*
Y16086D01*
X13260Y16089D01*
X13264Y16095D01*
X13270Y16102D01*
X13281Y16121D01*
X13297Y16138D01*
X13299D01*
X13301Y16141D01*
X13307Y16145D01*
X13314Y16149D01*
X13333Y16160D01*
X13358Y16173D01*
X13360D01*
X13364Y16175D01*
X13371Y16178D01*
X13381Y16182D01*
X13403Y16193D01*
X13427Y16204D01*
X13431Y16206D01*
X13438Y16212D01*
X13447Y16221D01*
X13457Y16236D01*
X13458Y16239D01*
X13460Y16249D01*
X13464Y16265D01*
X13466Y16286D01*
Y16288D01*
Y16291D01*
X13464Y16299D01*
X13462Y16306D01*
X13458Y16315D01*
X13455Y16326D01*
X13447Y16338D01*
X13438Y16349D01*
X13436Y16351D01*
X13432Y16352D01*
X13427Y16358D01*
X13418Y16362D01*
X13408Y16367D01*
X13395Y16373D01*
X13383Y16375D01*
X13366Y16376D01*
X13358D01*
X13349Y16375D01*
X13338Y16373D01*
X13323Y16371D01*
X13308Y16365D01*
X13292Y16360D01*
X13273Y16351D01*
X13271Y16349D01*
X13266Y16345D01*
X13255Y16339D01*
X13244Y16330D01*
X13229Y16319D01*
X13214Y16306D01*
X13197Y16291D01*
X13181Y16273D01*
X13179Y16271D01*
X13173Y16263D01*
X13166Y16252D01*
X13155Y16238D01*
X13144Y16219D01*
X13133Y16197D01*
X13121Y16173D01*
X13110Y16145D01*
X13108Y16141D01*
X13107Y16132D01*
X13101Y16115D01*
X13095Y16095D01*
X13092Y16069D01*
X13086Y16041D01*
X13084Y16010D01*
X13083Y15975D01*
Y15973D01*
Y15971D01*
Y15962D01*
X13084Y15945D01*
X13086Y15925D01*
X13088Y15902D01*
X13092Y15878D01*
X13099Y15852D01*
X13107Y15826D01*
X13108Y15823D01*
X13110Y15815D01*
X13116Y15802D01*
X13123Y15786D01*
X13133Y15767D01*
X13144Y15747D01*
X13157Y15727D01*
X13171Y15708D01*
X13173Y15706D01*
X13179Y15701D01*
X13188Y15691D01*
X13199Y15680D01*
X13212Y15667D01*
X13229Y15656D01*
X13247Y15643D01*
X13268Y15634D01*
X13270Y15632D01*
X13277Y15630D01*
X13288Y15627D01*
X13303Y15621D01*
X13321Y15615D01*
X13342Y15612D01*
X13364Y15610D01*
X13388Y15608D01*
X13403D01*
X13418Y15610D01*
X13438Y15612D01*
X13460Y15617D01*
X13484Y15623D01*
X13508Y15632D01*
X13532Y15645D01*
X13534Y15647D01*
X13544Y15652D01*
X13555Y15660D01*
X13570Y15673D01*
X13588Y15688D01*
X13608Y15704D01*
X13629Y15727D01*
X13651Y15751D01*
X13653Y15747D01*
X13657Y15739D01*
X13664Y15727D01*
X13675Y15712D01*
X13686Y15693D01*
X13701Y15675D01*
X13716Y15656D01*
X13732Y15639D01*
X13734Y15638D01*
X13740Y15632D01*
X13749Y15623D01*
X13762Y15614D01*
X13777Y15602D01*
X13794Y15591D01*
X13812Y15580D01*
X13832Y15571D01*
X13834Y15569D01*
X13842Y15567D01*
X13853Y15564D01*
X13868Y15558D01*
X13884Y15554D01*
X13905Y15551D01*
X13927Y15549D01*
X13951Y15547D01*
X13964D01*
X13979Y15549D01*
X13997Y15551D01*
X14021Y15554D01*
X14045Y15560D01*
X14071Y15567D01*
X14099Y15578D01*
X14103Y15580D01*
X14112Y15584D01*
X14125Y15591D01*
X14142Y15602D01*
X14162Y15615D01*
X14184Y15630D01*
X14205Y15649D01*
X14227Y15671D01*
X14229Y15673D01*
X14236Y15682D01*
X14245Y15693D01*
X14258Y15710D01*
X14273Y15732D01*
X14286Y15756D01*
X14301Y15782D01*
X14314Y15812D01*
X14316Y15815D01*
X14319Y15826D01*
X14323Y15843D01*
X14329Y15865D01*
X14336Y15891D01*
X14340Y15923D01*
X14344Y15956D01*
X14345Y15993D01*
Y15995D01*
Y15997D01*
Y16002D01*
Y16010D01*
X14344Y16030D01*
X14342Y16054D01*
X14336Y16082D01*
X14331Y16114D01*
X14321Y16143D01*
X14310Y16175D01*
X14308Y16178D01*
X14303Y16188D01*
X14295Y16202D01*
X14284Y16221D01*
X14271Y16241D01*
X14256Y16263D01*
X14238Y16286D01*
X14219Y16306D01*
X14218Y16308D01*
X14210Y16315D01*
X14199Y16325D01*
X14186Y16336D01*
X14169Y16349D01*
X14149Y16362D01*
X14129Y16375D01*
X14108Y16386D01*
X14106Y16388D01*
X14099Y16389D01*
X14088Y16393D01*
X14073Y16399D01*
X14042Y16408D01*
X14025Y16410D01*
X14010Y16412D01*
D02*
G37*
G36*
X10873Y13852D02*
X10588Y13747D01*
X10553Y13734D01*
X10519Y13724D01*
X10488Y13714D01*
X10460Y13707D01*
X10436Y13701D01*
X10426Y13699D01*
X10416Y13697D01*
X10411Y13694D01*
X10405D01*
X10402Y13693D01*
X10401D01*
X10433Y13683D01*
X10467Y13672D01*
X10501Y13661D01*
X10533Y13649D01*
X10548Y13644D01*
X10562Y13639D01*
X10574Y13635D01*
X10584Y13631D01*
X10593Y13628D01*
X10600Y13625D01*
X10604Y13624D01*
X10605D01*
X10873Y13522D01*
Y13852D01*
D02*
G37*
G36*
X13514Y15360D02*
X13507D01*
X13499Y15358D01*
X13490Y15356D01*
X13470Y15349D01*
X13460Y15343D01*
X13451Y15334D01*
X13449Y15332D01*
X13447Y15328D01*
X13444Y15321D01*
X13436Y15312D01*
X13429Y15299D01*
X13420Y15282D01*
X13408Y15262D01*
X13397Y15238D01*
Y15236D01*
X13395Y15234D01*
X13392Y15228D01*
X13388Y15221D01*
X13379Y15202D01*
X13366Y15178D01*
X13351Y15152D01*
X13334Y15127D01*
X13316Y15099D01*
X13297Y15075D01*
X13295Y15073D01*
X13288Y15064D01*
X13277Y15052D01*
X13262Y15038D01*
X13245Y15021D01*
X13225Y15004D01*
X13203Y14986D01*
X13179Y14967D01*
X13175Y14965D01*
X13168Y14960D01*
X13157Y14951D01*
X13144Y14941D01*
X13129Y14930D01*
X13116Y14921D01*
X13105Y14912D01*
X13097Y14904D01*
X13095Y14901D01*
X13088Y14891D01*
X13086Y14884D01*
X13083Y14875D01*
X13081Y14864D01*
Y14851D01*
Y14849D01*
Y14843D01*
X13083Y14836D01*
X13084Y14825D01*
X13090Y14814D01*
X13095Y14801D01*
X13105Y14790D01*
X13116Y14778D01*
X13118Y14777D01*
X13121Y14775D01*
X13131Y14769D01*
X13142Y14764D01*
X13155Y14760D01*
X13171Y14754D01*
X13190Y14753D01*
X13212Y14751D01*
X14192D01*
X14203Y14753D01*
X14216Y14754D01*
X14231Y14756D01*
X14260Y14766D01*
X14292Y14778D01*
X14306Y14788D01*
X14319Y14801D01*
X14331Y14814D01*
X14338Y14828D01*
X14344Y14847D01*
X14345Y14867D01*
Y14869D01*
Y14877D01*
X14344Y14886D01*
X14342Y14897D01*
X14338Y14910D01*
X14331Y14925D01*
X14323Y14938D01*
X14312Y14951D01*
X14310Y14953D01*
X14305Y14954D01*
X14297Y14960D01*
X14286Y14965D01*
X14271Y14971D01*
X14255Y14975D01*
X14234Y14978D01*
X14210Y14980D01*
X13442D01*
X13444Y14982D01*
X13449Y14990D01*
X13457Y15001D01*
X13468Y15015D01*
X13481Y15032D01*
X13494Y15052D01*
X13508Y15073D01*
X13523Y15097D01*
X13555Y15145D01*
X13568Y15169D01*
X13581Y15193D01*
X13592Y15215D01*
X13599Y15236D01*
X13605Y15254D01*
X13607Y15269D01*
Y15271D01*
Y15275D01*
X13605Y15282D01*
X13603Y15290D01*
X13599Y15301D01*
X13595Y15310D01*
X13588Y15321D01*
X13579Y15332D01*
X13577Y15334D01*
X13573Y15336D01*
X13568Y15341D01*
X13560Y15345D01*
X13540Y15356D01*
X13527Y15358D01*
X13514Y15360D01*
D02*
G37*
G36*
X13769Y20072D02*
X13688D01*
X13657Y20070D01*
X13621Y20069D01*
X13582Y20067D01*
X13544Y20063D01*
X13505Y20059D01*
X13499D01*
X13495Y20058D01*
X13488D01*
X13468Y20054D01*
X13444Y20048D01*
X13416Y20043D01*
X13386Y20035D01*
X13357Y20028D01*
X13327Y20017D01*
X13325D01*
X13321Y20015D01*
X13316Y20011D01*
X13307Y20008D01*
X13286Y19996D01*
X13258Y19982D01*
X13229Y19961D01*
X13199Y19937D01*
X13170Y19908D01*
X13144Y19874D01*
Y19872D01*
X13140Y19871D01*
X13138Y19865D01*
X13133Y19858D01*
X13129Y19848D01*
X13123Y19837D01*
X13110Y19809D01*
X13099Y19776D01*
X13088Y19737D01*
X13081Y19695D01*
X13079Y19646D01*
Y19645D01*
Y19643D01*
Y19632D01*
X13081Y19615D01*
X13083Y19595D01*
X13086Y19571D01*
X13092Y19543D01*
X13099Y19517D01*
X13108Y19489D01*
X13110Y19485D01*
X13114Y19478D01*
X13120Y19463D01*
X13129Y19446D01*
X13142Y19428D01*
X13155Y19408D01*
X13171Y19385D01*
X13192Y19365D01*
X13194Y19363D01*
X13201Y19356D01*
X13212Y19347D01*
X13229Y19334D01*
X13247Y19319D01*
X13271Y19304D01*
X13297Y19289D01*
X13325Y19274D01*
X13327D01*
X13331Y19271D01*
X13340Y19269D01*
X13351Y19263D01*
X13366Y19259D01*
X13383Y19254D01*
X13403Y19248D01*
X13427Y19241D01*
X13453Y19235D01*
X13483Y19230D01*
X13514Y19224D01*
X13549Y19219D01*
X13588Y19215D01*
X13629Y19211D01*
X13673Y19209D01*
X13768D01*
X13801Y19211D01*
X13838Y19213D01*
X13877Y19217D01*
X13918Y19222D01*
X13957Y19228D01*
X13960D01*
X13966Y19230D01*
X13973Y19232D01*
X13992Y19235D01*
X14016Y19241D01*
X14045Y19250D01*
X14075Y19261D01*
X14106Y19274D01*
X14138Y19289D01*
X14140D01*
X14142Y19291D01*
X14147Y19295D01*
X14155Y19300D01*
X14171Y19311D01*
X14194Y19330D01*
X14218Y19350D01*
X14244Y19376D01*
X14268Y19406D01*
X14290Y19439D01*
Y19441D01*
X14292Y19443D01*
X14295Y19448D01*
X14297Y19456D01*
X14306Y19474D01*
X14316Y19498D01*
X14327Y19528D01*
X14334Y19563D01*
X14342Y19600D01*
X14344Y19641D01*
Y19643D01*
Y19646D01*
Y19654D01*
X14342Y19663D01*
Y19674D01*
X14340Y19687D01*
X14334Y19717D01*
X14325Y19754D01*
X14314Y19791D01*
X14295Y19832D01*
X14271Y19871D01*
Y19872D01*
X14268Y19874D01*
X14264Y19880D01*
X14258Y19887D01*
X14242Y19906D01*
X14219Y19926D01*
X14190Y19952D01*
X14156Y19976D01*
X14116Y20000D01*
X14071Y20022D01*
X14068Y20024D01*
X14058Y20026D01*
X14045Y20032D01*
X14025Y20037D01*
X14003Y20043D01*
X13977Y20050D01*
X13947Y20056D01*
X13918Y20061D01*
X13914D01*
X13903Y20063D01*
X13886Y20065D01*
X13862Y20067D01*
X13834Y20069D01*
X13803Y20070D01*
X13769Y20072D01*
D02*
G37*
G36*
X14234Y21350D02*
X14231D01*
X14218Y21348D01*
X14201Y21346D01*
X14182Y21343D01*
X14181D01*
X14177Y21341D01*
X14171Y21339D01*
X14162Y21335D01*
X14151Y21331D01*
X14138Y21328D01*
X14123Y21320D01*
X14106Y21315D01*
X13303Y20998D01*
X13301D01*
X13297Y20996D01*
X13290Y20993D01*
X13281Y20989D01*
X13268Y20985D01*
X13255Y20980D01*
X13221Y20967D01*
X13220Y20965D01*
X13212Y20963D01*
X13205Y20959D01*
X13192Y20954D01*
X13166Y20941D01*
X13140Y20926D01*
X13138Y20924D01*
X13134Y20922D01*
X13129Y20917D01*
X13121Y20911D01*
X13105Y20893D01*
X13088Y20869D01*
X13086Y20867D01*
X13084Y20863D01*
X13081Y20854D01*
X13077Y20844D01*
X13073Y20832D01*
X13071Y20817D01*
X13068Y20800D01*
Y20782D01*
Y20780D01*
Y20772D01*
X13070Y20763D01*
Y20752D01*
X13077Y20722D01*
X13081Y20707D01*
X13088Y20695D01*
Y20693D01*
X13092Y20689D01*
X13095Y20682D01*
X13103Y20674D01*
X13118Y20656D01*
X13140Y20639D01*
X13142Y20637D01*
X13145Y20635D01*
X13151Y20632D01*
X13160Y20626D01*
X13181Y20613D01*
X13207Y20602D01*
X13208D01*
X13212Y20600D01*
X13221Y20596D01*
X13233Y20591D01*
X13245Y20587D01*
X13262Y20580D01*
X13281Y20572D01*
X13303Y20565D01*
X14099Y20241D01*
X14101D01*
X14103Y20239D01*
X14114Y20235D01*
X14131Y20228D01*
X14149Y20220D01*
X14171Y20215D01*
X14194Y20208D01*
X14214Y20204D01*
X14232Y20202D01*
X14240D01*
X14247Y20204D01*
X14258Y20206D01*
X14269Y20211D01*
X14282Y20217D01*
X14297Y20226D01*
X14310Y20239D01*
X14312Y20241D01*
X14316Y20245D01*
X14321Y20252D01*
X14327Y20263D01*
X14334Y20276D01*
X14340Y20291D01*
X14344Y20308D01*
X14345Y20326D01*
Y20328D01*
Y20332D01*
Y20337D01*
X14344Y20343D01*
X14340Y20359D01*
X14334Y20376D01*
X14332Y20380D01*
X14327Y20387D01*
X14319Y20400D01*
X14306Y20411D01*
X14303Y20413D01*
X14292Y20420D01*
X14275Y20432D01*
X14251Y20443D01*
X14249D01*
X14245Y20445D01*
X14238Y20448D01*
X14229Y20452D01*
X14206Y20461D01*
X14184Y20470D01*
X14029Y20530D01*
Y21033D01*
X14188Y21093D01*
X14190D01*
X14192Y21094D01*
X14203Y21098D01*
X14219Y21104D01*
X14238Y21113D01*
X14260Y21122D01*
X14281Y21132D01*
X14299Y21143D01*
X14314Y21152D01*
X14316Y21154D01*
X14319Y21156D01*
X14323Y21163D01*
X14329Y21170D01*
X14336Y21181D01*
X14340Y21196D01*
X14344Y21213D01*
X14345Y21231D01*
Y21233D01*
Y21239D01*
X14344Y21248D01*
X14342Y21259D01*
X14338Y21272D01*
X14331Y21285D01*
X14323Y21300D01*
X14312Y21315D01*
X14310Y21317D01*
X14306Y21320D01*
X14299Y21326D01*
X14290Y21331D01*
X14277Y21339D01*
X14264Y21344D01*
X14249Y21348D01*
X14234Y21350D01*
D02*
G37*
G36*
X13969Y19052D02*
X13960D01*
X13947Y19050D01*
X13932Y19048D01*
X13914Y19045D01*
X13894Y19041D01*
X13871Y19034D01*
X13845Y19026D01*
X13821Y19015D01*
X13795Y19000D01*
X13769Y18984D01*
X13744Y18961D01*
X13720Y18937D01*
X13697Y18910D01*
X13677Y18876D01*
X13660Y18839D01*
X13658Y18841D01*
X13657Y18847D01*
X13651Y18856D01*
X13645Y18865D01*
X13636Y18880D01*
X13625Y18893D01*
X13612Y18910D01*
X13597Y18924D01*
X13581Y18941D01*
X13562Y18958D01*
X13540Y18971D01*
X13518Y18984D01*
X13492Y18995D01*
X13464Y19004D01*
X13434Y19010D01*
X13403Y19011D01*
X13388D01*
X13373Y19010D01*
X13351Y19006D01*
X13327Y19000D01*
X13301Y18991D01*
X13273Y18980D01*
X13245Y18965D01*
X13242Y18963D01*
X13233Y18956D01*
X13220Y18947D01*
X13201Y18930D01*
X13183Y18911D01*
X13162Y18889D01*
X13144Y18861D01*
X13125Y18830D01*
Y18828D01*
X13123Y18826D01*
X13121Y18821D01*
X13118Y18813D01*
X13110Y18795D01*
X13101Y18771D01*
X13094Y18741D01*
X13086Y18704D01*
X13081Y18665D01*
X13079Y18623D01*
Y18621D01*
Y18619D01*
Y18613D01*
Y18606D01*
X13081Y18587D01*
X13083Y18563D01*
X13086Y18535D01*
X13090Y18506D01*
X13097Y18476D01*
X13107Y18447D01*
X13108Y18443D01*
X13112Y18434D01*
X13118Y18421D01*
X13125Y18402D01*
X13136Y18382D01*
X13147Y18361D01*
X13162Y18341D01*
X13179Y18321D01*
X13181Y18319D01*
X13186Y18311D01*
X13197Y18302D01*
X13208Y18291D01*
X13225Y18280D01*
X13242Y18267D01*
X13262Y18254D01*
X13283Y18245D01*
X13284Y18243D01*
X13292Y18241D01*
X13305Y18237D01*
X13320Y18232D01*
X13338Y18228D01*
X13358Y18224D01*
X13381Y18223D01*
X13405Y18221D01*
X13420D01*
X13434Y18223D01*
X13455Y18226D01*
X13477Y18232D01*
X13503Y18239D01*
X13527Y18248D01*
X13553Y18263D01*
X13557Y18265D01*
X13564Y18271D01*
X13575Y18282D01*
X13590Y18295D01*
X13608Y18313D01*
X13625Y18334D01*
X13644Y18360D01*
X13660Y18389D01*
X13662Y18385D01*
X13666Y18378D01*
X13671Y18365D01*
X13679Y18348D01*
X13690Y18330D01*
X13703Y18310D01*
X13716Y18289D01*
X13732Y18271D01*
X13734Y18269D01*
X13740Y18263D01*
X13749Y18254D01*
X13762Y18243D01*
X13777Y18232D01*
X13795Y18221D01*
X13814Y18208D01*
X13836Y18198D01*
X13838Y18197D01*
X13847Y18195D01*
X13858Y18191D01*
X13875Y18186D01*
X13894Y18182D01*
X13916Y18178D01*
X13942Y18176D01*
X13968Y18174D01*
X13986D01*
X14007Y18176D01*
X14032Y18180D01*
X14062Y18187D01*
X14095Y18197D01*
X14129Y18210D01*
X14162Y18226D01*
X14166Y18228D01*
X14177Y18236D01*
X14192Y18248D01*
X14210Y18265D01*
X14232Y18285D01*
X14255Y18311D01*
X14275Y18343D01*
X14295Y18378D01*
Y18380D01*
X14297Y18382D01*
X14299Y18387D01*
X14303Y18397D01*
X14306Y18406D01*
X14310Y18417D01*
X14319Y18445D01*
X14329Y18480D01*
X14336Y18519D01*
X14342Y18565D01*
X14344Y18613D01*
Y18615D01*
Y18619D01*
Y18626D01*
Y18637D01*
X14342Y18648D01*
Y18663D01*
X14338Y18695D01*
X14332Y18732D01*
X14323Y18772D01*
X14312Y18813D01*
X14295Y18852D01*
Y18854D01*
X14294Y18856D01*
X14290Y18861D01*
X14286Y18869D01*
X14275Y18885D01*
X14260Y18908D01*
X14242Y18932D01*
X14219Y18958D01*
X14192Y18982D01*
X14162Y19002D01*
X14160D01*
X14158Y19004D01*
X14147Y19010D01*
X14129Y19019D01*
X14106Y19026D01*
X14077Y19035D01*
X14045Y19045D01*
X14008Y19050D01*
X13969Y19052D01*
D02*
G37*
G36*
X13877Y18067D02*
X13869D01*
X13860Y18065D01*
X13851Y18063D01*
X13838Y18060D01*
X13827Y18054D01*
X13814Y18047D01*
X13803Y18037D01*
X13801Y18036D01*
X13797Y18032D01*
X13794Y18024D01*
X13788Y18013D01*
X13782Y18000D01*
X13777Y17984D01*
X13775Y17965D01*
X13773Y17943D01*
Y17676D01*
Y17674D01*
Y17667D01*
X13775Y17656D01*
X13777Y17641D01*
X13781Y17626D01*
X13786Y17611D01*
X13794Y17597D01*
X13803Y17584D01*
X13805Y17582D01*
X13808Y17578D01*
X13814Y17574D01*
X13823Y17567D01*
X13832Y17562D01*
X13845Y17558D01*
X13860Y17554D01*
X13877Y17552D01*
X13884D01*
X13892Y17554D01*
X13903Y17556D01*
X13914Y17560D01*
X13927Y17565D01*
X13938Y17573D01*
X13949Y17584D01*
X13951Y17586D01*
X13953Y17589D01*
X13958Y17597D01*
X13962Y17606D01*
X13968Y17619D01*
X13973Y17636D01*
X13975Y17654D01*
X13977Y17676D01*
Y17943D01*
Y17945D01*
Y17952D01*
X13975Y17963D01*
X13973Y17978D01*
X13969Y17993D01*
X13966Y18008D01*
X13958Y18023D01*
X13949Y18036D01*
X13947Y18037D01*
X13944Y18041D01*
X13938Y18045D01*
X13929Y18050D01*
X13919Y18058D01*
X13907Y18061D01*
X13894Y18065D01*
X13877Y18067D01*
D02*
G37*
G36*
X11159Y12992D02*
X10824D01*
Y12768D01*
Y12736D01*
X10827Y12706D01*
X10830Y12682D01*
X10832Y12662D01*
X10835Y12647D01*
X10838Y12634D01*
X10839Y12629D01*
X10841Y12626D01*
X10848Y12607D01*
X10856Y12592D01*
X10866Y12578D01*
X10876Y12567D01*
X10885Y12558D01*
X10892Y12552D01*
X10897Y12548D01*
X10899Y12547D01*
X10914Y12537D01*
X10930Y12530D01*
X10945Y12524D01*
X10959Y12521D01*
X10972Y12519D01*
X10983Y12517D01*
X10992D01*
X11009Y12519D01*
X11025Y12520D01*
X11040Y12523D01*
X11051Y12527D01*
X11061Y12531D01*
X11069Y12534D01*
X11073Y12536D01*
X11075Y12537D01*
X11088Y12545D01*
X11099Y12552D01*
X11107Y12562D01*
X11116Y12569D01*
X11121Y12576D01*
X11126Y12582D01*
X11128Y12586D01*
X11130Y12588D01*
X11141Y12612D01*
X11150Y12636D01*
X11152Y12646D01*
X11154Y12654D01*
X11155Y12660D01*
Y12661D01*
X11157Y12672D01*
X11158Y12685D01*
X11159Y12715D01*
Y12729D01*
Y12740D01*
Y12747D01*
Y12748D01*
Y12750D01*
Y12992D01*
D02*
G37*
G36*
X10873Y15899D02*
X10588Y15793D01*
X10553Y15781D01*
X10519Y15771D01*
X10488Y15761D01*
X10460Y15754D01*
X10436Y15748D01*
X10426Y15745D01*
X10416Y15744D01*
X10411Y15741D01*
X10405D01*
X10402Y15740D01*
X10401D01*
X10433Y15730D01*
X10467Y15719D01*
X10501Y15707D01*
X10533Y15696D01*
X10548Y15690D01*
X10562Y15686D01*
X10574Y15682D01*
X10584Y15678D01*
X10593Y15675D01*
X10600Y15672D01*
X10604Y15671D01*
X10605D01*
X10873Y15569D01*
Y15899D01*
D02*
G37*
G36*
X10763Y18745D02*
X10415D01*
Y18497D01*
Y18466D01*
X10416Y18441D01*
X10418Y18420D01*
X10419Y18403D01*
X10422Y18391D01*
X10424Y18383D01*
X10425Y18377D01*
Y18376D01*
X10432Y18358D01*
X10440Y18342D01*
X10449Y18328D01*
X10459Y18315D01*
X10469Y18307D01*
X10476Y18300D01*
X10481Y18296D01*
X10483Y18294D01*
X10500Y18284D01*
X10517Y18276D01*
X10535Y18270D01*
X10550Y18267D01*
X10565Y18265D01*
X10577Y18263D01*
X10587D01*
X10617Y18266D01*
X10642Y18272D01*
X10665Y18280D01*
X10683Y18290D01*
X10697Y18300D01*
X10708Y18308D01*
X10714Y18314D01*
X10717Y18317D01*
X10725Y18327D01*
X10732Y18339D01*
X10744Y18366D01*
X10752Y18396D01*
X10758Y18425D01*
X10760Y18452D01*
X10762Y18463D01*
Y18473D01*
X10763Y18483D01*
Y18489D01*
Y18493D01*
Y18494D01*
Y18745D01*
D02*
G37*
G36*
X13521Y10664D02*
X13507D01*
X13495Y10662D01*
X13481Y10659D01*
X13464Y10651D01*
X13462D01*
X13460Y10649D01*
X13449Y10640D01*
X13438Y10629D01*
X13425Y10612D01*
Y10610D01*
X13423Y10609D01*
X13420Y10603D01*
X13418Y10596D01*
X13412Y10577D01*
X13410Y10557D01*
Y10555D01*
Y10547D01*
X13412Y10538D01*
X13414Y10525D01*
X13418Y10512D01*
X13425Y10499D01*
X13432Y10488D01*
X13444Y10479D01*
X13445Y10477D01*
X13449Y10475D01*
X13458Y10470D01*
X13470Y10464D01*
X13486Y10457D01*
X13505Y10449D01*
X13527Y10440D01*
X13555Y10431D01*
X14077Y10244D01*
X13532Y10044D01*
X13529Y10042D01*
X13521Y10040D01*
X13510Y10035D01*
X13495Y10029D01*
X13464Y10014D01*
X13449Y10005D01*
X13438Y9997D01*
X13436Y9996D01*
X13434Y9994D01*
X13429Y9988D01*
X13423Y9979D01*
X13420Y9970D01*
X13414Y9957D01*
X13412Y9944D01*
X13410Y9927D01*
Y9925D01*
Y9920D01*
X13412Y9912D01*
X13414Y9901D01*
X13418Y9890D01*
X13423Y9877D01*
X13431Y9866D01*
X13440Y9853D01*
X13442Y9851D01*
X13445Y9847D01*
X13451Y9844D01*
X13460Y9836D01*
X13481Y9827D01*
X13494Y9823D01*
X13508Y9822D01*
X13518D01*
X13529Y9823D01*
X13544Y9827D01*
X13547D01*
X13557Y9831D01*
X13568Y9835D01*
X13582Y9840D01*
X13586Y9842D01*
X13594Y9846D01*
X13607Y9849D01*
X13623Y9857D01*
X14169Y10077D01*
X14171D01*
X14173Y10079D01*
X14179Y10081D01*
X14186Y10083D01*
X14205Y10092D01*
X14231Y10101D01*
X14232D01*
X14236Y10103D01*
X14244Y10107D01*
X14251Y10110D01*
X14271Y10122D01*
X14292Y10134D01*
X14294D01*
X14295Y10138D01*
X14306Y10147D01*
X14319Y10162D01*
X14331Y10181D01*
Y10183D01*
X14332Y10184D01*
X14334Y10190D01*
X14338Y10197D01*
X14344Y10218D01*
X14345Y10244D01*
Y10246D01*
Y10251D01*
X14344Y10260D01*
X14342Y10272D01*
X14336Y10297D01*
X14331Y10310D01*
X14323Y10322D01*
X14321Y10323D01*
X14319Y10327D01*
X14308Y10338D01*
X14294Y10353D01*
X14275Y10366D01*
X14273D01*
X14269Y10368D01*
X14262Y10372D01*
X14253Y10377D01*
X14238Y10383D01*
X14219Y10390D01*
X14197Y10401D01*
X14169Y10412D01*
X13629Y10631D01*
X13627D01*
X13625Y10633D01*
X13616Y10636D01*
X13603Y10640D01*
X13588Y10647D01*
X13586D01*
X13584Y10649D01*
X13575Y10651D01*
X13562Y10657D01*
X13547Y10660D01*
X13544D01*
X13534Y10662D01*
X13521Y10664D01*
D02*
G37*
G36*
X13514Y9235D02*
X13507D01*
X13499Y9233D01*
X13490Y9231D01*
X13470Y9223D01*
X13460Y9218D01*
X13451Y9209D01*
X13449Y9207D01*
X13447Y9203D01*
X13444Y9196D01*
X13436Y9186D01*
X13429Y9173D01*
X13420Y9157D01*
X13408Y9136D01*
X13397Y9112D01*
Y9111D01*
X13395Y9109D01*
X13392Y9103D01*
X13388Y9096D01*
X13379Y9077D01*
X13366Y9053D01*
X13351Y9027D01*
X13334Y9001D01*
X13316Y8974D01*
X13297Y8949D01*
X13295Y8948D01*
X13288Y8938D01*
X13277Y8927D01*
X13262Y8912D01*
X13245Y8896D01*
X13225Y8879D01*
X13203Y8861D01*
X13179Y8842D01*
X13175Y8840D01*
X13168Y8835D01*
X13157Y8825D01*
X13144Y8816D01*
X13129Y8805D01*
X13116Y8796D01*
X13105Y8786D01*
X13097Y8779D01*
X13095Y8775D01*
X13088Y8766D01*
X13086Y8759D01*
X13083Y8749D01*
X13081Y8738D01*
Y8725D01*
Y8724D01*
Y8718D01*
X13083Y8711D01*
X13084Y8699D01*
X13090Y8688D01*
X13095Y8675D01*
X13105Y8664D01*
X13116Y8653D01*
X13118Y8651D01*
X13121Y8649D01*
X13131Y8644D01*
X13142Y8638D01*
X13155Y8635D01*
X13171Y8629D01*
X13190Y8627D01*
X13212Y8625D01*
X14192D01*
X14203Y8627D01*
X14216Y8629D01*
X14231Y8631D01*
X14260Y8640D01*
X14292Y8653D01*
X14306Y8662D01*
X14319Y8675D01*
X14331Y8688D01*
X14338Y8703D01*
X14344Y8722D01*
X14345Y8742D01*
Y8744D01*
Y8751D01*
X14344Y8761D01*
X14342Y8772D01*
X14338Y8785D01*
X14331Y8799D01*
X14323Y8812D01*
X14312Y8825D01*
X14310Y8827D01*
X14305Y8829D01*
X14297Y8835D01*
X14286Y8840D01*
X14271Y8846D01*
X14255Y8849D01*
X14234Y8853D01*
X14210Y8855D01*
X13442D01*
X13444Y8857D01*
X13449Y8864D01*
X13457Y8875D01*
X13468Y8890D01*
X13481Y8907D01*
X13494Y8927D01*
X13508Y8948D01*
X13523Y8972D01*
X13555Y9020D01*
X13568Y9044D01*
X13581Y9068D01*
X13592Y9090D01*
X13599Y9111D01*
X13605Y9129D01*
X13607Y9144D01*
Y9146D01*
Y9149D01*
X13605Y9157D01*
X13603Y9164D01*
X13599Y9175D01*
X13595Y9185D01*
X13588Y9196D01*
X13579Y9207D01*
X13577Y9209D01*
X13573Y9211D01*
X13568Y9216D01*
X13560Y9220D01*
X13540Y9231D01*
X13527Y9233D01*
X13514Y9235D01*
D02*
G37*
G36*
X17184Y15347D02*
X17658Y14903D01*
X18036Y15277D01*
X17184Y15347D01*
D02*
G37*
G36*
X16647Y15395D02*
X16636Y15392D01*
X16629Y15388D01*
X16622Y15384D01*
X16618Y15381D01*
X16599Y15366D01*
X16585Y15344D01*
X16573Y15329D01*
X16570Y15321D01*
X16647D01*
Y15395D01*
D02*
G37*
G36*
X13877Y11662D02*
X13860D01*
X13840Y11660D01*
X13816Y11658D01*
X13786Y11655D01*
X13755Y11649D01*
X13721Y11642D01*
X13688Y11632D01*
X13686D01*
X13684Y11631D01*
X13673Y11627D01*
X13657Y11620D01*
X13636Y11610D01*
X13614Y11597D01*
X13588Y11582D01*
X13562Y11566D01*
X13538Y11545D01*
X13534Y11544D01*
X13527Y11534D01*
X13516Y11521D01*
X13503Y11505D01*
X13486Y11484D01*
X13471Y11460D01*
X13455Y11433D01*
X13442Y11401D01*
Y11399D01*
X13440Y11397D01*
X13436Y11386D01*
X13431Y11368D01*
X13425Y11345D01*
X13420Y11318D01*
X13414Y11286D01*
X13410Y11249D01*
X13408Y11212D01*
Y11210D01*
Y11207D01*
Y11199D01*
Y11190D01*
X13410Y11177D01*
X13412Y11164D01*
X13416Y11133D01*
X13423Y11096D01*
X13432Y11057D01*
X13447Y11018D01*
X13466Y10981D01*
Y10979D01*
X13468Y10977D01*
X13477Y10964D01*
X13488Y10947D01*
X13507Y10927D01*
X13527Y10903D01*
X13553Y10879D01*
X13581Y10857D01*
X13614Y10836D01*
X13616D01*
X13618Y10834D01*
X13629Y10829D01*
X13647Y10821D01*
X13670Y10812D01*
X13697Y10803D01*
X13729Y10796D01*
X13762Y10790D01*
X13797Y10788D01*
X13812D01*
X13827Y10790D01*
X13844Y10794D01*
X13864Y10801D01*
X13882Y10809D01*
X13897Y10821D01*
X13910Y10838D01*
X13912Y10840D01*
X13914Y10847D01*
X13918Y10858D01*
X13921Y10873D01*
X13927Y10894D01*
X13931Y10918D01*
X13932Y10946D01*
X13934Y10977D01*
Y11427D01*
X13947D01*
X13962Y11425D01*
X13982Y11423D01*
X14003Y11420D01*
X14027Y11414D01*
X14051Y11407D01*
X14075Y11397D01*
X14077Y11395D01*
X14084Y11392D01*
X14095Y11384D01*
X14108Y11375D01*
X14123Y11364D01*
X14138Y11349D01*
X14151Y11334D01*
X14164Y11316D01*
X14166Y11314D01*
X14168Y11307D01*
X14173Y11295D01*
X14179Y11283D01*
X14184Y11266D01*
X14188Y11245D01*
X14192Y11223D01*
X14194Y11201D01*
Y11199D01*
Y11194D01*
Y11186D01*
X14192Y11177D01*
X14190Y11153D01*
X14184Y11127D01*
Y11125D01*
X14182Y11121D01*
X14181Y11114D01*
X14177Y11105D01*
X14168Y11084D01*
X14155Y11060D01*
X14153Y11058D01*
X14151Y11055D01*
X14147Y11049D01*
X14142Y11042D01*
X14127Y11021D01*
X14110Y11001D01*
X14108Y10999D01*
X14106Y10996D01*
X14101Y10990D01*
X14094Y10983D01*
X14084Y10971D01*
X14073Y10960D01*
X14045Y10931D01*
X14044Y10927D01*
X14038Y10918D01*
X14032Y10903D01*
X14031Y10881D01*
Y10879D01*
Y10875D01*
X14032Y10868D01*
Y10860D01*
X14040Y10842D01*
X14044Y10833D01*
X14051Y10823D01*
Y10821D01*
X14055Y10820D01*
X14064Y10812D01*
X14081Y10805D01*
X14092Y10801D01*
X14110D01*
X14118Y10803D01*
X14125Y10805D01*
X14136Y10807D01*
X14149Y10810D01*
X14164Y10818D01*
X14179Y10825D01*
X14181Y10827D01*
X14186Y10829D01*
X14194Y10836D01*
X14205Y10844D01*
X14216Y10853D01*
X14229Y10866D01*
X14244Y10881D01*
X14258Y10899D01*
X14260Y10901D01*
X14264Y10908D01*
X14271Y10920D01*
X14281Y10933D01*
X14290Y10951D01*
X14301Y10973D01*
X14310Y10997D01*
X14321Y11023D01*
X14323Y11027D01*
X14325Y11036D01*
X14329Y11051D01*
X14332Y11073D01*
X14338Y11097D01*
X14342Y11127D01*
X14344Y11160D01*
X14345Y11196D01*
Y11197D01*
Y11205D01*
Y11216D01*
X14344Y11233D01*
X14342Y11251D01*
X14338Y11271D01*
X14334Y11295D01*
X14329Y11321D01*
X14314Y11377D01*
X14305Y11407D01*
X14292Y11434D01*
X14277Y11462D01*
X14260Y11490D01*
X14242Y11516D01*
X14219Y11540D01*
X14218Y11542D01*
X14214Y11545D01*
X14206Y11551D01*
X14197Y11558D01*
X14184Y11568D01*
X14168Y11579D01*
X14151Y11590D01*
X14129Y11601D01*
X14106Y11612D01*
X14081Y11623D01*
X14053Y11634D01*
X14021Y11644D01*
X13988Y11651D01*
X13955Y11657D01*
X13916Y11660D01*
X13877Y11662D01*
D02*
G37*
G36*
X11159Y16858D02*
X10824D01*
Y16634D01*
Y16601D01*
X10827Y16572D01*
X10830Y16548D01*
X10832Y16528D01*
X10835Y16512D01*
X10838Y16500D01*
X10839Y16494D01*
X10841Y16491D01*
X10848Y16473D01*
X10856Y16457D01*
X10866Y16443D01*
X10876Y16432D01*
X10885Y16424D01*
X10892Y16418D01*
X10897Y16414D01*
X10899Y16412D01*
X10914Y16402D01*
X10930Y16395D01*
X10945Y16390D01*
X10959Y16387D01*
X10972Y16384D01*
X10983Y16383D01*
X10992D01*
X11009Y16384D01*
X11025Y16385D01*
X11040Y16388D01*
X11051Y16393D01*
X11061Y16397D01*
X11069Y16400D01*
X11073Y16401D01*
X11075Y16402D01*
X11088Y16411D01*
X11099Y16418D01*
X11107Y16428D01*
X11116Y16435D01*
X11121Y16442D01*
X11126Y16448D01*
X11128Y16452D01*
X11130Y16453D01*
X11141Y16477D01*
X11150Y16501D01*
X11152Y16511D01*
X11154Y16519D01*
X11155Y16525D01*
Y16526D01*
X11157Y16538D01*
X11158Y16550D01*
X11159Y16580D01*
Y16594D01*
Y16605D01*
Y16612D01*
Y16614D01*
Y16615D01*
Y16858D01*
D02*
G37*
G36*
X13927Y14419D02*
X13916D01*
X13907Y14417D01*
X13894Y14414D01*
X13890Y14412D01*
X13882Y14408D01*
X13873Y14403D01*
X13860Y14395D01*
X13857Y14393D01*
X13849Y14388D01*
X13838Y14380D01*
X13825Y14371D01*
X13821Y14369D01*
X13812Y14362D01*
X13799Y14353D01*
X13782Y14340D01*
X13184Y13892D01*
X13183Y13890D01*
X13175Y13884D01*
X13164Y13877D01*
X13151Y13867D01*
X13123Y13843D01*
X13110Y13832D01*
X13099Y13821D01*
X13097Y13819D01*
X13095Y13816D01*
X13090Y13810D01*
X13084Y13801D01*
X13075Y13780D01*
X13073Y13767D01*
X13071Y13753D01*
Y13751D01*
Y13747D01*
Y13742D01*
X13073Y13732D01*
X13079Y13712D01*
X13090Y13688D01*
X13097Y13675D01*
X13107Y13664D01*
X13120Y13653D01*
X13134Y13643D01*
X13151Y13634D01*
X13171Y13629D01*
X13194Y13625D01*
X13220Y13623D01*
X13871D01*
Y13588D01*
Y13584D01*
Y13577D01*
Y13566D01*
X13873Y13551D01*
X13879Y13517D01*
X13884Y13499D01*
X13890Y13484D01*
Y13482D01*
X13894Y13479D01*
X13899Y13471D01*
X13907Y13464D01*
X13918Y13456D01*
X13931Y13449D01*
X13947Y13445D01*
X13968Y13443D01*
X13975D01*
X13984Y13445D01*
X13994Y13447D01*
X14007Y13451D01*
X14018Y13458D01*
X14029Y13466D01*
X14038Y13477D01*
Y13479D01*
X14042Y13482D01*
X14045Y13490D01*
X14049Y13501D01*
X14053Y13514D01*
X14057Y13530D01*
X14058Y13551D01*
X14060Y13573D01*
Y13623D01*
X14229D01*
X14240Y13625D01*
X14255Y13627D01*
X14269Y13630D01*
X14286Y13636D01*
X14301Y13643D01*
X14314Y13653D01*
X14316Y13655D01*
X14319Y13658D01*
X14323Y13664D01*
X14329Y13673D01*
X14336Y13684D01*
X14340Y13697D01*
X14344Y13712D01*
X14345Y13729D01*
Y13730D01*
Y13736D01*
X14344Y13745D01*
X14342Y13756D01*
X14338Y13769D01*
X14332Y13782D01*
X14325Y13795D01*
X14314Y13806D01*
X14312Y13808D01*
X14308Y13810D01*
X14299Y13816D01*
X14290Y13819D01*
X14275Y13825D01*
X14258Y13830D01*
X14240Y13832D01*
X14218Y13834D01*
X14060D01*
Y14258D01*
Y14262D01*
Y14271D01*
X14058Y14286D01*
X14057Y14303D01*
X14051Y14323D01*
X14045Y14343D01*
X14036Y14362D01*
X14025Y14378D01*
X14023Y14380D01*
X14018Y14384D01*
X14010Y14391D01*
X13999Y14399D01*
X13984Y14406D01*
X13968Y14414D01*
X13949Y14417D01*
X13927Y14419D01*
D02*
G37*
G36*
X14194Y12847D02*
X13229D01*
X13214Y12845D01*
X13197Y12843D01*
X13179Y12838D01*
X13158Y12832D01*
X13140Y12823D01*
X13125Y12812D01*
X13123Y12810D01*
X13120Y12805D01*
X13114Y12795D01*
X13107Y12784D01*
X13099Y12768D01*
X13094Y12747D01*
X13090Y12723D01*
X13088Y12695D01*
Y12286D01*
Y12284D01*
Y12282D01*
Y12271D01*
Y12257D01*
Y12236D01*
X13090Y12214D01*
X13092Y12190D01*
X13094Y12166D01*
X13095Y12144D01*
Y12140D01*
X13097Y12132D01*
X13099Y12121D01*
X13101Y12107D01*
X13107Y12090D01*
X13110Y12071D01*
X13125Y12034D01*
X13127Y12032D01*
X13129Y12025D01*
X13134Y12014D01*
X13144Y11999D01*
X13153Y11984D01*
X13164Y11968D01*
X13179Y11949D01*
X13195Y11932D01*
X13197Y11931D01*
X13203Y11925D01*
X13212Y11918D01*
X13225Y11907D01*
X13240Y11895D01*
X13258Y11884D01*
X13279Y11873D01*
X13301Y11864D01*
X13303Y11862D01*
X13312Y11860D01*
X13323Y11857D01*
X13340Y11851D01*
X13358Y11847D01*
X13381Y11844D01*
X13403Y11842D01*
X13429Y11840D01*
X13442D01*
X13451Y11842D01*
X13464D01*
X13477Y11844D01*
X13508Y11849D01*
X13544Y11858D01*
X13581Y11873D01*
X13618Y11894D01*
X13634Y11905D01*
X13651Y11920D01*
X13655Y11923D01*
X13664Y11934D01*
X13679Y11953D01*
X13695Y11979D01*
X13716Y12010D01*
X13725Y12031D01*
X13734Y12051D01*
X13744Y12075D01*
X13753Y12099D01*
X13760Y12127D01*
X13768Y12155D01*
X13769Y12151D01*
X13775Y12144D01*
X13782Y12131D01*
X13794Y12114D01*
X13808Y12095D01*
X13827Y12073D01*
X13847Y12051D01*
X13871Y12029D01*
X13875Y12025D01*
X13882Y12018D01*
X13897Y12007D01*
X13916Y11992D01*
X13938Y11975D01*
X13962Y11957D01*
X13990Y11938D01*
X14019Y11920D01*
X14023Y11918D01*
X14032Y11912D01*
X14047Y11903D01*
X14066Y11892D01*
X14088Y11881D01*
X14112Y11868D01*
X14136Y11857D01*
X14160Y11845D01*
X14162Y11844D01*
X14169Y11842D01*
X14181Y11838D01*
X14194Y11832D01*
X14223Y11823D01*
X14236Y11821D01*
X14245Y11820D01*
X14249D01*
X14260Y11821D01*
X14275Y11827D01*
X14294Y11836D01*
X14295D01*
X14297Y11838D01*
X14306Y11847D01*
X14319Y11860D01*
X14331Y11879D01*
Y11881D01*
X14332Y11882D01*
X14334Y11888D01*
X14338Y11895D01*
X14344Y11916D01*
X14345Y11940D01*
Y11942D01*
Y11947D01*
X14344Y11955D01*
Y11964D01*
X14336Y11988D01*
X14332Y12001D01*
X14325Y12012D01*
Y12014D01*
X14321Y12016D01*
X14312Y12029D01*
X14297Y12044D01*
X14277Y12060D01*
X14275D01*
X14271Y12064D01*
X14264Y12068D01*
X14253Y12075D01*
X14242Y12082D01*
X14225Y12092D01*
X14206Y12103D01*
X14186Y12116D01*
X14019Y12216D01*
X14018D01*
X14016Y12218D01*
X14005Y12225D01*
X13988Y12234D01*
X13968Y12247D01*
X13945Y12264D01*
X13923Y12281D01*
X13901Y12297D01*
X13881Y12314D01*
X13879Y12316D01*
X13873Y12321D01*
X13864Y12331D01*
X13855Y12340D01*
X13844Y12355D01*
X13832Y12368D01*
X13821Y12384D01*
X13814Y12401D01*
Y12403D01*
X13810Y12408D01*
X13808Y12418D01*
X13805Y12431D01*
X13801Y12445D01*
X13799Y12466D01*
X13795Y12486D01*
Y12510D01*
Y12597D01*
X14206D01*
X14219Y12599D01*
X14236Y12601D01*
X14256Y12606D01*
X14275Y12612D01*
X14294Y12621D01*
X14308Y12632D01*
X14310Y12634D01*
X14314Y12638D01*
X14319Y12647D01*
X14327Y12656D01*
X14334Y12669D01*
X14340Y12686D01*
X14344Y12703D01*
X14345Y12723D01*
Y12725D01*
Y12732D01*
X14344Y12743D01*
X14340Y12756D01*
X14336Y12771D01*
X14331Y12788D01*
X14321Y12803D01*
X14308Y12816D01*
X14306Y12818D01*
X14301Y12821D01*
X14292Y12825D01*
X14279Y12831D01*
X14264Y12838D01*
X14244Y12842D01*
X14219Y12845D01*
X14194Y12847D01*
D02*
G37*
G36*
X10708Y16858D02*
X10415D01*
Y16663D01*
Y16645D01*
Y16627D01*
X10418Y16596D01*
X10419Y16572D01*
X10422Y16550D01*
X10425Y16535D01*
X10426Y16525D01*
X10429Y16518D01*
Y16517D01*
X10435Y16501D01*
X10443Y16487D01*
X10452Y16476D01*
X10460Y16466D01*
X10467Y16459D01*
X10474Y16453D01*
X10479Y16450D01*
X10480Y16449D01*
X10494Y16440D01*
X10508Y16435D01*
X10522Y16431D01*
X10536Y16428D01*
X10548Y16426D01*
X10556Y16425D01*
X10565D01*
X10583Y16426D01*
X10600Y16429D01*
X10614Y16433D01*
X10625Y16438D01*
X10635Y16442D01*
X10643Y16446D01*
X10648Y16449D01*
X10649Y16450D01*
X10660Y16460D01*
X10672Y16473D01*
X10680Y16486D01*
X10686Y16497D01*
X10691Y16508D01*
X10696Y16517D01*
X10697Y16522D01*
X10698Y16525D01*
X10701Y16541D01*
X10704Y16560D01*
X10705Y16580D01*
X10707Y16600D01*
X10708Y16618D01*
Y16634D01*
Y16639D01*
Y16643D01*
Y16646D01*
Y16648D01*
Y16858D01*
D02*
G37*
%LPD*%
G36*
X7923Y11109D02*
X7951D01*
X7982Y11108D01*
X8016Y11105D01*
X8048Y11101D01*
X8079Y11097D01*
X8081D01*
X8082Y11095D01*
X8086D01*
X8092Y11094D01*
X8106Y11091D01*
X8122Y11085D01*
X8141Y11080D01*
X8160Y11071D01*
X8178Y11061D01*
X8195Y11050D01*
X8196Y11049D01*
X8201Y11044D01*
X8208Y11036D01*
X8215Y11026D01*
X8222Y11013D01*
X8229Y10998D01*
X8233Y10980D01*
X8234Y10960D01*
Y10957D01*
Y10950D01*
X8232Y10939D01*
X8229Y10926D01*
X8225Y10912D01*
X8217Y10896D01*
X8208Y10881D01*
X8194Y10868D01*
X8192Y10867D01*
X8186Y10863D01*
X8177Y10857D01*
X8164Y10850D01*
X8147Y10841D01*
X8127Y10833D01*
X8103Y10826D01*
X8077Y10820D01*
X8072D01*
X8068Y10819D01*
X8062Y10817D01*
X8055D01*
X8045Y10816D01*
X8036Y10815D01*
X8023Y10813D01*
X8009Y10812D01*
X7995Y10810D01*
X7960Y10809D01*
X7920Y10806D01*
X7847D01*
X7835Y10808D01*
X7807D01*
X7778Y10810D01*
X7745Y10813D01*
X7713Y10816D01*
X7683Y10822D01*
X7680D01*
X7676Y10823D01*
X7671Y10824D01*
X7658Y10827D01*
X7641Y10833D01*
X7623Y10840D01*
X7604Y10848D01*
X7586Y10858D01*
X7570Y10870D01*
X7569Y10871D01*
X7565Y10875D01*
X7558Y10882D01*
X7551Y10894D01*
X7544Y10906D01*
X7537Y10922D01*
X7532Y10940D01*
X7531Y10961D01*
Y10963D01*
Y10965D01*
Y10970D01*
X7532Y10975D01*
X7535Y10989D01*
X7542Y11008D01*
X7552Y11027D01*
X7559Y11037D01*
X7568Y11046D01*
X7577Y11056D01*
X7589Y11064D01*
X7601Y11071D01*
X7617Y11078D01*
X7618D01*
X7621Y11080D01*
X7625Y11081D01*
X7632Y11084D01*
X7642Y11085D01*
X7654Y11088D01*
X7666Y11091D01*
X7682Y11094D01*
X7700Y11098D01*
X7718Y11101D01*
X7741Y11104D01*
X7765Y11105D01*
X7790Y11108D01*
X7819Y11109D01*
X7848Y11111D01*
X7912D01*
X7923Y11109D01*
D02*
G37*
G36*
X13842Y20596D02*
X13331Y20783D01*
X13842Y20967D01*
Y20596D01*
D02*
G37*
G36*
X7903Y13341D02*
X7913D01*
X7924Y13339D01*
X7937Y13338D01*
X7950Y13335D01*
X7981Y13330D01*
X8014Y13320D01*
X8050Y13307D01*
X8084Y13290D01*
X8085D01*
X8088Y13287D01*
X8092Y13284D01*
X8099Y13280D01*
X8115Y13269D01*
X8136Y13252D01*
X8158Y13231D01*
X8182Y13207D01*
X8206Y13179D01*
X8227Y13146D01*
Y13145D01*
X8230Y13142D01*
X8232Y13138D01*
X8236Y13131D01*
X8240Y13122D01*
X8244Y13112D01*
X8248Y13100D01*
X8253Y13087D01*
X8263Y13057D01*
X8271Y13024D01*
X8277Y12987D01*
X8280Y12947D01*
Y12946D01*
Y12943D01*
Y12938D01*
X8278Y12929D01*
Y12919D01*
X8277Y12909D01*
X8275Y12897D01*
X8272Y12883D01*
X8267Y12852D01*
X8257Y12819D01*
X8244Y12784D01*
X8227Y12750D01*
Y12749D01*
X8225Y12746D01*
X8222Y12742D01*
X8217Y12735D01*
X8206Y12718D01*
X8189Y12698D01*
X8170Y12674D01*
X8146Y12650D01*
X8117Y12626D01*
X8085Y12605D01*
X8084D01*
X8081Y12602D01*
X8077Y12599D01*
X8069Y12596D01*
X8061Y12592D01*
X8051Y12588D01*
X8038Y12584D01*
X8026Y12578D01*
X7996Y12568D01*
X7962Y12560D01*
X7924Y12554D01*
X7885Y12551D01*
X7875D01*
X7866Y12553D01*
X7858D01*
X7847Y12554D01*
X7834Y12556D01*
X7820Y12558D01*
X7790Y12564D01*
X7757Y12574D01*
X7723Y12587D01*
X7687Y12605D01*
X7686D01*
X7683Y12608D01*
X7679Y12611D01*
X7672Y12615D01*
X7655Y12626D01*
X7635Y12643D01*
X7611Y12664D01*
X7587Y12688D01*
X7563Y12718D01*
X7542Y12750D01*
Y12752D01*
X7539Y12754D01*
X7537Y12759D01*
X7534Y12766D01*
X7530Y12774D01*
X7525Y12784D01*
X7521Y12795D01*
X7515Y12808D01*
X7506Y12838D01*
X7497Y12871D01*
X7491Y12908D01*
X7489Y12947D01*
Y12949D01*
Y12952D01*
Y12957D01*
X7490Y12966D01*
Y12976D01*
X7491Y12987D01*
X7493Y13000D01*
X7496Y13012D01*
X7501Y13043D01*
X7511Y13077D01*
X7524Y13112D01*
X7542Y13146D01*
Y13148D01*
X7545Y13150D01*
X7548Y13155D01*
X7552Y13162D01*
X7563Y13177D01*
X7580Y13198D01*
X7601Y13221D01*
X7625Y13245D01*
X7655Y13269D01*
X7687Y13290D01*
X7689D01*
X7692Y13293D01*
X7696Y13294D01*
X7703Y13298D01*
X7711Y13303D01*
X7721Y13307D01*
X7733Y13311D01*
X7745Y13315D01*
X7775Y13325D01*
X7809Y13334D01*
X7845Y13339D01*
X7885Y13342D01*
X7895D01*
X7903Y13341D01*
D02*
G37*
G36*
X8027Y14323D02*
X8036D01*
X8047Y14322D01*
X8069Y14319D01*
X8096Y14312D01*
X8123Y14304D01*
X8148Y14292D01*
X8172Y14275D01*
X8175Y14273D01*
X8181Y14267D01*
X8191Y14256D01*
X8201Y14240D01*
X8212Y14223D01*
X8222Y14202D01*
X8227Y14178D01*
X8230Y14151D01*
Y14150D01*
Y14144D01*
X8229Y14136D01*
X8227Y14125D01*
X8225Y14112D01*
X8220Y14099D01*
X8215Y14085D01*
X8206Y14071D01*
X8205Y14070D01*
X8202Y14064D01*
X8195Y14058D01*
X8186Y14048D01*
X8177Y14040D01*
X8164Y14029D01*
X8148Y14019D01*
X8130Y14010D01*
X8127Y14009D01*
X8122Y14006D01*
X8110Y14003D01*
X8096Y13999D01*
X8078Y13995D01*
X8057Y13991D01*
X8033Y13989D01*
X8007Y13988D01*
X7996D01*
X7983Y13989D01*
X7967Y13991D01*
X7948Y13993D01*
X7929Y13998D01*
X7909Y14003D01*
X7889Y14010D01*
X7886Y14012D01*
X7881Y14015D01*
X7872Y14019D01*
X7861Y14026D01*
X7848Y14034D01*
X7835Y14044D01*
X7823Y14056D01*
X7811Y14070D01*
X7810Y14071D01*
X7807Y14077D01*
X7803Y14084D01*
X7797Y14094D01*
X7793Y14106D01*
X7789Y14119D01*
X7786Y14134D01*
X7785Y14151D01*
Y14153D01*
Y14154D01*
Y14158D01*
X7786Y14164D01*
X7788Y14177D01*
X7792Y14194D01*
X7799Y14213D01*
X7809Y14235D01*
X7823Y14256D01*
X7843Y14275D01*
X7845Y14277D01*
X7852Y14282D01*
X7866Y14291D01*
X7885Y14299D01*
X7909Y14309D01*
X7937Y14316D01*
X7971Y14322D01*
X8010Y14325D01*
X8020D01*
X8027Y14323D01*
D02*
G37*
G36*
X18454Y11005D02*
X17939D01*
Y10860D01*
Y10797D01*
X17935Y10745D01*
Y10705D01*
X17932Y10671D01*
X17928Y10645D01*
Y10631D01*
X17924Y10620D01*
Y10616D01*
X17906Y10568D01*
X17887Y10531D01*
X17876Y10516D01*
X17869Y10505D01*
X17861Y10501D01*
Y10497D01*
X17817Y10457D01*
X17777Y10428D01*
X17593Y10611D01*
X17598Y10612D01*
X17621Y10620D01*
X17624Y10623D01*
X17628D01*
X17658Y10649D01*
X17676Y10675D01*
X17691Y10694D01*
X17695Y10697D01*
Y10701D01*
X17702Y10720D01*
X17706Y10742D01*
X17709Y10771D01*
Y10805D01*
X17713Y10834D01*
Y10860D01*
Y10875D01*
Y10882D01*
Y11005D01*
X17335D01*
Y10894D01*
Y10869D01*
X17593Y10611D01*
X17569Y10605D01*
X17524Y10601D01*
X17498D01*
X17484Y10605D01*
X17443Y10612D01*
X17405Y10628D01*
X17376Y10657D01*
X17358Y10690D01*
X17343Y10731D01*
Y10734D01*
X17339Y10745D01*
X17335Y10768D01*
Y10794D01*
Y10801D01*
Y10820D01*
Y10853D01*
Y10869D01*
X17106Y11098D01*
Y11238D01*
X18454D01*
Y11005D01*
D02*
G37*
G36*
X17106Y11098D02*
Y10927D01*
X17376Y10657D01*
X17391Y10638D01*
X17395Y10631D01*
X17398D01*
X17405Y10628D01*
X17655Y10377D01*
X17628Y10371D01*
X17595Y10368D01*
X17565Y10364D01*
X17521D01*
X17465Y10368D01*
X17413Y10375D01*
X17369Y10386D01*
X17332Y10397D01*
X17298Y10408D01*
X17276Y10420D01*
X17261Y10427D01*
X17258Y10431D01*
X17224Y10453D01*
X17195Y10483D01*
X17172Y10508D01*
X17154Y10534D01*
X17139Y10557D01*
X17132Y10575D01*
X17124Y10590D01*
Y10594D01*
X17117Y10623D01*
X17113Y10660D01*
X17109Y10705D01*
Y10753D01*
X17106Y10797D01*
Y10834D01*
Y10849D01*
Y10857D01*
Y10864D01*
Y10868D01*
Y10927D01*
X16873Y11159D01*
X16917Y11208D01*
X16921D01*
X16924Y11216D01*
X16947Y11234D01*
X16958Y11245D01*
X17106Y11098D01*
D02*
G37*
G36*
X13871Y13834D02*
X13383D01*
X13871Y14197D01*
Y13834D01*
D02*
G37*
G36*
X18544Y14447D02*
X18562Y14436D01*
X18577Y14429D01*
X18581Y14425D01*
X18595Y14407D01*
X18603Y14384D01*
X18607Y14370D01*
Y14366D01*
X18599Y14340D01*
X18592Y14321D01*
X18577Y14310D01*
X18562Y14299D01*
X18547Y14296D01*
X18532Y14292D01*
X18521D01*
X18499Y14296D01*
X18484Y14303D01*
X18473Y14310D01*
X18469Y14314D01*
X18455Y14333D01*
X18451Y14347D01*
X18447Y14362D01*
Y14366D01*
X18451Y14388D01*
X18458Y14407D01*
X18466Y14421D01*
X18469Y14425D01*
X18488Y14440D01*
X18503Y14447D01*
X18518Y14451D01*
X18521D01*
X18544Y14447D01*
D02*
G37*
G36*
X13803Y11010D02*
X13797D01*
X13792Y11012D01*
X13784D01*
X13762Y11016D01*
X13736Y11021D01*
X13708Y11031D01*
X13679Y11042D01*
X13651Y11057D01*
X13627Y11075D01*
X13625Y11077D01*
X13618Y11084D01*
X13608Y11097D01*
X13597Y11114D01*
X13586Y11134D01*
X13577Y11158D01*
X13570Y11188D01*
X13568Y11220D01*
Y11223D01*
Y11234D01*
X13571Y11249D01*
X13575Y11270D01*
X13582Y11292D01*
X13594Y11314D01*
X13608Y11338D01*
X13629Y11360D01*
X13631Y11362D01*
X13640Y11370D01*
X13653Y11379D01*
X13673Y11390D01*
X13697Y11401D01*
X13727Y11412D01*
X13762Y11421D01*
X13803Y11427D01*
Y11010D01*
D02*
G37*
G36*
X13616Y12373D02*
Y12371D01*
Y12369D01*
Y12358D01*
Y12342D01*
X13614Y12319D01*
X13612Y12295D01*
X13610Y12271D01*
X13607Y12245D01*
X13601Y12221D01*
Y12219D01*
X13597Y12212D01*
X13594Y12201D01*
X13588Y12186D01*
X13582Y12171D01*
X13573Y12157D01*
X13562Y12140D01*
X13549Y12127D01*
X13547Y12125D01*
X13542Y12121D01*
X13532Y12116D01*
X13521Y12110D01*
X13507Y12105D01*
X13488Y12099D01*
X13468Y12095D01*
X13444Y12094D01*
X13434D01*
X13425Y12095D01*
X13412Y12097D01*
X13399Y12101D01*
X13383Y12105D01*
X13368Y12112D01*
X13353Y12121D01*
X13351Y12123D01*
X13347Y12127D01*
X13340Y12132D01*
X13331Y12140D01*
X13321Y12151D01*
X13312Y12162D01*
X13303Y12177D01*
X13295Y12194D01*
X13294Y12195D01*
X13292Y12203D01*
X13288Y12214D01*
X13284Y12232D01*
X13281Y12255D01*
X13279Y12284D01*
X13275Y12321D01*
Y12344D01*
Y12366D01*
Y12597D01*
X13616D01*
Y12373D01*
D02*
G37*
G36*
X7982Y20364D02*
X7593Y20506D01*
X7982Y20646D01*
Y20364D01*
D02*
G37*
G36*
X7952Y17843D02*
X7948D01*
X7944Y17845D01*
X7938D01*
X7921Y17848D01*
X7902Y17852D01*
X7881Y17859D01*
X7858Y17867D01*
X7837Y17879D01*
X7819Y17893D01*
X7817Y17894D01*
X7811Y17900D01*
X7804Y17910D01*
X7796Y17922D01*
X7788Y17938D01*
X7780Y17956D01*
X7775Y17979D01*
X7773Y18003D01*
Y18005D01*
Y18014D01*
X7776Y18025D01*
X7779Y18041D01*
X7785Y18058D01*
X7793Y18075D01*
X7804Y18093D01*
X7820Y18110D01*
X7821Y18111D01*
X7828Y18117D01*
X7838Y18124D01*
X7854Y18132D01*
X7872Y18141D01*
X7895Y18149D01*
X7921Y18156D01*
X7952Y18161D01*
Y17843D01*
D02*
G37*
G36*
X13764Y19839D02*
X13801D01*
X13842Y19837D01*
X13886Y19833D01*
X13929Y19828D01*
X13969Y19822D01*
X13971D01*
X13973Y19821D01*
X13979D01*
X13986Y19819D01*
X14005Y19815D01*
X14025Y19808D01*
X14051Y19800D01*
X14075Y19789D01*
X14099Y19776D01*
X14121Y19761D01*
X14123Y19759D01*
X14129Y19754D01*
X14138Y19743D01*
X14147Y19730D01*
X14156Y19713D01*
X14166Y19693D01*
X14171Y19669D01*
X14173Y19643D01*
Y19639D01*
Y19630D01*
X14169Y19615D01*
X14166Y19598D01*
X14160Y19580D01*
X14151Y19559D01*
X14138Y19539D01*
X14119Y19522D01*
X14118Y19521D01*
X14110Y19515D01*
X14097Y19508D01*
X14081Y19498D01*
X14058Y19487D01*
X14032Y19476D01*
X14001Y19467D01*
X13966Y19459D01*
X13960D01*
X13955Y19458D01*
X13947Y19456D01*
X13938D01*
X13925Y19454D01*
X13912Y19452D01*
X13895Y19450D01*
X13877Y19448D01*
X13858Y19446D01*
X13812Y19445D01*
X13760Y19441D01*
X13664D01*
X13649Y19443D01*
X13612D01*
X13573Y19446D01*
X13531Y19450D01*
X13488Y19454D01*
X13449Y19461D01*
X13445D01*
X13440Y19463D01*
X13432Y19465D01*
X13416Y19469D01*
X13394Y19476D01*
X13370Y19485D01*
X13345Y19496D01*
X13321Y19509D01*
X13301Y19524D01*
X13299Y19526D01*
X13294Y19532D01*
X13284Y19541D01*
X13275Y19556D01*
X13266Y19572D01*
X13257Y19593D01*
X13251Y19617D01*
X13249Y19645D01*
Y19646D01*
Y19650D01*
Y19656D01*
X13251Y19663D01*
X13255Y19682D01*
X13264Y19706D01*
X13277Y19732D01*
X13286Y19745D01*
X13297Y19756D01*
X13310Y19769D01*
X13325Y19780D01*
X13342Y19789D01*
X13362Y19798D01*
X13364D01*
X13368Y19800D01*
X13373Y19802D01*
X13383Y19806D01*
X13395Y19808D01*
X13410Y19811D01*
X13427Y19815D01*
X13447Y19819D01*
X13471Y19824D01*
X13495Y19828D01*
X13525Y19832D01*
X13557Y19833D01*
X13590Y19837D01*
X13627Y19839D01*
X13666Y19841D01*
X13749D01*
X13764Y19839D01*
D02*
G37*
G36*
X8034Y15729D02*
X8051Y15727D01*
X8069Y15726D01*
X8091Y15722D01*
X8112Y15718D01*
X8132Y15710D01*
X8134Y15709D01*
X8140Y15706D01*
X8148Y15702D01*
X8160Y15695D01*
X8172Y15687D01*
X8185Y15677D01*
X8198Y15665D01*
X8209Y15651D01*
X8210Y15650D01*
X8213Y15644D01*
X8217Y15636D01*
X8222Y15625D01*
X8227Y15612D01*
X8232Y15596D01*
X8234Y15578D01*
X8236Y15560D01*
Y15558D01*
Y15555D01*
Y15551D01*
X8234Y15547D01*
X8233Y15531D01*
X8229Y15513D01*
X8222Y15493D01*
X8210Y15472D01*
X8196Y15451D01*
X8177Y15433D01*
X8175D01*
X8174Y15431D01*
X8165Y15426D01*
X8151Y15417D01*
X8133Y15409D01*
X8109Y15400D01*
X8081Y15392D01*
X8048Y15386D01*
X8010Y15385D01*
X7992D01*
X7983Y15386D01*
X7974Y15388D01*
X7950Y15390D01*
X7923Y15396D01*
X7895Y15405D01*
X7868Y15417D01*
X7844Y15433D01*
X7843D01*
X7841Y15434D01*
X7834Y15441D01*
X7824Y15451D01*
X7813Y15467D01*
X7803Y15484D01*
X7793Y15506D01*
X7786Y15531D01*
X7783Y15546D01*
Y15560D01*
Y15562D01*
Y15568D01*
X7785Y15578D01*
X7786Y15589D01*
X7790Y15603D01*
X7795Y15619D01*
X7802Y15634D01*
X7810Y15650D01*
X7811Y15651D01*
X7816Y15656D01*
X7821Y15663D01*
X7830Y15671D01*
X7841Y15681D01*
X7855Y15691D01*
X7871Y15701D01*
X7889Y15709D01*
X7892Y15710D01*
X7899Y15712D01*
X7909Y15716D01*
X7924Y15719D01*
X7941Y15723D01*
X7962Y15727D01*
X7985Y15729D01*
X8010Y15730D01*
X8022D01*
X8034Y15729D01*
D02*
G37*
G36*
X13986Y18819D02*
X14003Y18817D01*
X14019Y18815D01*
X14040Y18810D01*
X14060Y18804D01*
X14079Y18795D01*
X14081Y18793D01*
X14086Y18789D01*
X14095Y18784D01*
X14106Y18774D01*
X14119Y18765D01*
X14132Y18752D01*
X14145Y18737D01*
X14156Y18721D01*
X14158Y18719D01*
X14160Y18711D01*
X14164Y18702D01*
X14169Y18689D01*
X14175Y18673D01*
X14179Y18656D01*
X14181Y18635D01*
X14182Y18613D01*
Y18611D01*
Y18604D01*
X14181Y18593D01*
X14179Y18578D01*
X14177Y18563D01*
X14171Y18545D01*
X14166Y18528D01*
X14156Y18510D01*
X14155Y18508D01*
X14151Y18502D01*
X14145Y18493D01*
X14136Y18482D01*
X14125Y18471D01*
X14112Y18458D01*
X14097Y18445D01*
X14079Y18434D01*
X14077Y18432D01*
X14069Y18430D01*
X14058Y18424D01*
X14045Y18419D01*
X14027Y18415D01*
X14008Y18410D01*
X13986Y18408D01*
X13962Y18406D01*
X13951D01*
X13938Y18408D01*
X13923Y18410D01*
X13905Y18413D01*
X13886Y18417D01*
X13866Y18424D01*
X13847Y18434D01*
X13845Y18435D01*
X13840Y18439D01*
X13831Y18445D01*
X13819Y18454D01*
X13808Y18465D01*
X13795Y18478D01*
X13784Y18493D01*
X13773Y18510D01*
X13771Y18511D01*
X13769Y18519D01*
X13764Y18528D01*
X13758Y18541D01*
X13755Y18558D01*
X13749Y18576D01*
X13747Y18597D01*
X13745Y18619D01*
Y18621D01*
Y18623D01*
Y18634D01*
X13749Y18648D01*
X13753Y18669D01*
X13760Y18693D01*
X13769Y18717D01*
X13784Y18741D01*
X13803Y18763D01*
X13805Y18765D01*
X13814Y18772D01*
X13827Y18782D01*
X13844Y18791D01*
X13868Y18802D01*
X13895Y18811D01*
X13927Y18819D01*
X13964Y18821D01*
X13975D01*
X13986Y18819D01*
D02*
G37*
G36*
X13444Y18791D02*
X13460Y18787D01*
X13479Y18782D01*
X13499Y18772D01*
X13520Y18761D01*
X13538Y18745D01*
X13540Y18743D01*
X13545Y18735D01*
X13553Y18724D01*
X13560Y18710D01*
X13570Y18691D01*
X13577Y18669D01*
X13582Y18643D01*
X13584Y18615D01*
Y18613D01*
Y18608D01*
Y18600D01*
X13582Y18591D01*
X13579Y18569D01*
X13573Y18545D01*
Y18543D01*
X13571Y18539D01*
X13568Y18534D01*
X13564Y18524D01*
X13553Y18508D01*
X13538Y18489D01*
X13536Y18487D01*
X13534Y18485D01*
X13523Y18476D01*
X13507Y18463D01*
X13484Y18452D01*
X13483D01*
X13479Y18450D01*
X13473Y18448D01*
X13464Y18445D01*
X13442Y18441D01*
X13416Y18439D01*
X13407D01*
X13397Y18441D01*
X13386D01*
X13357Y18448D01*
X13342Y18454D01*
X13327Y18461D01*
X13325Y18463D01*
X13320Y18465D01*
X13312Y18471D01*
X13303Y18478D01*
X13294Y18487D01*
X13283Y18497D01*
X13264Y18524D01*
X13262Y18526D01*
X13260Y18532D01*
X13257Y18539D01*
X13251Y18550D01*
X13247Y18565D01*
X13244Y18580D01*
X13242Y18598D01*
X13240Y18617D01*
Y18621D01*
Y18630D01*
X13242Y18645D01*
X13245Y18663D01*
X13253Y18684D01*
X13260Y18704D01*
X13273Y18726D01*
X13290Y18745D01*
X13292Y18747D01*
X13299Y18752D01*
X13310Y18760D01*
X13325Y18769D01*
X13344Y18778D01*
X13364Y18785D01*
X13390Y18791D01*
X13418Y18793D01*
X13429D01*
X13444Y18791D01*
D02*
G37*
%LPC*%
G36*
X7886Y13187D02*
X7872D01*
X7857Y13186D01*
X7838Y13183D01*
X7816Y13180D01*
X7792Y13174D01*
X7768Y13167D01*
X7744Y13158D01*
X7742D01*
X7741Y13156D01*
X7734Y13152D01*
X7723Y13145D01*
X7709Y13135D01*
X7693Y13124D01*
X7678Y13108D01*
X7662Y13091D01*
X7648Y13072D01*
X7647Y13069D01*
X7642Y13062D01*
X7637Y13049D01*
X7630Y13033D01*
X7624Y13014D01*
X7618Y12991D01*
X7614Y12967D01*
X7613Y12939D01*
Y12938D01*
Y12932D01*
X7614Y12924D01*
X7616Y12914D01*
X7617Y12901D01*
X7621Y12885D01*
X7625Y12870D01*
X7632Y12853D01*
X7641Y12835D01*
X7651Y12816D01*
X7663Y12799D01*
X7679Y12781D01*
X7697Y12764D01*
X7717Y12749D01*
X7741Y12735D01*
X7769Y12723D01*
X7793Y12829D01*
X7792D01*
X7789Y12830D01*
X7785Y12833D01*
X7779Y12836D01*
X7765Y12845D01*
X7748Y12856D01*
X7731Y12871D01*
X7717Y12891D01*
X7711Y12902D01*
X7707Y12915D01*
X7704Y12929D01*
X7703Y12943D01*
Y12946D01*
Y12953D01*
X7706Y12964D01*
X7709Y12978D01*
X7714Y12994D01*
X7723Y13011D01*
X7735Y13026D01*
X7751Y13041D01*
X7754Y13042D01*
X7759Y13046D01*
X7771Y13052D01*
X7785Y13057D01*
X7803Y13063D01*
X7824Y13069D01*
X7850Y13073D01*
X7878Y13074D01*
X7888D01*
X7900Y13073D01*
X7914D01*
X7931Y13072D01*
X7948Y13069D01*
X7967Y13064D01*
X7983Y13060D01*
X7985Y13059D01*
X7991Y13057D01*
X7998Y13055D01*
X8007Y13049D01*
X8029Y13036D01*
X8038Y13028D01*
X8047Y13018D01*
X8048Y13017D01*
X8050Y13012D01*
X8054Y13007D01*
X8057Y12998D01*
X8061Y12988D01*
X8065Y12976D01*
X8067Y12963D01*
X8068Y12949D01*
Y12947D01*
Y12945D01*
X8067Y12940D01*
Y12935D01*
X8062Y12919D01*
X8054Y12901D01*
X8048Y12890D01*
X8041Y12880D01*
X8033Y12870D01*
X8022Y12860D01*
X8009Y12850D01*
X7995Y12842D01*
X7978Y12835D01*
X7958Y12828D01*
X7993Y12723D01*
X7995D01*
X8000Y12726D01*
X8009Y12729D01*
X8019Y12735D01*
X8031Y12740D01*
X8045Y12749D01*
X8061Y12759D01*
X8077Y12771D01*
X8092Y12785D01*
X8108Y12802D01*
X8122Y12821D01*
X8134Y12842D01*
X8144Y12866D01*
X8153Y12891D01*
X8158Y12921D01*
X8160Y12952D01*
Y12955D01*
Y12962D01*
X8158Y12974D01*
X8155Y12990D01*
X8153Y13008D01*
X8147Y13028D01*
X8140Y13048D01*
X8130Y13069D01*
X8129Y13072D01*
X8124Y13077D01*
X8117Y13087D01*
X8106Y13100D01*
X8093Y13114D01*
X8078Y13128D01*
X8058Y13142D01*
X8037Y13155D01*
X8036D01*
X8034Y13156D01*
X8026Y13160D01*
X8012Y13165D01*
X7995Y13170D01*
X7972Y13177D01*
X7947Y13181D01*
X7917Y13186D01*
X7886Y13187D01*
D02*
G37*
%LPD*%
D24*
X9450Y6000D02*
Y24000D01*
Y6000D02*
X15450D01*
Y24000D01*
X9450D02*
X15450D01*
D25*
X30000Y15000D02*
G03*
X30000Y15000I-4000J0D01*
G01*
M02*
