%FSLAX43Y43*%
%MOMM*%
G71*
G01*
G75*
G04 Layer_Physical_Order=4*
G04 Layer_Color=16711680*
%ADD10R,0.650X0.500*%
%ADD11R,1.600X1.000*%
%ADD12R,2.500X3.000*%
%ADD13R,0.675X0.250*%
%ADD14R,0.250X0.675*%
%ADD15R,1.500X1.100*%
%ADD16R,0.400X0.400*%
%ADD17R,1.400X0.600*%
%ADD18R,0.650X0.800*%
%ADD19R,1.000X0.950*%
%ADD20R,0.600X0.900*%
%ADD21R,0.800X0.650*%
%ADD22R,0.500X0.650*%
%ADD23R,0.900X0.600*%
%ADD24C,0.254*%
%ADD25C,0.200*%
%ADD26C,0.300*%
%ADD27C,0.250*%
%ADD28C,1.700*%
%ADD29R,1.700X1.700*%
%ADD30C,1.800*%
%ADD31R,1.800X1.800*%
%ADD32C,1.050*%
%ADD33C,2.000*%
%ADD34C,0.600*%
%ADD35C,1.016*%
%ADD36C,1.600*%
G04:AMPARAMS|DCode=37|XSize=2.524mm|YSize=2.524mm|CornerRadius=0mm|HoleSize=0mm|Usage=FLASHONLY|Rotation=0.000|XOffset=0mm|YOffset=0mm|HoleType=Round|Shape=Relief|Width=0.254mm|Gap=0.254mm|Entries=4|*
%AMTHD37*
7,0,0,2.524,2.016,0.254,45*
%
%ADD37THD37*%
G04:AMPARAMS|DCode=38|XSize=1.45mm|YSize=1.45mm|CornerRadius=0mm|HoleSize=0mm|Usage=FLASHONLY|Rotation=0.000|XOffset=0mm|YOffset=0mm|HoleType=Round|Shape=Relief|Width=0.2mm|Gap=0.2mm|Entries=4|*
%AMTHD38*
7,0,0,1.450,1.050,0.200,45*
%
%ADD38THD38*%
%ADD39C,1.250*%
%ADD40C,2.600*%
%ADD41C,0.900*%
%ADD42C,0.800*%
G36*
X30596Y429D02*
X404D01*
Y13450D01*
X388Y13528D01*
X344Y13594D01*
X278Y13638D01*
X200Y13654D01*
X0D01*
Y16346D01*
X200D01*
X278Y16362D01*
X344Y16406D01*
X388Y16472D01*
X404Y16550D01*
Y29596D01*
X30596D01*
Y429D01*
D02*
G37*
%LPC*%
G36*
X2530Y12249D02*
X2256Y12213D01*
X2000Y12107D01*
X1781Y11939D01*
X1613Y11720D01*
X1507Y11464D01*
X1471Y11190D01*
X1507Y10916D01*
X1613Y10660D01*
X1781Y10441D01*
X2000Y10273D01*
X2256Y10167D01*
X2530Y10131D01*
X2804Y10167D01*
X3060Y10273D01*
X3279Y10441D01*
X3447Y10660D01*
X3553Y10916D01*
X3589Y11190D01*
X3553Y11464D01*
X3447Y11720D01*
X3279Y11939D01*
X3060Y12107D01*
X2804Y12213D01*
X2530Y12249D01*
D02*
G37*
G36*
X5070D02*
X4796Y12213D01*
X4540Y12107D01*
X4321Y11939D01*
X4153Y11720D01*
X4047Y11464D01*
X4011Y11190D01*
X4047Y10916D01*
X4153Y10660D01*
X4321Y10441D01*
X4540Y10273D01*
X4796Y10167D01*
X5070Y10131D01*
X5344Y10167D01*
X5600Y10273D01*
X5819Y10441D01*
X5987Y10660D01*
X6093Y10916D01*
X6129Y11190D01*
X6093Y11464D01*
X5987Y11720D01*
X5819Y11939D01*
X5600Y12107D01*
X5344Y12213D01*
X5070Y12249D01*
D02*
G37*
G36*
X2530Y9709D02*
X2256Y9673D01*
X2000Y9567D01*
X1781Y9399D01*
X1613Y9180D01*
X1507Y8924D01*
X1471Y8650D01*
X1507Y8376D01*
X1613Y8120D01*
X1781Y7901D01*
X2000Y7733D01*
X2256Y7627D01*
X2530Y7591D01*
X2804Y7627D01*
X3060Y7733D01*
X3279Y7901D01*
X3447Y8120D01*
X3553Y8376D01*
X3589Y8650D01*
X3553Y8924D01*
X3447Y9180D01*
X3279Y9399D01*
X3060Y9567D01*
X2804Y9673D01*
X2530Y9709D01*
D02*
G37*
G36*
X5070Y7169D02*
X4796Y7133D01*
X4540Y7027D01*
X4321Y6859D01*
X4153Y6640D01*
X4047Y6384D01*
X4011Y6110D01*
X4047Y5836D01*
X4153Y5580D01*
X4321Y5361D01*
X4540Y5193D01*
X4796Y5087D01*
X5070Y5051D01*
X5344Y5087D01*
X5600Y5193D01*
X5819Y5361D01*
X5987Y5580D01*
X6093Y5836D01*
X6129Y6110D01*
X6093Y6384D01*
X5987Y6640D01*
X5819Y6859D01*
X5600Y7027D01*
X5344Y7133D01*
X5070Y7169D01*
D02*
G37*
G36*
X8000Y8540D02*
X7700Y8500D01*
X7420Y8385D01*
X7180Y8200D01*
X6995Y7960D01*
X6880Y7680D01*
X6840Y7380D01*
X6880Y7080D01*
X6995Y6800D01*
X7180Y6560D01*
X7420Y6375D01*
X7700Y6260D01*
X8000Y6220D01*
X8300Y6260D01*
X8580Y6375D01*
X8820Y6560D01*
X9005Y6800D01*
X9120Y7080D01*
X9160Y7380D01*
X9120Y7680D01*
X9005Y7960D01*
X8820Y8200D01*
X8580Y8385D01*
X8300Y8500D01*
X8000Y8540D01*
D02*
G37*
G36*
X23425Y12059D02*
X23249Y12024D01*
X23101Y11924D01*
X23001Y11776D01*
X22966Y11600D01*
X23001Y11424D01*
X23101Y11276D01*
X23249Y11176D01*
X23425Y11141D01*
X23601Y11176D01*
X23749Y11276D01*
X23849Y11424D01*
X23884Y11600D01*
X23849Y11776D01*
X23749Y11924D01*
X23601Y12024D01*
X23425Y12059D01*
D02*
G37*
G36*
X24000Y14434D02*
X23824Y14399D01*
X23676Y14299D01*
X23576Y14151D01*
X23541Y13975D01*
X23576Y13799D01*
X23676Y13651D01*
X23824Y13551D01*
X24000Y13516D01*
X24176Y13551D01*
X24324Y13651D01*
X24424Y13799D01*
X24459Y13975D01*
X24424Y14151D01*
X24324Y14299D01*
X24176Y14399D01*
X24000Y14434D01*
D02*
G37*
G36*
X28050Y14834D02*
X27874Y14799D01*
X27726Y14699D01*
X27626Y14551D01*
X27591Y14375D01*
X27626Y14199D01*
X27726Y14051D01*
X27874Y13951D01*
X28050Y13916D01*
X28226Y13951D01*
X28374Y14051D01*
X28474Y14199D01*
X28509Y14375D01*
X28474Y14551D01*
X28374Y14699D01*
X28226Y14799D01*
X28050Y14834D01*
D02*
G37*
G36*
X13475Y14409D02*
X13299Y14374D01*
X13151Y14274D01*
X13051Y14126D01*
X13016Y13950D01*
X13051Y13774D01*
X13151Y13626D01*
X13299Y13526D01*
X13475Y13491D01*
X13651Y13526D01*
X13799Y13626D01*
X13899Y13774D01*
X13934Y13950D01*
X13899Y14126D01*
X13799Y14274D01*
X13651Y14374D01*
X13475Y14409D01*
D02*
G37*
G36*
X18050Y18909D02*
X17874Y18874D01*
X17726Y18774D01*
X17626Y18626D01*
X17591Y18450D01*
X17626Y18274D01*
X17726Y18126D01*
X17744Y18113D01*
Y16577D01*
X14188Y13021D01*
X9135D01*
X9018Y12998D01*
X8978Y12971D01*
X8919Y12931D01*
X8919Y12931D01*
X5568Y9580D01*
X5344Y9673D01*
X5070Y9709D01*
X4796Y9673D01*
X4540Y9567D01*
X4321Y9399D01*
X4153Y9180D01*
X4047Y8924D01*
X4011Y8650D01*
X4047Y8376D01*
X4153Y8120D01*
X4321Y7901D01*
X4540Y7733D01*
X4796Y7627D01*
X5070Y7591D01*
X5344Y7627D01*
X5600Y7733D01*
X5819Y7901D01*
X5987Y8120D01*
X6093Y8376D01*
X6129Y8650D01*
X6093Y8924D01*
X6000Y9148D01*
X9262Y12409D01*
X14315D01*
X14315Y12409D01*
X14432Y12432D01*
X14531Y12499D01*
X18266Y16234D01*
X18333Y16333D01*
X18356Y16450D01*
X18356Y16450D01*
Y18113D01*
X18374Y18126D01*
X18474Y18274D01*
X18509Y18450D01*
X18474Y18626D01*
X18374Y18774D01*
X18226Y18874D01*
X18050Y18909D01*
D02*
G37*
G36*
X2530Y14789D02*
X2256Y14753D01*
X2000Y14647D01*
X1781Y14479D01*
X1613Y14260D01*
X1507Y14004D01*
X1471Y13730D01*
X1507Y13456D01*
X1613Y13200D01*
X1781Y12981D01*
X2000Y12813D01*
X2256Y12707D01*
X2530Y12671D01*
X2804Y12707D01*
X3060Y12813D01*
X3279Y12981D01*
X3447Y13200D01*
X3553Y13456D01*
X3589Y13730D01*
X3553Y14004D01*
X3447Y14260D01*
X3279Y14479D01*
X3060Y14647D01*
X2804Y14753D01*
X2530Y14789D01*
D02*
G37*
G36*
X23435Y4579D02*
X23174Y4544D01*
X22931Y4443D01*
X22722Y4283D01*
X22562Y4074D01*
X22461Y3831D01*
X22426Y3570D01*
X22461Y3309D01*
X22562Y3066D01*
X22722Y2857D01*
X22931Y2697D01*
X23174Y2596D01*
X23435Y2561D01*
X23696Y2596D01*
X23939Y2697D01*
X24148Y2857D01*
X24309Y3066D01*
X24409Y3309D01*
X24444Y3570D01*
X24409Y3831D01*
X24309Y4074D01*
X24148Y4283D01*
X23939Y4443D01*
X23696Y4544D01*
X23435Y4579D01*
D02*
G37*
G36*
X25975D02*
X25714Y4544D01*
X25471Y4443D01*
X25262Y4283D01*
X25101Y4074D01*
X25001Y3831D01*
X24966Y3570D01*
X25001Y3309D01*
X25101Y3066D01*
X25262Y2857D01*
X25471Y2697D01*
X25714Y2596D01*
X25975Y2561D01*
X26236Y2596D01*
X26479Y2697D01*
X26688Y2857D01*
X26848Y3066D01*
X26949Y3309D01*
X26984Y3570D01*
X26949Y3831D01*
X26848Y4074D01*
X26688Y4283D01*
X26479Y4443D01*
X26236Y4544D01*
X25975Y4579D01*
D02*
G37*
G36*
X6096Y3507D02*
X5133D01*
Y2544D01*
X5338Y2571D01*
X5587Y2675D01*
X5801Y2839D01*
X5965Y3053D01*
X6069Y3302D01*
X6096Y3507D01*
D02*
G37*
G36*
X2530Y4629D02*
X2256Y4593D01*
X2000Y4487D01*
X1781Y4319D01*
X1613Y4100D01*
X1507Y3844D01*
X1471Y3570D01*
X1507Y3296D01*
X1613Y3040D01*
X1781Y2821D01*
X2000Y2653D01*
X2256Y2547D01*
X2530Y2511D01*
X2804Y2547D01*
X3060Y2653D01*
X3279Y2821D01*
X3447Y3040D01*
X3553Y3296D01*
X3589Y3570D01*
X3553Y3844D01*
X3447Y4100D01*
X3279Y4319D01*
X3060Y4487D01*
X2804Y4593D01*
X2530Y4629D01*
D02*
G37*
G36*
X5008Y3507D02*
X4044D01*
X4071Y3302D01*
X4175Y3053D01*
X4339Y2839D01*
X4553Y2675D01*
X4802Y2571D01*
X5008Y2544D01*
Y3507D01*
D02*
G37*
G36*
X13045Y4579D02*
X12784Y4544D01*
X12541Y4444D01*
X12332Y4283D01*
X12172Y4074D01*
X12071Y3831D01*
X12036Y3570D01*
X12071Y3309D01*
X12172Y3066D01*
X12332Y2857D01*
X12541Y2697D01*
X12784Y2596D01*
X13045Y2561D01*
X13306Y2596D01*
X13549Y2697D01*
X13758Y2857D01*
X13918Y3066D01*
X14019Y3309D01*
X14054Y3570D01*
X14019Y3831D01*
X13918Y4074D01*
X13758Y4283D01*
X13549Y4444D01*
X13306Y4544D01*
X13045Y4579D01*
D02*
G37*
G36*
X5133Y4596D02*
Y3632D01*
X6096D01*
X6069Y3838D01*
X5965Y4087D01*
X5801Y4301D01*
X5587Y4465D01*
X5338Y4569D01*
X5133Y4596D01*
D02*
G37*
G36*
X2530Y7169D02*
X2256Y7133D01*
X2000Y7027D01*
X1781Y6859D01*
X1613Y6640D01*
X1507Y6384D01*
X1471Y6110D01*
X1507Y5836D01*
X1613Y5580D01*
X1781Y5361D01*
X2000Y5193D01*
X2256Y5087D01*
X2530Y5051D01*
X2804Y5087D01*
X3060Y5193D01*
X3279Y5361D01*
X3447Y5580D01*
X3553Y5836D01*
X3589Y6110D01*
X3553Y6384D01*
X3447Y6640D01*
X3279Y6859D01*
X3060Y7027D01*
X2804Y7133D01*
X2530Y7169D01*
D02*
G37*
G36*
X5008Y4596D02*
X4802Y4569D01*
X4553Y4465D01*
X4339Y4301D01*
X4175Y4087D01*
X4071Y3838D01*
X4044Y3632D01*
X5008D01*
Y4596D01*
D02*
G37*
G36*
X29515Y4570D02*
X27515D01*
Y2570D01*
X29515D01*
Y4570D01*
D02*
G37*
G36*
X11505Y4570D02*
X9505D01*
Y2570D01*
X11505D01*
Y4570D01*
D02*
G37*
G36*
X29515Y14834D02*
X29339Y14799D01*
X29191Y14699D01*
X29091Y14551D01*
X29056Y14375D01*
X29091Y14199D01*
X29191Y14051D01*
X29339Y13951D01*
X29515Y13916D01*
X29691Y13951D01*
X29839Y14051D01*
X29939Y14199D01*
X29974Y14375D01*
X29939Y14551D01*
X29839Y14699D01*
X29691Y14799D01*
X29515Y14834D01*
D02*
G37*
G36*
X10058Y25686D02*
X9843Y25643D01*
X9661Y25522D01*
X9540Y25340D01*
X9497Y25125D01*
X9540Y24910D01*
X9661Y24728D01*
X9843Y24607D01*
X10058Y24564D01*
X10273Y24607D01*
X10454Y24728D01*
X10576Y24910D01*
X10619Y25125D01*
X10576Y25340D01*
X10454Y25522D01*
X10273Y25643D01*
X10058Y25686D01*
D02*
G37*
G36*
X6120Y27480D02*
X4020D01*
Y25380D01*
X6120D01*
Y27480D01*
D02*
G37*
G36*
X5070Y24949D02*
X4796Y24913D01*
X4540Y24807D01*
X4321Y24639D01*
X4153Y24420D01*
X4047Y24164D01*
X4011Y23890D01*
X4047Y23616D01*
X4153Y23360D01*
X4321Y23141D01*
X4540Y22973D01*
X4796Y22867D01*
X5070Y22831D01*
X5344Y22867D01*
X5600Y22973D01*
X5819Y23141D01*
X5987Y23360D01*
X6093Y23616D01*
X6129Y23890D01*
X6093Y24164D01*
X5987Y24420D01*
X5819Y24639D01*
X5600Y24807D01*
X5344Y24913D01*
X5070Y24949D01*
D02*
G37*
G36*
X14700Y22911D02*
X14485Y22868D01*
X14303Y22747D01*
X14182Y22565D01*
X14139Y22350D01*
X14182Y22135D01*
X14303Y21953D01*
X14485Y21832D01*
X14700Y21789D01*
X14915Y21832D01*
X15097Y21953D01*
X15218Y22135D01*
X15261Y22350D01*
X15218Y22565D01*
X15097Y22747D01*
X14915Y22868D01*
X14700Y22911D01*
D02*
G37*
G36*
X2530Y24949D02*
X2256Y24913D01*
X2000Y24807D01*
X1781Y24639D01*
X1613Y24420D01*
X1507Y24164D01*
X1471Y23890D01*
X1507Y23616D01*
X1613Y23360D01*
X1781Y23141D01*
X2000Y22973D01*
X2256Y22867D01*
X2530Y22831D01*
X2804Y22867D01*
X3060Y22973D01*
X3279Y23141D01*
X3447Y23360D01*
X3553Y23616D01*
X3589Y23890D01*
X3553Y24164D01*
X3447Y24420D01*
X3279Y24639D01*
X3060Y24807D01*
X2804Y24913D01*
X2530Y24949D01*
D02*
G37*
G36*
X2467Y26368D02*
X1504D01*
X1531Y26162D01*
X1635Y25913D01*
X1799Y25699D01*
X2013Y25535D01*
X2262Y25431D01*
X2467Y25404D01*
Y26368D01*
D02*
G37*
G36*
X24198Y28382D02*
X24090Y28368D01*
X23932Y28303D01*
X23796Y28199D01*
X23692Y28063D01*
X23627Y27905D01*
X23613Y27798D01*
X24198D01*
Y28382D01*
D02*
G37*
G36*
X29340Y28416D02*
X29164Y28393D01*
X29000Y28325D01*
X28859Y28216D01*
X28753Y28078D01*
X28626Y28078D01*
X28534Y28199D01*
X28398Y28303D01*
X28240Y28368D01*
X28132Y28382D01*
Y27735D01*
X28007D01*
Y28382D01*
X27900Y28368D01*
X27742Y28303D01*
X27606Y28199D01*
X27502Y28063D01*
X27499Y28054D01*
X27372D01*
X27368Y28063D01*
X27264Y28199D01*
X27128Y28303D01*
X26970Y28368D01*
X26862Y28382D01*
Y27735D01*
X26737D01*
Y28382D01*
X26630Y28368D01*
X26472Y28303D01*
X26336Y28199D01*
X26244Y28078D01*
X26117Y28078D01*
X26011Y28216D01*
X25870Y28325D01*
X25706Y28393D01*
X25530Y28416D01*
X25354Y28393D01*
X25190Y28325D01*
X25049Y28216D01*
X24943Y28078D01*
X24816Y28078D01*
X24724Y28199D01*
X24588Y28303D01*
X24430Y28368D01*
X24323Y28382D01*
Y27735D01*
X24260D01*
Y27673D01*
X23613D01*
X23627Y27565D01*
X23692Y27407D01*
X23796Y27271D01*
X23917Y27179D01*
Y27052D01*
X23779Y26946D01*
X23670Y26805D01*
X23602Y26641D01*
X23579Y26465D01*
X23602Y26289D01*
X23670Y26125D01*
X23779Y25984D01*
X23920Y25875D01*
X24084Y25807D01*
X24260Y25784D01*
X24436Y25807D01*
X24600Y25875D01*
X24741Y25984D01*
X24831Y26101D01*
X24958D01*
X25049Y25984D01*
X25190Y25875D01*
X25354Y25807D01*
X25530Y25784D01*
X25706Y25807D01*
X25870Y25875D01*
X26011Y25984D01*
X26101Y26101D01*
X26229D01*
X26319Y25984D01*
X26460Y25875D01*
X26624Y25807D01*
X26800Y25784D01*
X26976Y25807D01*
X27140Y25875D01*
X27281Y25984D01*
X27372Y26101D01*
X27499D01*
X27589Y25984D01*
X27730Y25875D01*
X27894Y25807D01*
X28070Y25784D01*
X28246Y25807D01*
X28410Y25875D01*
X28551Y25984D01*
X28642Y26101D01*
X28768D01*
X28859Y25984D01*
X29000Y25875D01*
X29164Y25807D01*
X29340Y25784D01*
X29516Y25807D01*
X29680Y25875D01*
X29821Y25984D01*
X29930Y26125D01*
X29998Y26289D01*
X30021Y26465D01*
X29998Y26641D01*
X29930Y26805D01*
X29821Y26946D01*
X29704Y27037D01*
Y27163D01*
X29821Y27254D01*
X29930Y27395D01*
X29998Y27559D01*
X30021Y27735D01*
X29998Y27911D01*
X29930Y28075D01*
X29821Y28216D01*
X29680Y28325D01*
X29516Y28393D01*
X29340Y28416D01*
D02*
G37*
G36*
X2592Y27456D02*
Y26493D01*
X3556D01*
X3529Y26698D01*
X3425Y26947D01*
X3261Y27161D01*
X3047Y27325D01*
X2798Y27429D01*
X2592Y27456D01*
D02*
G37*
G36*
X3556Y26368D02*
X2592D01*
Y25404D01*
X2798Y25431D01*
X3047Y25535D01*
X3261Y25699D01*
X3425Y25913D01*
X3529Y26162D01*
X3556Y26368D01*
D02*
G37*
G36*
X2467Y27456D02*
X2262Y27429D01*
X2013Y27325D01*
X1799Y27161D01*
X1635Y26947D01*
X1531Y26698D01*
X1504Y26493D01*
X2467D01*
Y27456D01*
D02*
G37*
G36*
X8000Y23780D02*
X7700Y23740D01*
X7420Y23625D01*
X7180Y23440D01*
X6995Y23200D01*
X6880Y22920D01*
X6840Y22620D01*
X6880Y22320D01*
X6995Y22040D01*
X7180Y21800D01*
X7420Y21615D01*
X7700Y21500D01*
X8000Y21460D01*
X8300Y21500D01*
X8580Y21615D01*
X8820Y21800D01*
X9005Y22040D01*
X9120Y22320D01*
X9160Y22620D01*
X9120Y22920D01*
X9005Y23200D01*
X8820Y23440D01*
X8580Y23625D01*
X8300Y23740D01*
X8000Y23780D01*
D02*
G37*
G36*
X20900Y18105D02*
X20685Y18062D01*
X20503Y17940D01*
X20382Y17758D01*
X20339Y17544D01*
X20382Y17329D01*
X20503Y17147D01*
X20685Y17026D01*
X20900Y16983D01*
X21115Y17026D01*
X21297Y17147D01*
X21418Y17329D01*
X21461Y17544D01*
X21418Y17758D01*
X21297Y17940D01*
X21115Y18062D01*
X20900Y18105D01*
D02*
G37*
G36*
X12000Y18761D02*
X11786Y18718D01*
X11604Y18597D01*
X11482Y18415D01*
X11439Y18200D01*
X11482Y17985D01*
X11604Y17803D01*
X11786Y17682D01*
X12000Y17639D01*
X12215Y17682D01*
X12397Y17803D01*
X12518Y17985D01*
X12561Y18200D01*
X12518Y18415D01*
X12397Y18597D01*
X12215Y18718D01*
X12000Y18761D01*
D02*
G37*
G36*
X5070Y22409D02*
X4796Y22373D01*
X4540Y22267D01*
X4321Y22099D01*
X4153Y21880D01*
X4047Y21624D01*
X4011Y21350D01*
X4047Y21076D01*
X4153Y20820D01*
X4321Y20601D01*
X4540Y20433D01*
X4796Y20327D01*
X5070Y20291D01*
X5344Y20327D01*
X5568Y20420D01*
X10354Y15634D01*
X10354Y15634D01*
X10413Y15594D01*
X10453Y15567D01*
X10570Y15544D01*
X11513D01*
X11526Y15526D01*
X11674Y15426D01*
X11850Y15391D01*
X12026Y15426D01*
X12174Y15526D01*
X12274Y15674D01*
X12309Y15850D01*
X12274Y16026D01*
X12174Y16174D01*
X12026Y16274D01*
X11850Y16309D01*
X11674Y16274D01*
X11526Y16174D01*
X11513Y16156D01*
X10697D01*
X6000Y20852D01*
X6093Y21076D01*
X6129Y21350D01*
X6093Y21624D01*
X5987Y21880D01*
X5819Y22099D01*
X5600Y22267D01*
X5344Y22373D01*
X5070Y22409D01*
D02*
G37*
G36*
X25800Y15559D02*
X25624Y15524D01*
X25476Y15424D01*
X25376Y15276D01*
X25341Y15100D01*
X25376Y14924D01*
X25476Y14776D01*
X25624Y14676D01*
X25800Y14641D01*
X25976Y14676D01*
X26124Y14776D01*
X26224Y14924D01*
X26259Y15100D01*
X26224Y15276D01*
X26124Y15424D01*
X25976Y15524D01*
X25800Y15559D01*
D02*
G37*
G36*
X21150Y19656D02*
X21150Y19656D01*
X17600D01*
X17483Y19633D01*
X17384Y19566D01*
X17384Y19566D01*
X13048Y15231D01*
X5650D01*
X5600Y15353D01*
X5819Y15521D01*
X5987Y15740D01*
X6093Y15996D01*
X6129Y16270D01*
X6093Y16544D01*
X5987Y16800D01*
X5819Y17019D01*
X5600Y17187D01*
X5344Y17293D01*
X5070Y17329D01*
X4796Y17293D01*
X4540Y17187D01*
X4321Y17019D01*
X4153Y16800D01*
X4047Y16544D01*
X4011Y16270D01*
X4047Y15996D01*
X4153Y15740D01*
X4321Y15521D01*
X4540Y15353D01*
X4490Y15231D01*
X4002D01*
X3460Y15772D01*
X3553Y15996D01*
X3589Y16270D01*
X3553Y16544D01*
X3447Y16800D01*
X3279Y17019D01*
X3060Y17187D01*
X2804Y17293D01*
X2530Y17329D01*
X2256Y17293D01*
X2000Y17187D01*
X1781Y17019D01*
X1613Y16800D01*
X1507Y16544D01*
X1471Y16270D01*
X1507Y15996D01*
X1613Y15740D01*
X1781Y15521D01*
X2000Y15353D01*
X2256Y15247D01*
X2530Y15211D01*
X2804Y15247D01*
X3028Y15340D01*
X3659Y14709D01*
X3659Y14709D01*
X3758Y14642D01*
X3758Y14642D01*
X3758Y14642D01*
D01*
X3758Y14642D01*
X3758Y14642D01*
X3875Y14619D01*
X3875Y14619D01*
X4306D01*
X4347Y14499D01*
X4321Y14479D01*
X4153Y14260D01*
X4047Y14004D01*
X4011Y13730D01*
X4047Y13456D01*
X4153Y13200D01*
X4321Y12981D01*
X4540Y12813D01*
X4796Y12707D01*
X5070Y12671D01*
X5344Y12707D01*
X5600Y12813D01*
X5819Y12981D01*
X5987Y13200D01*
X6093Y13456D01*
X6129Y13730D01*
X6093Y14004D01*
X5987Y14260D01*
X5819Y14479D01*
X5793Y14499D01*
X5834Y14619D01*
X13175D01*
X13175Y14619D01*
X13292Y14642D01*
X13391Y14709D01*
X17727Y19044D01*
X21023D01*
X23219Y16848D01*
Y15987D01*
X23201Y15974D01*
X23101Y15826D01*
X23066Y15650D01*
X23101Y15474D01*
X23201Y15326D01*
X23349Y15226D01*
X23525Y15191D01*
X23701Y15226D01*
X23849Y15326D01*
X23949Y15474D01*
X23984Y15650D01*
X23949Y15826D01*
X23849Y15974D01*
X23831Y15987D01*
Y16975D01*
X23831Y16975D01*
X23808Y17092D01*
X23741Y17191D01*
X21366Y19566D01*
X21267Y19633D01*
X21150Y19656D01*
D02*
G37*
G36*
X2530Y19869D02*
X2256Y19833D01*
X2000Y19727D01*
X1781Y19559D01*
X1613Y19340D01*
X1507Y19084D01*
X1471Y18810D01*
X1507Y18536D01*
X1613Y18280D01*
X1781Y18061D01*
X2000Y17893D01*
X2256Y17787D01*
X2530Y17751D01*
X2804Y17787D01*
X3060Y17893D01*
X3279Y18061D01*
X3447Y18280D01*
X3553Y18536D01*
X3589Y18810D01*
X3553Y19084D01*
X3447Y19340D01*
X3279Y19559D01*
X3060Y19727D01*
X2804Y19833D01*
X2530Y19869D01*
D02*
G37*
G36*
X12076Y21237D02*
X11861Y21194D01*
X11679Y21073D01*
X11558Y20891D01*
X11515Y20676D01*
X11558Y20461D01*
X11679Y20279D01*
X11861Y20158D01*
X12076Y20115D01*
X12291Y20158D01*
X12473Y20279D01*
X12594Y20461D01*
X12637Y20676D01*
X12594Y20891D01*
X12473Y21073D01*
X12291Y21194D01*
X12076Y21237D01*
D02*
G37*
G36*
X2530Y22409D02*
X2256Y22373D01*
X2000Y22267D01*
X1781Y22099D01*
X1613Y21880D01*
X1507Y21624D01*
X1471Y21350D01*
X1507Y21076D01*
X1613Y20820D01*
X1781Y20601D01*
X2000Y20433D01*
X2256Y20327D01*
X2530Y20291D01*
X2804Y20327D01*
X3060Y20433D01*
X3279Y20601D01*
X3447Y20820D01*
X3553Y21076D01*
X3589Y21350D01*
X3553Y21624D01*
X3447Y21880D01*
X3279Y22099D01*
X3060Y22267D01*
X2804Y22373D01*
X2530Y22409D01*
D02*
G37*
G36*
X19900Y20734D02*
X19724Y20699D01*
X19576Y20599D01*
X19476Y20451D01*
X19441Y20275D01*
X19476Y20099D01*
X19576Y19951D01*
X19724Y19851D01*
X19900Y19816D01*
X20076Y19851D01*
X20224Y19951D01*
X20324Y20099D01*
X20359Y20275D01*
X20324Y20451D01*
X20224Y20599D01*
X20076Y20699D01*
X19900Y20734D01*
D02*
G37*
G36*
X5070Y19869D02*
X4796Y19833D01*
X4540Y19727D01*
X4321Y19559D01*
X4153Y19340D01*
X4047Y19084D01*
X4011Y18810D01*
X4047Y18536D01*
X4153Y18280D01*
X4321Y18061D01*
X4540Y17893D01*
X4796Y17787D01*
X5070Y17751D01*
X5344Y17787D01*
X5600Y17893D01*
X5819Y18061D01*
X5987Y18280D01*
X6093Y18536D01*
X6129Y18810D01*
X6093Y19084D01*
X5987Y19340D01*
X5819Y19559D01*
X5600Y19727D01*
X5344Y19833D01*
X5070Y19869D01*
D02*
G37*
G36*
X14950Y19809D02*
X14774Y19774D01*
X14626Y19674D01*
X14526Y19526D01*
X14491Y19350D01*
X14526Y19174D01*
X14626Y19026D01*
X14774Y18926D01*
X14950Y18891D01*
X15126Y18926D01*
X15274Y19026D01*
X15374Y19174D01*
X15409Y19350D01*
X15374Y19526D01*
X15274Y19674D01*
X15126Y19774D01*
X14950Y19809D01*
D02*
G37*
%LPD*%
D25*
X10570Y15850D02*
X11850D01*
X5070Y21350D02*
X10570Y15850D01*
X5070Y8650D02*
X9135Y12715D01*
X18050Y16450D02*
Y18450D01*
X14315Y12715D02*
X18050Y16450D01*
X9135Y12715D02*
X14315D01*
X23525Y15650D02*
Y16975D01*
X21150Y19350D02*
X23525Y16975D01*
X17600Y19350D02*
X21150D01*
X2530Y16270D02*
X3875Y14925D01*
X13175D01*
X17600Y19350D01*
D28*
X23435Y3570D02*
D03*
X25975D02*
D03*
X13045Y3570D02*
D03*
D29*
X28515Y3570D02*
D03*
X10505Y3570D02*
D03*
D30*
X2530Y26430D02*
D03*
X5070Y21350D02*
D03*
X2530D02*
D03*
Y23890D02*
D03*
X5070D02*
D03*
X2530Y3570D02*
D03*
Y6110D02*
D03*
X5070D02*
D03*
X2530Y13730D02*
D03*
X5070Y11190D02*
D03*
X2530D02*
D03*
Y8650D02*
D03*
X5070Y13730D02*
D03*
Y8650D02*
D03*
Y16270D02*
D03*
X2530Y18810D02*
D03*
X5070D02*
D03*
X2530Y16270D02*
D03*
X5070Y3570D02*
D03*
D31*
Y26430D02*
D03*
D32*
X24260Y27735D02*
D03*
Y26465D02*
D03*
X29340D02*
D03*
X28070D02*
D03*
X26800D02*
D03*
X25530D02*
D03*
Y27735D02*
D03*
X26800D02*
D03*
X28070D02*
D03*
X29340D02*
D03*
D33*
X8000Y7380D02*
D03*
Y22620D02*
D03*
D34*
X25800Y15100D02*
D03*
X23125Y13675D02*
D03*
X24000Y13975D02*
D03*
X14950Y19350D02*
D03*
X20625Y9750D02*
D03*
X6675Y16075D02*
D03*
X11850Y15850D02*
D03*
X29515Y14375D02*
D03*
X28050D02*
D03*
X23425Y11600D02*
D03*
X29515Y8635D02*
D03*
X28050D02*
D03*
X9725Y9100D02*
D03*
X20400Y14250D02*
D03*
X24950Y14000D02*
D03*
X18675Y14750D02*
D03*
X13575Y16150D02*
D03*
X23525Y15650D02*
D03*
X13475Y13950D02*
D03*
X16812Y16562D02*
D03*
X18050Y18450D02*
D03*
X19900Y20275D02*
D03*
X18875Y19900D02*
D03*
X20400Y15700D02*
D03*
X26675Y11950D02*
D03*
X7750Y5175D02*
D03*
X8450Y26600D02*
D03*
X11575Y28725D02*
D03*
X12850Y24375D02*
D03*
D42*
X20900Y17544D02*
D03*
X14700Y22350D02*
D03*
X12000Y18200D02*
D03*
X12076Y20676D02*
D03*
X10058Y25125D02*
D03*
M02*
