%FSLAX43Y43*%
%MOMM*%
G71*
G01*
G75*
G04 Layer_Physical_Order=1*
G04 Layer_Color=255*
%ADD10R,0.650X0.500*%
%ADD11R,1.600X1.000*%
%ADD12R,2.500X3.000*%
%ADD13R,0.675X0.250*%
%ADD14R,0.250X0.675*%
%ADD15R,1.500X1.100*%
%ADD16R,0.400X0.400*%
%ADD17R,1.400X0.600*%
%ADD18R,0.650X0.800*%
%ADD19R,1.000X0.950*%
%ADD20R,0.600X0.900*%
%ADD21R,0.800X0.650*%
%ADD22R,0.500X0.650*%
%ADD23R,0.900X0.600*%
%ADD24C,0.254*%
%ADD25C,0.200*%
%ADD26C,0.300*%
%ADD27C,0.250*%
%ADD28C,1.700*%
%ADD29R,1.700X1.700*%
%ADD30C,1.800*%
%ADD31R,1.800X1.800*%
%ADD32C,1.050*%
%ADD33C,2.000*%
%ADD34C,0.600*%
G36*
X30596Y429D02*
X404D01*
Y13450D01*
X388Y13528D01*
X344Y13594D01*
X278Y13638D01*
X200Y13654D01*
X0D01*
Y16346D01*
X200D01*
X278Y16362D01*
X344Y16406D01*
X388Y16472D01*
X404Y16550D01*
Y29596D01*
X30596D01*
Y429D01*
D02*
G37*
%LPC*%
G36*
X5070Y9709D02*
X4796Y9673D01*
X4540Y9567D01*
X4321Y9399D01*
X4153Y9180D01*
X4047Y8924D01*
X4011Y8650D01*
X4047Y8376D01*
X4153Y8120D01*
X4321Y7901D01*
X4540Y7733D01*
X4796Y7627D01*
X5070Y7591D01*
X5344Y7627D01*
X5600Y7733D01*
X5819Y7901D01*
X5987Y8120D01*
X6093Y8376D01*
X6129Y8650D01*
X6093Y8924D01*
X5987Y9180D01*
X5819Y9399D01*
X5600Y9567D01*
X5344Y9673D01*
X5070Y9709D01*
D02*
G37*
G36*
X19638Y9475D02*
X19275D01*
Y8962D01*
X19638D01*
Y9475D01*
D02*
G37*
G36*
X20125D02*
X19763D01*
Y8962D01*
X20125D01*
Y9475D01*
D02*
G37*
G36*
X11637Y9038D02*
X10325D01*
Y7475D01*
X11637D01*
Y9038D01*
D02*
G37*
G36*
X13075D02*
X11762D01*
Y7475D01*
X13075D01*
Y9038D01*
D02*
G37*
G36*
X2530Y9709D02*
X2256Y9673D01*
X2000Y9567D01*
X1781Y9399D01*
X1613Y9180D01*
X1507Y8924D01*
X1471Y8650D01*
X1507Y8376D01*
X1613Y8120D01*
X1781Y7901D01*
X2000Y7733D01*
X2256Y7627D01*
X2530Y7591D01*
X2804Y7627D01*
X3060Y7733D01*
X3279Y7901D01*
X3447Y8120D01*
X3553Y8376D01*
X3589Y8650D01*
X3553Y8924D01*
X3447Y9180D01*
X3279Y9399D01*
X3060Y9567D01*
X2804Y9673D01*
X2530Y9709D01*
D02*
G37*
G36*
X27987Y9613D02*
X27600D01*
Y9150D01*
X27987D01*
Y9613D01*
D02*
G37*
G36*
X19638Y10238D02*
X19275D01*
Y9725D01*
X19638D01*
Y10238D01*
D02*
G37*
G36*
X20125D02*
X19763D01*
Y9725D01*
X20125D01*
Y10238D01*
D02*
G37*
G36*
X2530Y12249D02*
X2256Y12213D01*
X2000Y12107D01*
X1781Y11939D01*
X1613Y11720D01*
X1507Y11464D01*
X1471Y11190D01*
X1507Y10916D01*
X1613Y10660D01*
X1781Y10441D01*
X2000Y10273D01*
X2256Y10167D01*
X2530Y10131D01*
X2804Y10167D01*
X3060Y10273D01*
X3279Y10441D01*
X3447Y10660D01*
X3553Y10916D01*
X3589Y11190D01*
X3553Y11464D01*
X3447Y11720D01*
X3279Y11939D01*
X3060Y12107D01*
X2804Y12213D01*
X2530Y12249D01*
D02*
G37*
G36*
X29965Y9613D02*
X29577D01*
Y9150D01*
X29965D01*
Y9613D01*
D02*
G37*
G36*
X11637Y10725D02*
X10325D01*
Y9163D01*
X11637D01*
Y10725D01*
D02*
G37*
G36*
X13075D02*
X11762D01*
Y9163D01*
X13075D01*
Y10725D01*
D02*
G37*
G36*
X5008Y4596D02*
X4802Y4569D01*
X4553Y4465D01*
X4339Y4301D01*
X4175Y4087D01*
X4071Y3838D01*
X4044Y3632D01*
X5008D01*
Y4596D01*
D02*
G37*
G36*
X5133D02*
Y3632D01*
X6096D01*
X6069Y3838D01*
X5965Y4087D01*
X5801Y4301D01*
X5587Y4465D01*
X5338Y4569D01*
X5133Y4596D01*
D02*
G37*
G36*
X7263Y4495D02*
X6950D01*
Y4108D01*
X7263D01*
Y4495D01*
D02*
G37*
G36*
X5008Y3507D02*
X4044D01*
X4071Y3302D01*
X4175Y3053D01*
X4339Y2839D01*
X4553Y2675D01*
X4802Y2571D01*
X5008Y2544D01*
Y3507D01*
D02*
G37*
G36*
X6096D02*
X5133D01*
Y2544D01*
X5338Y2571D01*
X5587Y2675D01*
X5801Y2839D01*
X5965Y3053D01*
X6069Y3302D01*
X6096Y3507D01*
D02*
G37*
G36*
X29515Y4570D02*
X27515D01*
Y2570D01*
X29515D01*
Y4570D01*
D02*
G37*
G36*
X7700Y4495D02*
X7388D01*
Y4108D01*
X7700D01*
Y4495D01*
D02*
G37*
G36*
X5070Y7169D02*
X4796Y7133D01*
X4540Y7027D01*
X4321Y6859D01*
X4153Y6640D01*
X4047Y6384D01*
X4011Y6110D01*
X4047Y5836D01*
X4153Y5580D01*
X4321Y5361D01*
X4540Y5193D01*
X4796Y5087D01*
X5070Y5051D01*
X5344Y5087D01*
X5600Y5193D01*
X5819Y5361D01*
X5987Y5580D01*
X6093Y5836D01*
X6129Y6110D01*
X6093Y6384D01*
X5987Y6640D01*
X5819Y6859D01*
X5600Y7027D01*
X5344Y7133D01*
X5070Y7169D01*
D02*
G37*
G36*
X8000Y8540D02*
X7700Y8500D01*
X7420Y8385D01*
X7180Y8200D01*
X6995Y7960D01*
X6880Y7680D01*
X6840Y7380D01*
X6880Y7080D01*
X6995Y6800D01*
X7180Y6560D01*
X7420Y6375D01*
X7700Y6260D01*
X8000Y6220D01*
X8300Y6260D01*
X8580Y6375D01*
X8820Y6560D01*
X9005Y6800D01*
X9120Y7080D01*
X9160Y7380D01*
X9120Y7680D01*
X9005Y7960D01*
X8820Y8200D01*
X8580Y8385D01*
X8300Y8500D01*
X8000Y8540D01*
D02*
G37*
G36*
X11865Y6450D02*
Y6450D01*
X11775Y6450D01*
X11775D01*
D01*
X11685Y6450D01*
X11685Y6450D01*
Y6450D01*
X10575D01*
Y5830D01*
X10253Y5507D01*
X10175Y5392D01*
X10148Y5255D01*
Y4570D01*
X9505D01*
Y3377D01*
X8825D01*
Y3670D01*
X8750D01*
Y4057D01*
X7900D01*
Y3670D01*
X7825Y3670D01*
Y3670D01*
X7790D01*
X7700Y3760D01*
Y3983D01*
X6950D01*
Y3620D01*
X6875D01*
Y3150D01*
X5807Y2082D01*
X4523D01*
X3481Y3123D01*
X3553Y3296D01*
X3589Y3570D01*
X3553Y3844D01*
X3447Y4100D01*
X3279Y4319D01*
X3060Y4487D01*
X2804Y4593D01*
X2530Y4629D01*
X2256Y4593D01*
X2000Y4487D01*
X1781Y4319D01*
X1613Y4100D01*
X1507Y3844D01*
X1471Y3570D01*
X1507Y3296D01*
X1613Y3040D01*
X1781Y2821D01*
X2000Y2653D01*
X2256Y2547D01*
X2530Y2511D01*
X2804Y2547D01*
X2977Y2619D01*
X4123Y1473D01*
X4123Y1473D01*
X4123D01*
X4123Y1473D01*
X4123D01*
X4123Y1473D01*
Y1473D01*
Y1473D01*
D01*
D01*
X4123D01*
Y1473D01*
X4238Y1395D01*
X4375Y1368D01*
X5955D01*
X6092Y1395D01*
X6207Y1473D01*
X7305Y2570D01*
X7775D01*
D01*
X7775D01*
X7825Y2520D01*
Y2370D01*
X8825D01*
Y2663D01*
X9505D01*
Y2570D01*
X11505D01*
Y4570D01*
X10862D01*
Y5107D01*
X11155Y5400D01*
X11685D01*
X11685Y5400D01*
Y5400D01*
X11775Y5400D01*
X11775D01*
D01*
X11865Y5400D01*
X11865Y5400D01*
Y5400D01*
X12395D01*
X12688Y5107D01*
Y4505D01*
X12541Y4444D01*
X12332Y4283D01*
X12172Y4074D01*
X12071Y3831D01*
X12036Y3570D01*
X12071Y3309D01*
X12172Y3066D01*
X12332Y2857D01*
X12541Y2697D01*
X12784Y2596D01*
X13045Y2561D01*
X13306Y2596D01*
X13549Y2697D01*
X13758Y2857D01*
X13918Y3066D01*
X14019Y3309D01*
X14054Y3570D01*
X14019Y3831D01*
X13918Y4074D01*
X13758Y4283D01*
X13549Y4444D01*
X13402Y4505D01*
Y5255D01*
X13375Y5392D01*
X13297Y5507D01*
X12975Y5830D01*
Y6450D01*
X11865D01*
X11865Y6450D01*
D02*
G37*
G36*
X8263Y4695D02*
X7900D01*
Y4182D01*
X8263D01*
Y4695D01*
D02*
G37*
G36*
X8750D02*
X8388D01*
Y4182D01*
X8750D01*
Y4695D01*
D02*
G37*
G36*
X2530Y7169D02*
X2256Y7133D01*
X2000Y7027D01*
X1781Y6859D01*
X1613Y6640D01*
X1507Y6384D01*
X1471Y6110D01*
X1507Y5836D01*
X1613Y5580D01*
X1781Y5361D01*
X2000Y5193D01*
X2256Y5087D01*
X2530Y5051D01*
X2804Y5087D01*
X3060Y5193D01*
X3279Y5361D01*
X3447Y5580D01*
X3553Y5836D01*
X3589Y6110D01*
X3553Y6384D01*
X3447Y6640D01*
X3279Y6859D01*
X3060Y7027D01*
X2804Y7133D01*
X2530Y7169D01*
D02*
G37*
G36*
X3556Y26368D02*
X2592D01*
Y25404D01*
X2798Y25431D01*
X3047Y25535D01*
X3261Y25699D01*
X3425Y25913D01*
X3529Y26162D01*
X3556Y26368D01*
D02*
G37*
G36*
X9837Y26538D02*
X9075D01*
Y26175D01*
X9837D01*
Y26538D01*
D02*
G37*
G36*
X10725D02*
X9962D01*
Y26175D01*
X10725D01*
Y26538D01*
D02*
G37*
G36*
X2530Y24949D02*
X2256Y24913D01*
X2000Y24807D01*
X1781Y24639D01*
X1613Y24420D01*
X1507Y24164D01*
X1471Y23890D01*
X1507Y23616D01*
X1613Y23360D01*
X1781Y23141D01*
X2000Y22973D01*
X2256Y22867D01*
X2530Y22831D01*
X2804Y22867D01*
X3060Y22973D01*
X3279Y23141D01*
X3447Y23360D01*
X3553Y23616D01*
X3589Y23890D01*
X3553Y24164D01*
X3447Y24420D01*
X3279Y24639D01*
X3060Y24807D01*
X2804Y24913D01*
X2530Y24949D01*
D02*
G37*
G36*
X13300Y25337D02*
X12913D01*
Y24875D01*
X13300D01*
Y25337D01*
D02*
G37*
G36*
X2467Y26368D02*
X1504D01*
X1531Y26162D01*
X1635Y25913D01*
X1799Y25699D01*
X2013Y25535D01*
X2262Y25431D01*
X2467Y25404D01*
Y26368D01*
D02*
G37*
G36*
Y27456D02*
X2262Y27429D01*
X2013Y27325D01*
X1799Y27161D01*
X1635Y26947D01*
X1531Y26698D01*
X1504Y26493D01*
X2467D01*
Y27456D01*
D02*
G37*
G36*
X24198Y28382D02*
X24090Y28368D01*
X23932Y28303D01*
X23796Y28199D01*
X23692Y28063D01*
X23627Y27905D01*
X23613Y27798D01*
X24198D01*
Y28382D01*
D02*
G37*
G36*
X11512Y28225D02*
X11000D01*
Y27862D01*
X11512D01*
Y28225D01*
D02*
G37*
G36*
X29340Y28416D02*
X29164Y28393D01*
X29000Y28325D01*
X28859Y28216D01*
X28753Y28078D01*
X28626Y28078D01*
X28534Y28199D01*
X28398Y28303D01*
X28240Y28368D01*
X28132Y28382D01*
Y27735D01*
X28007D01*
Y28382D01*
X27900Y28368D01*
X27742Y28303D01*
X27606Y28199D01*
X27502Y28063D01*
X27499Y28054D01*
X27372D01*
X27368Y28063D01*
X27264Y28199D01*
X27128Y28303D01*
X26970Y28368D01*
X26862Y28382D01*
Y27735D01*
X26737D01*
Y28382D01*
X26630Y28368D01*
X26472Y28303D01*
X26336Y28199D01*
X26244Y28078D01*
X26117Y28078D01*
X26011Y28216D01*
X25870Y28325D01*
X25706Y28393D01*
X25530Y28416D01*
X25354Y28393D01*
X25190Y28325D01*
X25049Y28216D01*
X24943Y28078D01*
X24816Y28078D01*
X24724Y28199D01*
X24588Y28303D01*
X24430Y28368D01*
X24323Y28382D01*
Y27735D01*
X24260D01*
Y27673D01*
X23613D01*
X23627Y27565D01*
X23692Y27407D01*
X23796Y27271D01*
X23917Y27179D01*
Y27052D01*
X23779Y26946D01*
X23670Y26805D01*
X23656Y26771D01*
X23040D01*
X22923Y26748D01*
X22824Y26681D01*
X22824Y26681D01*
X17834Y21691D01*
X17767Y21592D01*
X17744Y21475D01*
X17744Y21475D01*
Y18787D01*
X17726Y18774D01*
X17626Y18626D01*
X17591Y18450D01*
X17626Y18274D01*
X17726Y18126D01*
X17874Y18026D01*
X18050Y17991D01*
X18072Y17996D01*
X18259Y17809D01*
Y17809D01*
D01*
Y17809D01*
X18259Y17809D01*
D01*
D01*
X18259D01*
X18259Y17809D01*
Y17809D01*
X18259Y17809D01*
Y17809D01*
X18296Y17784D01*
X18247Y17667D01*
X18175Y17681D01*
X18175Y17681D01*
X13850D01*
X13850Y17681D01*
X13733Y17658D01*
X13634Y17591D01*
X13473Y17431D01*
X5925D01*
X5808Y17408D01*
X5709Y17341D01*
X5568Y17200D01*
X5344Y17293D01*
X5070Y17329D01*
X4796Y17293D01*
X4540Y17187D01*
X4321Y17019D01*
X4153Y16800D01*
X4047Y16544D01*
X4011Y16270D01*
X4047Y15996D01*
X4153Y15740D01*
X4321Y15521D01*
X4445Y15426D01*
X4404Y15306D01*
X3800D01*
X3800Y15306D01*
X3683Y15283D01*
X3584Y15216D01*
X3584Y15216D01*
X3028Y14660D01*
X2804Y14753D01*
X2530Y14789D01*
X2256Y14753D01*
X2000Y14647D01*
X1781Y14479D01*
X1613Y14260D01*
X1507Y14004D01*
X1471Y13730D01*
X1507Y13456D01*
X1613Y13200D01*
X1781Y12981D01*
X2000Y12813D01*
X2256Y12707D01*
X2530Y12671D01*
X2804Y12707D01*
X3060Y12813D01*
X3279Y12981D01*
X3447Y13200D01*
X3553Y13456D01*
X3589Y13730D01*
X3553Y14004D01*
X3460Y14228D01*
X3927Y14694D01*
X4404D01*
X4445Y14574D01*
X4321Y14479D01*
X4153Y14260D01*
X4047Y14004D01*
X4011Y13730D01*
X4047Y13456D01*
X4153Y13200D01*
X4321Y12981D01*
X4540Y12813D01*
X4796Y12707D01*
X5070Y12671D01*
X5344Y12707D01*
X5600Y12813D01*
X5819Y12981D01*
X5987Y13200D01*
X6080Y13424D01*
X12468D01*
X13384Y12509D01*
X13384Y12509D01*
X13443Y12469D01*
X13483Y12442D01*
X13600Y12419D01*
X15175D01*
X15175Y12419D01*
X15292Y12442D01*
X15391Y12509D01*
X15708Y12825D01*
X16400D01*
Y13044D01*
X17575D01*
Y12800D01*
X20225D01*
Y12875D01*
X20338D01*
Y13438D01*
X20463D01*
Y12875D01*
X20575D01*
Y12800D01*
X20594D01*
Y12102D01*
X20317Y11825D01*
X20200Y11873D01*
Y12050D01*
X19200D01*
Y11881D01*
X19050D01*
Y12025D01*
X17050D01*
Y11125D01*
D01*
Y11125D01*
X17025Y11100D01*
X16950D01*
Y9700D01*
X18950D01*
Y11100D01*
D01*
Y11100D01*
X18975Y11125D01*
X19050D01*
Y11269D01*
X19200D01*
Y10750D01*
X19275D01*
Y10363D01*
X20125D01*
Y10750D01*
X20200D01*
Y11094D01*
X20325D01*
X20325Y11094D01*
X20442Y11117D01*
X20541Y11184D01*
X20977Y11619D01*
X21094Y11571D01*
Y8977D01*
X20317Y8200D01*
X20200Y8249D01*
Y8450D01*
X20125D01*
Y8837D01*
X19275D01*
Y8450D01*
X19200D01*
Y8106D01*
X18950D01*
Y8500D01*
X16950D01*
Y7100D01*
X18950D01*
Y7494D01*
X19200D01*
Y7150D01*
X20200D01*
Y7494D01*
X20350D01*
X20350Y7494D01*
X20467Y7517D01*
X20566Y7584D01*
X21616Y8634D01*
X21616Y8634D01*
X21683Y8733D01*
X21706Y8850D01*
X21706Y8850D01*
Y12396D01*
X21823Y12444D01*
X21934Y12334D01*
X21934Y12334D01*
X22033Y12267D01*
X22033Y12267D01*
X22033Y12267D01*
D01*
X22033Y12267D01*
X22033Y12267D01*
X22150Y12244D01*
X22150Y12244D01*
X23550D01*
Y12225D01*
X23850D01*
Y12100D01*
X23850D01*
Y11992D01*
X23738Y11932D01*
X23601Y12024D01*
X23425Y12059D01*
X23249Y12024D01*
X23101Y11924D01*
X23001Y11776D01*
X22966Y11600D01*
X23001Y11424D01*
X23101Y11276D01*
X23249Y11176D01*
X23425Y11141D01*
X23601Y11176D01*
X23738Y11268D01*
X23850Y11208D01*
Y11100D01*
X25150D01*
Y11175D01*
X25537D01*
Y11600D01*
Y12025D01*
X25150D01*
Y12100D01*
X24950D01*
Y12225D01*
X24950D01*
Y13575D01*
X24409D01*
X24349Y13687D01*
X24424Y13799D01*
X24459Y13975D01*
X24424Y14151D01*
X24399Y14188D01*
X24459Y14300D01*
X24525D01*
Y14375D01*
X24888D01*
Y14750D01*
X25013D01*
Y14375D01*
X25400D01*
Y14691D01*
X25512Y14751D01*
X25624Y14676D01*
X25800Y14641D01*
X25976Y14676D01*
X26124Y14776D01*
X26224Y14924D01*
X26259Y15100D01*
X26224Y15276D01*
X26165Y15363D01*
X26225Y15475D01*
X26400D01*
Y16525D01*
X25200D01*
D01*
X25200Y16525D01*
X25200D01*
Y16525D01*
D01*
X24124D01*
X24087Y16614D01*
X24157Y16719D01*
X26648D01*
X27094Y16273D01*
Y12825D01*
X27094Y12825D01*
X27117Y12708D01*
X27184Y12609D01*
X27525Y12267D01*
Y11575D01*
X27525Y11575D01*
X27525Y11475D01*
X27525D01*
Y10783D01*
X23219Y6476D01*
X23152Y6377D01*
X23129Y6260D01*
X23129Y6260D01*
Y4526D01*
X22931Y4443D01*
X22722Y4283D01*
X22562Y4074D01*
X22461Y3831D01*
X22426Y3570D01*
X22461Y3309D01*
X22562Y3066D01*
X22722Y2857D01*
X22931Y2697D01*
X23174Y2596D01*
X23435Y2561D01*
X23696Y2596D01*
X23939Y2697D01*
X24148Y2857D01*
X24309Y3066D01*
X24409Y3309D01*
X24444Y3570D01*
X24409Y3831D01*
X24309Y4074D01*
X24148Y4283D01*
X23939Y4443D01*
X23741Y4526D01*
Y6133D01*
X27483Y9875D01*
X27600Y9826D01*
Y9737D01*
X28050D01*
Y9675D01*
X28112D01*
Y9150D01*
X28494D01*
Y7927D01*
X25759Y5191D01*
X25692Y5092D01*
X25669Y4975D01*
X25669Y4975D01*
Y4526D01*
X25471Y4443D01*
X25262Y4283D01*
X25101Y4074D01*
X25001Y3831D01*
X24966Y3570D01*
X25001Y3309D01*
X25101Y3066D01*
X25262Y2857D01*
X25471Y2697D01*
X25714Y2596D01*
X25975Y2561D01*
X26236Y2596D01*
X26479Y2697D01*
X26688Y2857D01*
X26848Y3066D01*
X26949Y3309D01*
X26984Y3570D01*
X26949Y3831D01*
X26848Y4074D01*
X26688Y4283D01*
X26479Y4443D01*
X26281Y4526D01*
Y4848D01*
X29016Y7584D01*
X29016Y7584D01*
X29056Y7643D01*
X29083Y7683D01*
X29106Y7800D01*
Y9150D01*
X29452D01*
Y9675D01*
X29515D01*
Y9737D01*
X29965D01*
Y10200D01*
X29965D01*
Y10200D01*
X30040Y10275D01*
X30040D01*
Y11475D01*
D01*
Y11475D01*
X30040Y11475D01*
Y11575D01*
X30040D01*
Y12775D01*
D01*
Y12775D01*
X30040Y12775D01*
Y12775D01*
X30040D01*
X30040D01*
Y13975D01*
X29924D01*
X29864Y14087D01*
X29939Y14199D01*
X29974Y14375D01*
X29939Y14551D01*
X29839Y14699D01*
X29691Y14799D01*
X29515Y14834D01*
X29339Y14799D01*
X29193Y14701D01*
X29170Y14713D01*
X29081Y14773D01*
Y15520D01*
X29081Y15520D01*
X29058Y15637D01*
X28991Y15736D01*
X28991Y15736D01*
X27136Y17591D01*
X27037Y17658D01*
X26920Y17681D01*
X26920Y17681D01*
X26845D01*
X26842Y17683D01*
X26725Y17706D01*
X26725Y17706D01*
X22899D01*
X22851Y17823D01*
X29556Y24529D01*
X29623Y24628D01*
X29646Y24745D01*
X29646Y24745D01*
X29646Y24745D01*
Y24745D01*
Y25861D01*
X29680Y25875D01*
X29821Y25984D01*
X29930Y26125D01*
X29998Y26289D01*
X30021Y26465D01*
X29998Y26641D01*
X29930Y26805D01*
X29821Y26946D01*
X29704Y27037D01*
Y27163D01*
X29821Y27254D01*
X29930Y27395D01*
X29998Y27559D01*
X30021Y27735D01*
X29998Y27911D01*
X29930Y28075D01*
X29821Y28216D01*
X29680Y28325D01*
X29516Y28393D01*
X29340Y28416D01*
D02*
G37*
G36*
X2592Y27456D02*
Y26493D01*
X3556D01*
X3529Y26698D01*
X3425Y26947D01*
X3261Y27161D01*
X3047Y27325D01*
X2798Y27429D01*
X2592Y27456D01*
D02*
G37*
G36*
X9837Y27025D02*
X9075D01*
Y26663D01*
X9837D01*
Y27025D01*
D02*
G37*
G36*
X13325Y28300D02*
X12025D01*
Y28225D01*
X11637D01*
Y27800D01*
X11575D01*
Y27737D01*
X11000D01*
Y27699D01*
X10883Y27650D01*
X10766Y27766D01*
X10667Y27833D01*
X10550Y27856D01*
X10550Y27856D01*
X8900D01*
Y28050D01*
X7100D01*
Y27856D01*
X6190D01*
X6073Y27833D01*
X6033Y27806D01*
X5974Y27766D01*
X5974Y27766D01*
X5687Y27480D01*
X4020D01*
Y25380D01*
X6120D01*
Y27047D01*
X6317Y27244D01*
X7100D01*
Y27050D01*
X8900D01*
Y27244D01*
X10423D01*
X10525Y27142D01*
X10476Y27025D01*
X9962D01*
Y26663D01*
X10725D01*
Y26776D01*
X10842Y26825D01*
X11175Y26492D01*
Y26125D01*
X11730D01*
X11790Y26013D01*
X11742Y25942D01*
X11719Y25825D01*
X11719Y25825D01*
Y25702D01*
X11542Y25525D01*
X11175D01*
Y25431D01*
X10395D01*
X10382Y25449D01*
X10233Y25549D01*
X10058Y25584D01*
X9882Y25549D01*
X9733Y25449D01*
X9721Y25431D01*
X9080D01*
X8900Y25611D01*
Y26150D01*
X7100D01*
Y25150D01*
X8496D01*
X8737Y24909D01*
X8737Y24909D01*
X8796Y24869D01*
X8836Y24842D01*
X8953Y24819D01*
X9721D01*
X9733Y24801D01*
X9882Y24701D01*
X10058Y24666D01*
X10233Y24701D01*
X10382Y24801D01*
X10395Y24819D01*
X11175D01*
Y24725D01*
X11975D01*
Y25092D01*
X12241Y25359D01*
X12241Y25359D01*
X12278Y25414D01*
X12400Y25377D01*
Y24875D01*
X12788D01*
Y25400D01*
X12850D01*
Y25462D01*
X13300D01*
Y25925D01*
X13300D01*
Y25925D01*
X13375Y26000D01*
X13375D01*
Y27200D01*
X13325D01*
Y27300D01*
X13325D01*
Y28300D01*
D02*
G37*
G36*
X5070Y24949D02*
X4796Y24913D01*
X4540Y24807D01*
X4321Y24639D01*
X4153Y24420D01*
X4047Y24164D01*
X4011Y23890D01*
X4047Y23616D01*
X4153Y23360D01*
X4321Y23141D01*
X4406Y23076D01*
X4365Y22956D01*
X3830D01*
X3713Y22933D01*
X3614Y22866D01*
X3028Y22280D01*
X2804Y22373D01*
X2530Y22409D01*
X2256Y22373D01*
X2000Y22267D01*
X1781Y22099D01*
X1613Y21880D01*
X1507Y21624D01*
X1471Y21350D01*
X1507Y21076D01*
X1613Y20820D01*
X1781Y20601D01*
X2000Y20433D01*
X2256Y20327D01*
X2530Y20291D01*
X2804Y20327D01*
X3060Y20433D01*
X3279Y20601D01*
X3447Y20820D01*
X3553Y21076D01*
X3589Y21350D01*
X3553Y21624D01*
X3460Y21848D01*
X3957Y22344D01*
X4443D01*
X4484Y22224D01*
X4321Y22099D01*
X4153Y21880D01*
X4047Y21624D01*
X4011Y21350D01*
X4047Y21076D01*
X4153Y20820D01*
X4321Y20601D01*
X4451Y20501D01*
X4411Y20381D01*
X3795D01*
X3795Y20381D01*
X3678Y20358D01*
X3579Y20291D01*
X3579Y20291D01*
X3028Y19740D01*
X2804Y19833D01*
X2530Y19869D01*
X2256Y19833D01*
X2000Y19727D01*
X1781Y19559D01*
X1613Y19340D01*
X1507Y19084D01*
X1471Y18810D01*
X1507Y18536D01*
X1613Y18280D01*
X1781Y18061D01*
X2000Y17893D01*
X2256Y17787D01*
X2530Y17751D01*
X2804Y17787D01*
X3060Y17893D01*
X3279Y18061D01*
X3447Y18280D01*
X3553Y18536D01*
X3589Y18810D01*
X3553Y19084D01*
X3460Y19308D01*
X3922Y19769D01*
X4398D01*
X4438Y19649D01*
X4321Y19559D01*
X4153Y19340D01*
X4047Y19084D01*
X4011Y18810D01*
X4047Y18536D01*
X4153Y18280D01*
X4321Y18061D01*
X4540Y17893D01*
X4796Y17787D01*
X5070Y17751D01*
X5344Y17787D01*
X5600Y17893D01*
X5819Y18061D01*
X5987Y18280D01*
X6080Y18504D01*
X9475D01*
Y18400D01*
X10585D01*
X10585Y18400D01*
Y18400D01*
X10675Y18400D01*
X10675D01*
D01*
X10765Y18400D01*
X10765Y18400D01*
Y18400D01*
X11367D01*
X11546Y18222D01*
X11541Y18200D01*
X11576Y18024D01*
X11676Y17876D01*
X11825Y17776D01*
X12000Y17741D01*
X12176Y17776D01*
X12325Y17876D01*
X12337Y17894D01*
X15050D01*
X15050Y17894D01*
X15167Y17917D01*
X15266Y17984D01*
X15883Y18600D01*
X17425D01*
Y20010D01*
X17425Y20010D01*
X17425D01*
X17425Y20100D01*
Y20100D01*
Y20100D01*
X17425Y20190D01*
X17425Y20190D01*
X17425D01*
Y21600D01*
X15883D01*
X15154Y22328D01*
X15159Y22350D01*
X15124Y22526D01*
X15024Y22674D01*
X14876Y22774D01*
X14700Y22809D01*
X14524Y22774D01*
X14376Y22674D01*
X14363Y22656D01*
X12400D01*
X12400Y22656D01*
X12283Y22633D01*
X12184Y22566D01*
X12184Y22566D01*
X11367Y21750D01*
X10765D01*
X10765Y21750D01*
Y21750D01*
X10675Y21750D01*
X10675D01*
D01*
X10585Y21750D01*
X10585Y21750D01*
Y21750D01*
X9475D01*
Y21531D01*
X8667D01*
X8626Y21651D01*
X8820Y21800D01*
X9005Y22040D01*
X9120Y22320D01*
X9160Y22620D01*
X9120Y22920D01*
X9005Y23200D01*
X8820Y23440D01*
X8580Y23625D01*
X8300Y23740D01*
X8000Y23780D01*
X7700Y23740D01*
X7420Y23625D01*
X7180Y23440D01*
X6995Y23200D01*
X6880Y22920D01*
X6840Y22620D01*
X6879Y22324D01*
X6829Y22299D01*
X6762Y22271D01*
X6166Y22866D01*
X6067Y22933D01*
X5950Y22956D01*
X5950Y22956D01*
X5775D01*
X5734Y23076D01*
X5819Y23141D01*
X5987Y23360D01*
X6093Y23616D01*
X6129Y23890D01*
X6093Y24164D01*
X5987Y24420D01*
X5819Y24639D01*
X5600Y24807D01*
X5344Y24913D01*
X5070Y24949D01*
D02*
G37*
G36*
X25787Y12837D02*
X25225D01*
Y12300D01*
X25787D01*
Y12837D01*
D02*
G37*
G36*
X26475D02*
X25912D01*
Y12300D01*
X26475D01*
Y12837D01*
D02*
G37*
G36*
X25787Y13500D02*
X25225D01*
Y12962D01*
X25787D01*
Y13500D01*
D02*
G37*
G36*
X5070Y12249D02*
X4796Y12213D01*
X4540Y12107D01*
X4321Y11939D01*
X4153Y11720D01*
X4047Y11464D01*
X4011Y11190D01*
X4047Y10916D01*
X4153Y10660D01*
X4321Y10441D01*
X4540Y10273D01*
X4796Y10167D01*
X5070Y10131D01*
X5344Y10167D01*
X5600Y10273D01*
X5819Y10441D01*
X5987Y10660D01*
X6093Y10916D01*
X6129Y11190D01*
X6093Y11464D01*
X5987Y11720D01*
X5819Y11939D01*
X5600Y12107D01*
X5344Y12213D01*
X5070Y12249D01*
D02*
G37*
G36*
X26175Y11537D02*
X25662D01*
Y11175D01*
X26175D01*
Y11537D01*
D02*
G37*
G36*
Y12025D02*
X25662D01*
Y11662D01*
X26175D01*
Y12025D01*
D02*
G37*
G36*
X26475Y13500D02*
X25912D01*
Y12962D01*
X26475D01*
Y13500D01*
D02*
G37*
G36*
X2530Y17329D02*
X2256Y17293D01*
X2000Y17187D01*
X1781Y17019D01*
X1613Y16800D01*
X1507Y16544D01*
X1471Y16270D01*
X1507Y15996D01*
X1613Y15740D01*
X1781Y15521D01*
X2000Y15353D01*
X2256Y15247D01*
X2530Y15211D01*
X2804Y15247D01*
X3060Y15353D01*
X3279Y15521D01*
X3447Y15740D01*
X3553Y15996D01*
X3589Y16270D01*
X3553Y16544D01*
X3447Y16800D01*
X3279Y17019D01*
X3060Y17187D01*
X2804Y17293D01*
X2530Y17329D01*
D02*
G37*
%LPD*%
G36*
X23670Y26125D02*
X23779Y25984D01*
X23920Y25875D01*
X24084Y25807D01*
X24260Y25784D01*
X24436Y25807D01*
X24600Y25875D01*
X24741Y25984D01*
X24831Y26101D01*
X24958D01*
X25049Y25984D01*
X25190Y25875D01*
X25354Y25807D01*
X25530Y25784D01*
X25706Y25807D01*
X25870Y25875D01*
X26011Y25984D01*
X26101Y26101D01*
X26229D01*
X26319Y25984D01*
X26460Y25875D01*
X26624Y25807D01*
X26800Y25784D01*
X26976Y25807D01*
X27140Y25875D01*
X27281Y25984D01*
X27372Y26101D01*
X27499D01*
X27589Y25984D01*
X27730Y25875D01*
X27764Y25861D01*
Y24097D01*
X21420Y17752D01*
X21293Y17765D01*
X21224Y17868D01*
X21209Y17878D01*
X21246Y18000D01*
X21375D01*
Y19050D01*
X21300D01*
Y19413D01*
X20925D01*
Y19475D01*
X20862D01*
Y19925D01*
X20550D01*
Y19925D01*
X20450D01*
X20425Y19950D01*
Y19950D01*
X20359D01*
X20299Y20062D01*
X20324Y20099D01*
X20359Y20275D01*
X20324Y20451D01*
X20224Y20599D01*
X20076Y20699D01*
X19900Y20734D01*
X19724Y20699D01*
X19576Y20599D01*
X19476Y20451D01*
X19441Y20275D01*
X19476Y20099D01*
X19501Y20062D01*
X19441Y19950D01*
X19375D01*
Y19425D01*
X19250D01*
Y19425D01*
X18938D01*
Y18975D01*
X18875D01*
Y18912D01*
X18500D01*
Y18805D01*
X18458Y18792D01*
X18356Y18868D01*
Y21348D01*
X23167Y26159D01*
X23656D01*
X23670Y26125D01*
D02*
G37*
G36*
X17650Y16625D02*
X17900D01*
Y16500D01*
X17650D01*
Y16200D01*
X17900D01*
Y16000D01*
X17325D01*
Y15812D01*
X17887D01*
Y15687D01*
X17325D01*
Y15575D01*
X17250D01*
Y15556D01*
X16827D01*
X16400Y15983D01*
Y16675D01*
X15200D01*
Y16600D01*
X15125D01*
Y16600D01*
X14663D01*
Y16150D01*
X14600D01*
Y16087D01*
X14075D01*
Y15781D01*
X12656D01*
X12309Y15850D01*
X12274Y16026D01*
X12174Y16174D01*
X12026Y16274D01*
X11850Y16309D01*
X11674Y16274D01*
X11526Y16174D01*
X11426Y16026D01*
X11391Y15850D01*
X11426Y15674D01*
X11526Y15526D01*
X11674Y15426D01*
X11850Y15391D01*
X11872Y15396D01*
X12009Y15259D01*
X12009Y15259D01*
X12108Y15192D01*
X12225Y15169D01*
X12225Y15169D01*
X12871D01*
X12919Y15052D01*
X12398Y14531D01*
X6577D01*
X5891Y15216D01*
X5792Y15283D01*
X5717Y15297D01*
X5689Y15421D01*
X5819Y15521D01*
X5987Y15740D01*
X6093Y15996D01*
X6129Y16270D01*
X6093Y16544D01*
X6023Y16714D01*
X6093Y16819D01*
X13600D01*
X13600Y16819D01*
X13717Y16842D01*
X13816Y16909D01*
X13977Y17069D01*
X17650D01*
Y16625D01*
D02*
G37*
%LPC*%
G36*
X21300Y19925D02*
X20987D01*
Y19538D01*
X21300D01*
Y19925D01*
D02*
G37*
G36*
X18813Y19425D02*
X18500D01*
Y19037D01*
X18813D01*
Y19425D01*
D02*
G37*
G36*
X14538Y16600D02*
X14075D01*
Y16212D01*
X14538D01*
Y16600D01*
D02*
G37*
%LPD*%
D10*
X18525Y11575D02*
D03*
X17575D02*
D03*
X24000Y14750D02*
D03*
X24950D02*
D03*
D11*
X17950Y10400D02*
D03*
Y7800D02*
D03*
D12*
X11700Y9100D02*
D03*
D13*
X22512Y14250D02*
D03*
Y14750D02*
D03*
Y15250D02*
D03*
Y15750D02*
D03*
X17787D02*
D03*
Y15250D02*
D03*
Y14750D02*
D03*
Y14250D02*
D03*
D14*
X22400Y16663D02*
D03*
X21900D02*
D03*
X21400D02*
D03*
X20900D02*
D03*
X20400D02*
D03*
X19900D02*
D03*
X19400D02*
D03*
X18900D02*
D03*
X18400D02*
D03*
X17900D02*
D03*
Y13337D02*
D03*
X18400D02*
D03*
X18900D02*
D03*
X19400D02*
D03*
X19900D02*
D03*
X20400D02*
D03*
X20900D02*
D03*
X21400D02*
D03*
X21900D02*
D03*
X22400D02*
D03*
D15*
X13475Y19350D02*
D03*
X16475D02*
D03*
Y20850D02*
D03*
X13475D02*
D03*
D16*
X11575Y26525D02*
D03*
Y25125D02*
D03*
D17*
X8000Y27550D02*
D03*
Y25650D02*
D03*
X9900Y26600D02*
D03*
D18*
X19900Y18150D02*
D03*
Y19350D02*
D03*
X28050Y10875D02*
D03*
Y9675D02*
D03*
Y12175D02*
D03*
Y13375D02*
D03*
X29515Y10875D02*
D03*
Y9675D02*
D03*
Y12175D02*
D03*
Y13375D02*
D03*
X12850Y26600D02*
D03*
Y25400D02*
D03*
D19*
X24250Y12900D02*
D03*
X25850D02*
D03*
D20*
X19700Y10300D02*
D03*
Y11400D02*
D03*
X8325Y4120D02*
D03*
Y3020D02*
D03*
X19700Y8900D02*
D03*
Y7800D02*
D03*
D21*
X12375Y5925D02*
D03*
X11175D02*
D03*
X14600Y13350D02*
D03*
X15800D02*
D03*
X14600Y14500D02*
D03*
X15800D02*
D03*
X10075Y20075D02*
D03*
X11275D02*
D03*
X10075Y21225D02*
D03*
X11275D02*
D03*
X10075Y18925D02*
D03*
X11275D02*
D03*
X25800Y16000D02*
D03*
X24600D02*
D03*
X15800Y16150D02*
D03*
X14600D02*
D03*
D22*
X18875Y18975D02*
D03*
Y18025D02*
D03*
X20925Y18525D02*
D03*
Y19475D02*
D03*
X7325Y4045D02*
D03*
Y3095D02*
D03*
D23*
X24500Y11600D02*
D03*
X25600D02*
D03*
X11575Y27800D02*
D03*
X12675D02*
D03*
D24*
X17850Y11575D02*
X18225D01*
D25*
X23435Y3570D02*
Y6260D01*
X28050Y10875D01*
X25975Y4975D02*
X28800Y7800D01*
X25975Y3570D02*
Y4975D01*
X28800Y10160D02*
X29515Y10875D01*
X28800Y7800D02*
Y10160D01*
X22650Y17400D02*
X26725D01*
X26750Y17375D01*
X26920D01*
X28775Y15520D01*
X24025Y17025D02*
X26775D01*
X27400Y16400D01*
Y12825D02*
Y16400D01*
X25800Y15100D02*
Y16000D01*
X27400Y12825D02*
X28050Y12175D01*
X23125Y13675D02*
Y14125D01*
X23000Y14250D02*
X23125Y14125D01*
X22412Y14250D02*
X23000D01*
X24000Y13975D02*
Y14750D01*
X13475Y19350D02*
X14950D01*
X13850Y17375D02*
X18175D01*
X13600Y17125D02*
X13850Y17375D01*
X5925Y17125D02*
X13600D01*
X5070Y16270D02*
X5925Y17125D01*
X18175Y17375D02*
X18400Y17150D01*
X11850Y15850D02*
X12225Y15475D01*
X28775Y12915D02*
Y15520D01*
Y12915D02*
X29515Y12175D01*
Y13375D02*
Y14375D01*
X28050Y13375D02*
Y14375D01*
X23425Y11600D02*
X24500D01*
X20650Y9000D02*
Y10300D01*
X20550Y8900D02*
X20650Y9000D01*
X19700Y8900D02*
X20550D01*
X20350Y7800D02*
X21400Y8850D01*
X17950Y7800D02*
X20350D01*
X19700Y10300D02*
X20650D01*
X20900Y11975D02*
Y13438D01*
X20325Y11400D02*
X20900Y11975D01*
X19700Y11400D02*
X20325D01*
X18525Y11575D02*
X19525D01*
X19700Y11400D01*
X29515Y8635D02*
Y9675D01*
X28050Y8635D02*
Y9675D01*
X12225Y15475D02*
X15125D01*
X15800Y16150D01*
X29340Y24745D02*
Y26465D01*
X21900Y17305D02*
X29340Y24745D01*
X21900Y16560D02*
Y17305D01*
X28070Y23970D02*
Y26465D01*
X21400Y17300D02*
X28070Y23970D01*
X21400Y16560D02*
Y17300D01*
X23040Y26465D02*
X24260D01*
X18050Y21475D02*
X23040Y26465D01*
X18050Y18450D02*
Y21475D01*
X9725Y9100D02*
X11700D01*
X20400Y13438D02*
Y14250D01*
X18400Y16560D02*
Y17150D01*
X14700Y22350D02*
X16200Y20850D01*
X12400Y22350D02*
X14700D01*
X11275Y21225D02*
X12400Y22350D01*
X16200Y19350D02*
X16475D01*
X15050Y18200D02*
X16200Y19350D01*
X12000Y18200D02*
X15050D01*
X11275Y18925D02*
X12000Y18200D01*
X13301Y20676D02*
X13475Y20850D01*
X12126Y20676D02*
X13301D01*
X12076D02*
X12126D01*
X11475Y20075D02*
X12076Y20676D01*
X11275Y20075D02*
X11475D01*
X16200Y20850D02*
X16475D01*
X16875Y14250D02*
X17887D01*
X16625Y14500D02*
X16875Y14250D01*
X15800Y14500D02*
X16625D01*
X3795Y20075D02*
X10075D01*
X2530Y18810D02*
X3795Y20075D01*
X5950Y22650D02*
X7375Y21225D01*
X2530Y21350D02*
X3830Y22650D01*
X7375Y21225D02*
X10075D01*
X3830Y22650D02*
X5950D01*
X5070Y18810D02*
X9960D01*
X10075Y18925D01*
X24950Y14000D02*
Y14750D01*
X17887Y14750D02*
X18675D01*
X13575Y16150D02*
X14600D01*
X15800D02*
X16700Y15250D01*
X17887D01*
X23875Y16000D02*
X24600D01*
X23525Y15650D02*
X23875Y16000D01*
X23125Y15250D02*
X23525Y15650D01*
X22412Y15250D02*
X23125D01*
X22750Y15750D02*
X24025Y17025D01*
X22400Y15750D02*
X22750D01*
X3800Y15000D02*
X5675D01*
X13425Y15125D02*
X15175D01*
X5675Y15000D02*
X6450Y14225D01*
X12525D01*
X13425Y15125D01*
X13600Y12725D02*
X15175D01*
X12595Y13730D02*
X13600Y12725D01*
X5070Y13730D02*
X12595D01*
X2530D02*
X3800Y15000D01*
X15175Y15125D02*
X15800Y14500D01*
X15175Y12725D02*
X15800Y13350D01*
X14075D02*
X14600D01*
X13475Y13950D02*
X14075Y13350D01*
X13475Y13950D02*
X14025Y14500D01*
X14600D01*
X17813Y13350D02*
X17900Y13438D01*
X15800Y13350D02*
X17813D01*
X16812Y16562D02*
X17900D01*
X18050Y18450D02*
X18475Y18025D01*
X18050Y18450D02*
Y18450D01*
X18475Y18025D02*
X18875D01*
X19775D02*
X19900Y18150D01*
X18875Y18025D02*
X19775D01*
X19900Y19350D02*
Y20275D01*
X18875Y18975D02*
Y19900D01*
X20400Y15700D02*
Y16562D01*
X20900D02*
Y18525D01*
X19900Y16562D02*
Y18150D01*
X29515Y10875D02*
Y12175D01*
X28050Y10875D02*
Y12175D01*
X24000Y14750D02*
X24000Y14750D01*
X22412Y14750D02*
X24000D01*
X22150Y12550D02*
X23900D01*
X21900Y13438D02*
Y13440D01*
X24250Y11850D02*
X24500Y11600D01*
X24250Y11850D02*
Y12900D01*
X23900Y12550D02*
X24250Y12900D01*
X21900Y12800D02*
X22150Y12550D01*
X21900Y12800D02*
Y13438D01*
X21400Y8850D02*
Y13438D01*
X17575Y10775D02*
X17950Y10400D01*
X17575Y10775D02*
Y11575D01*
X10058Y25125D02*
X11575D01*
X8953D02*
X10058D01*
X11575D02*
X12025Y25575D01*
Y25825D01*
X12675Y26475D01*
Y27800D01*
X8428Y25650D02*
X8953Y25125D01*
X8000Y25650D02*
X8428D01*
X6190Y27550D02*
X8000D01*
X5070Y26430D02*
X6190Y27550D01*
X8000D02*
X10550D01*
X11575Y26525D01*
X22400Y17150D02*
X22650Y17400D01*
X22400Y16560D02*
Y17150D01*
D26*
X13045Y3570D02*
Y5255D01*
X12375Y5925D02*
X13045Y5255D01*
X10505Y5255D02*
X11175Y5925D01*
X10505Y3570D02*
Y5255D01*
X7250Y3020D02*
X8325D01*
X2530Y3570D02*
X4375Y1725D01*
X9955Y3020D02*
X10505Y3570D01*
X8325Y3020D02*
X9955D01*
X5955Y1725D02*
X7250Y3020D01*
X4375Y1725D02*
X5955D01*
D27*
X26325Y11600D02*
X26675Y11950D01*
X25600Y11600D02*
X26325D01*
X8450Y26600D02*
X9900D01*
X11575Y27800D02*
Y28725D01*
X12850Y24375D02*
Y25400D01*
D28*
X23435Y3570D02*
D03*
X25975D02*
D03*
X13045Y3570D02*
D03*
D29*
X28515Y3570D02*
D03*
X10505Y3570D02*
D03*
D30*
X2530Y26430D02*
D03*
X5070Y21350D02*
D03*
X2530D02*
D03*
Y23890D02*
D03*
X5070D02*
D03*
X2530Y3570D02*
D03*
Y6110D02*
D03*
X5070D02*
D03*
X2530Y13730D02*
D03*
X5070Y11190D02*
D03*
X2530D02*
D03*
Y8650D02*
D03*
X5070Y13730D02*
D03*
Y8650D02*
D03*
Y16270D02*
D03*
X2530Y18810D02*
D03*
X5070D02*
D03*
X2530Y16270D02*
D03*
X5070Y3570D02*
D03*
D31*
Y26430D02*
D03*
D32*
X24260Y27735D02*
D03*
Y26465D02*
D03*
X29340D02*
D03*
X28070D02*
D03*
X26800D02*
D03*
X25530D02*
D03*
Y27735D02*
D03*
X26800D02*
D03*
X28070D02*
D03*
X29340D02*
D03*
D33*
X8000Y7380D02*
D03*
Y22620D02*
D03*
D34*
X25800Y15100D02*
D03*
X23125Y13675D02*
D03*
X24000Y13975D02*
D03*
X14950Y19350D02*
D03*
X20625Y9750D02*
D03*
X6675Y16075D02*
D03*
X11850Y15850D02*
D03*
X29515Y14375D02*
D03*
X28050D02*
D03*
X23425Y11600D02*
D03*
X29515Y8635D02*
D03*
X28050D02*
D03*
X20900Y17544D02*
D03*
X9725Y9100D02*
D03*
X20400Y14250D02*
D03*
X14700Y22350D02*
D03*
X12000Y18200D02*
D03*
X12076Y20676D02*
D03*
X24950Y14000D02*
D03*
X18675Y14750D02*
D03*
X13575Y16150D02*
D03*
X23525Y15650D02*
D03*
X13475Y13950D02*
D03*
X16812Y16562D02*
D03*
X18050Y18450D02*
D03*
X19900Y20275D02*
D03*
X18875Y19900D02*
D03*
X20400Y15700D02*
D03*
X26675Y11950D02*
D03*
X7750Y5175D02*
D03*
X10058Y25125D02*
D03*
X8450Y26600D02*
D03*
X11575Y28725D02*
D03*
X12850Y24375D02*
D03*
M02*
